AcariSans-Black.ufo
<glyph name="exclam" format="2">
  <advance width="651"/>
  <unicode hex="0021"/>
  <outline>
    <contour>
      <point x="435" y="458" type="line"/>
      <point x="464" y="1467" type="line"/>
      <point x="188" y="1467" type="line"/>
      <point x="218" y="458" type="line"/>
    </contour>
    <contour>
      <point x="477" y="0" type="line"/>
      <point x="477" y="299" type="line"/>
      <point x="176" y="299" type="line"/>
      <point x="176" y="0" type="line"/>
    </contour>
  </outline>
</glyph>
<glyph name="quotedbl" format="2">
  <advance width="997"/>
  <unicode hex="0022"/>
  <outline>
    <contour>
      <point x="430.08" y="848.896" type="line" name=".av03"/>
      <point x="430.08" y="1446.91" type="line" name=".av01"/>
      <point x="197.632" y="1446.91" type="line" name=".sh01"/>
      <point x="197.632" y="848.896" type="line"/>
    </contour>
    <contour>
      <point x="800.768" y="848.896" type="line" name=".av04"/>
      <point x="800.768" y="1446.91" type="line" name=".av02"/>
      <point x="569.344" y="1446.91" type="line" name=".ah01"/>
      <point x="569.344" y="848.896" type="line"/>
    </contour>
  </outline>
</glyph>
<glyph name="numbersign" format="2">
  <advance width="1420"/>
  <unicode hex="0023"/>
  <outline>
    <contour>
      <point x="885" y="0" type="line"/>
      <point x="979" y="401" type="line"/>
      <point x="1268" y="401" type="line"/>
      <point x="1268" y="614" type="line"/>
      <point x="1022" y="614" type="line"/>
      <point x="1070" y="854" type="line"/>
      <point x="1352" y="854" type="line"/>
      <point x="1352" y="1055" type="line"/>
      <point x="1114" y="1055" type="line"/>
      <point x="1210" y="1468" type="line"/>
      <point x="985" y="1468" type="line"/>
      <point x="891" y="1021" type="line"/>
      <point x="663" y="1021" type="line"/>
      <point x="762" y="1468" type="line"/>
      <point x="536" y="1468" type="line"/>
      <point x="439" y="1067" type="line"/>
      <point x="153" y="1067" type="line"/>
      <point x="153" y="854" type="line"/>
      <point x="396" y="854" type="line"/>
      <point x="347" y="614" type="line"/>
      <point x="69" y="614" type="line"/>
      <point x="69" y="414" type="line"/>
      <point x="304" y="414" type="line"/>
      <point x="212" y="0" type="line"/>
      <point x="436" y="0" type="line"/>
      <point x="528" y="446" type="line"/>
      <point x="756" y="446" type="line"/>
      <point x="660" y="0" type="line"/>
    </contour>
    <contour>
      <point x="798" y="614" type="line"/>
      <point x="571" y="614" type="line"/>
      <point x="619" y="854" type="line"/>
      <point x="848" y="854" type="line"/>
    </contour>
  </outline>
</glyph>
<glyph name="dollar" format="2">
  <advance width="1162"/>
  <unicode hex="0024"/>
  <outline>
    <contour>
      <point x="34" y="400" type="line"/>
      <point x="70" y="174"/>
      <point x="253" y="31"/>
      <point x="464" y="-12" type="curve" name=".sv02"/>
      <point x="464" y="-252" type="line"/>
      <point x="699" y="-252" type="line" name=".dv01"/>
      <point x="699" y="-17" type="line" name=".sv01"/>
      <point x="924" y="12"/>
      <point x="1114" y="180"/>
      <point x="1114" y="417" type="curve" smooth="yes" name=".dh05"/>
      <point x="1114" y="703"/>
      <point x="937" y="779"/>
      <point x="695" y="879" type="curve" smooth="yes"/>
      <point x="640" y="901" type="line" smooth="yes"/>
      <point x="484" y="965"/>
      <point x="418" y="994"/>
      <point x="418" y="1083" type="curve" smooth="yes" name=".dh02"/>
      <point x="418" y="1173"/>
      <point x="509" y="1218"/>
      <point x="588" y="1218" type="curve" smooth="yes" name=".dv03"/>
      <point x="685" y="1218"/>
      <point x="759" y="1175"/>
      <point x="808" y="1089" type="curve"/>
      <point x="1043" y="1226" type="line"/>
      <point x="970" y="1358"/>
      <point x="856" y="1437"/>
      <point x="699" y="1466" type="curve"/>
      <point x="699" y="1699" type="line" name=".dv04"/>
      <point x="464" y="1699" type="line" name=".dh03"/>
      <point x="464" y="1460" type="line"/>
      <point x="278" y="1415"/>
      <point x="130" y="1274"/>
      <point x="130" y="1074" type="curve" smooth="yes" name=".dh01"/>
      <point x="130" y="817"/>
      <point x="320" y="735"/>
      <point x="520" y="648" type="curve" smooth="yes"/>
      <point x="582" y="621" type="line" smooth="yes"/>
      <point x="668" y="584"/>
      <point x="826" y="512"/>
      <point x="826" y="419" type="curve" smooth="yes" name=".dh04"/>
      <point x="826" y="299"/>
      <point x="760" y="241"/>
      <point x="601" y="241" type="curve" smooth="yes" name=".dv02"/>
      <point x="440" y="241"/>
      <point x="337" y="316"/>
      <point x="315" y="458" type="curve"/>
    </contour>
  </outline>
</glyph>
<glyph name="percent" format="2">
  <advance width="1229"/>
  <unicode hex="0025"/>
  <outline>
    <contour>
      <point x="906" y="-19" type="curve" smooth="yes"/>
      <point x="1089" y="-19"/>
      <point x="1209" y="123"/>
      <point x="1209" y="339" type="curve" smooth="yes"/>
      <point x="1209" y="526"/>
      <point x="1074" y="679"/>
      <point x="908" y="679" type="curve" smooth="yes"/>
      <point x="734" y="679"/>
      <point x="608" y="533"/>
      <point x="608" y="331" type="curve" smooth="yes"/>
      <point x="608" y="128"/>
      <point x="733" y="-19"/>
    </contour>
    <contour>
      <point x="907" y="186" type="curve" smooth="yes"/>
      <point x="855" y="186"/>
      <point x="816" y="248"/>
      <point x="816" y="331" type="curve" smooth="yes"/>
      <point x="816" y="416"/>
      <point x="853" y="472"/>
      <point x="908" y="472" type="curve" smooth="yes"/>
      <point x="965" y="472"/>
      <point x="999" y="420"/>
      <point x="999" y="330" type="curve" smooth="yes"/>
      <point x="999" y="252"/>
      <point x="956" y="186"/>
    </contour>
    <contour>
      <point x="91" y="0" type="curve"/>
      <point x="337" y="0" type="line"/>
      <point x="613" y="612"/>
      <point x="777" y="944"/>
      <point x="1105" y="1448" type="curve"/>
      <point x="858" y="1448" type="line"/>
      <point x="656" y="944"/>
      <point x="482" y="612"/>
    </contour>
    <contour>
      <point x="318" y="770" type="curve" smooth="yes"/>
      <point x="501" y="770"/>
      <point x="621" y="912"/>
      <point x="621" y="1128" type="curve" smooth="yes"/>
      <point x="621" y="1315"/>
      <point x="486" y="1468"/>
      <point x="320" y="1468" type="curve" smooth="yes"/>
      <point x="146" y="1468"/>
      <point x="20" y="1322"/>
      <point x="20" y="1120" type="curve" smooth="yes"/>
      <point x="20" y="917"/>
      <point x="145" y="770"/>
    </contour>
    <contour>
      <point x="319" y="975" type="curve" smooth="yes"/>
      <point x="267" y="975"/>
      <point x="228" y="1037"/>
      <point x="228" y="1120" type="curve" smooth="yes"/>
      <point x="228" y="1205"/>
      <point x="265" y="1261"/>
      <point x="320" y="1261" type="curve" smooth="yes"/>
      <point x="377" y="1261"/>
      <point x="411" y="1209"/>
      <point x="411" y="1119" type="curve" smooth="yes"/>
      <point x="411" y="1041"/>
      <point x="368" y="975"/>
    </contour>
  </outline>
</glyph>
<glyph name="ampersand" format="2">
  <advance width="1417"/>
  <unicode hex="0026"/>
  <outline>
    <contour>
      <point x="67" y="347" type="curve" smooth="yes" name=".dh01"/>
      <point x="67" y="124"/>
      <point x="256" y="-20"/>
      <point x="548" y="-20" type="curve" smooth="yes" name=".dv01"/>
      <point x="723" y="-20"/>
      <point x="868" y="28"/>
      <point x="990" y="127" type="curve"/>
      <point x="1178" y="-85" type="line" name=".av01"/>
      <point x="1377" y="94" type="line"/>
      <point x="1164" y="331" type="line"/>
      <point x="1228" y="434"/>
      <point x="1264" y="552"/>
      <point x="1271" y="686" type="curve"/>
      <point x="993" y="714" type="line"/>
      <point x="993" y="643"/>
      <point x="987" y="597"/>
      <point x="971" y="546" type="curve" name=".ih01"/>
      <point x="797" y="736" type="line"/>
      <point x="969" y="852"/>
      <point x="1049" y="973"/>
      <point x="1049" y="1119" type="curve" smooth="yes" name=".dh04"/>
      <point x="1049" y="1328"/>
      <point x="890" y="1468"/>
      <point x="654" y="1468" type="curve" smooth="yes" name=".dv04"/>
      <point x="403" y="1468"/>
      <point x="230" y="1324"/>
      <point x="230" y="1116" type="curve" smooth="yes" name=".ih02"/>
      <point x="230" y="996"/>
      <point x="285" y="885"/>
      <point x="394" y="783" type="curve" name=".ih03"/>
      <point x="166" y="655"/>
      <point x="67" y="523"/>
    </contour>
    <contour>
      <point x="612" y="908" type="curve"/>
      <point x="540" y="992"/>
      <point x="505" y="1060"/>
      <point x="505" y="1112" type="curve" smooth="yes" name=".sh01"/>
      <point x="505" y="1197"/>
      <point x="560" y="1251"/>
      <point x="648" y="1251" type="curve" smooth="yes" name=".dv03"/>
      <point x="734" y="1251"/>
      <point x="784" y="1201"/>
      <point x="784" y="1114" type="curve" smooth="yes" name=".dh03"/>
      <point x="784" y="1040"/>
      <point x="729" y="974"/>
    </contour>
    <contour>
      <point x="341" y="364" type="curve" smooth="yes" name=".dh02"/>
      <point x="341" y="444"/>
      <point x="401" y="497"/>
      <point x="573" y="600" type="curve"/>
      <point x="825" y="315" type="line"/>
      <point x="744" y="245"/>
      <point x="653" y="211"/>
      <point x="551" y="211" type="curve" smooth="yes" name=".dv02"/>
      <point x="426" y="211"/>
      <point x="341" y="273"/>
    </contour>
  </outline>
</glyph>
<glyph name="quotesingle" format="2">
  <advance width="626"/>
  <unicode hex="0027"/>
  <outline>
    <contour>
      <point x="430" y="879" type="line"/>
      <point x="430" y="1477" type="line"/>
      <point x="198" y="1477" type="line"/>
      <point x="198" y="879" type="line"/>
    </contour>
  </outline>
</glyph>
<glyph name="parenleft" format="2">
  <advance width="632"/>
  <unicode hex="0028"/>
  <outline>
    <contour>
      <point x="60.184" y="723.968" type="curve" smooth="yes" name=".dh01"/>
      <point x="60.184" y="373.439"/>
      <point x="171.35" y="64.1628"/>
      <point x="377.088" y="-157.696" type="curve"/>
      <point x="631.944" y="-157.696" type="line" name=".av02"/>
      <point x="420.13" y="126.801"/>
      <point x="330.344" y="374.236"/>
      <point x="330.344" y="723.848" type="curve" smooth="yes" name=".dh02"/>
      <point x="330.344" y="1074.43"/>
      <point x="419.67" y="1320.87"/>
      <point x="631.944" y="1605.51" type="curve" name=".av01"/>
      <point x="377.088" y="1605.51" type="line"/>
      <point x="170.535" y="1384.33"/>
      <point x="60.184" y="1080.67"/>
    </contour>
  </outline>
</glyph>
<glyph name="parenright" format="2">
  <advance width="640"/>
  <unicode hex="0029"/>
  <outline>
    <contour>
      <point x="585" y="724" type="curve" smooth="yes"/>
      <point x="585" y="1086"/>
      <point x="473" y="1394"/>
      <point x="264" y="1614" type="curve"/>
      <point x="0" y="1614" type="line"/>
      <point x="219" y="1325"/>
      <point x="307" y="1083"/>
      <point x="307" y="724" type="curve" smooth="yes"/>
      <point x="307" y="364"/>
      <point x="219" y="124"/>
      <point x="0" y="-166" type="curve"/>
      <point x="264" y="-166" type="line"/>
      <point x="475" y="53"/>
      <point x="585" y="365"/>
    </contour>
  </outline>
</glyph>
<glyph name="asterisk" format="2">
  <advance width="936"/>
  <unicode hex="002A"/>
  <outline>
    <contour>
      <point x="575" y="848" type="line"/>
      <point x="764" y="967" type="line"/>
      <point x="608" y="1115" type="line"/>
      <point x="831" y="1142" type="line"/>
      <point x="762" y="1335" type="line"/>
      <point x="557" y="1259" type="line"/>
      <point x="586" y="1447" type="line"/>
      <point x="353" y="1447" type="line"/>
      <point x="382" y="1259" type="line"/>
      <point x="177" y="1335" type="line"/>
      <point x="104" y="1142" type="line"/>
      <point x="328" y="1115" type="line"/>
      <point x="172" y="967" type="line"/>
      <point x="359" y="848" type="line"/>
      <point x="470" y="1051" type="line"/>
    </contour>
  </outline>
</glyph>
<glyph name="plus" format="2">
  <advance width="1278"/>
  <unicode hex="002B"/>
  <outline>
    <contour>
      <point x="747" y="109" type="line"/>
      <point x="747" y="529" type="line"/>
      <point x="1215" y="529" type="line"/>
      <point x="1215" y="748" type="line"/>
      <point x="747" y="748" type="line"/>
      <point x="747" y="1170" type="line"/>
      <point x="532" y="1170" type="line"/>
      <point x="532" y="748" type="line"/>
      <point x="64" y="748" type="line"/>
      <point x="64" y="529" type="line"/>
      <point x="532" y="529" type="line"/>
      <point x="532" y="109" type="line"/>
    </contour>
  </outline>
</glyph>
<glyph name="comma" format="2">
  <advance width="614"/>
  <unicode hex="002C"/>
  <outline>
    <contour>
      <point x="285" y="-302" type="line"/>
      <point x="550" y="270" type="line"/>
      <point x="228" y="270" type="line"/>
      <point x="92" y="-302" type="line"/>
    </contour>
  </outline>
</glyph>
<glyph name="hyphen" format="2">
  <advance width="897"/>
  <unicode hex="002D"/>
  <outline>
    <contour>
      <point x="758.784" y="497.664" type="line" name=".dv01"/>
      <point x="758.784" y="708.608" type="line" name=".dv02"/>
      <point x="138.24" y="708.608" type="line"/>
      <point x="138.24" y="497.664" type="line"/>
    </contour>
  </outline>
</glyph>
<glyph name="period" format="2">
  <advance width="614"/>
  <unicode hex="002E"/>
  <outline>
    <contour>
      <point x="440" y="0" type="line" name=".dv01"/>
      <point x="440" y="293" type="line" name=".dv02"/>
      <point x="174" y="293" type="line" name=".dh01"/>
      <point x="174" y="0" type="line"/>
    </contour>
  </outline>
</glyph>
<glyph name="slash" format="2">
  <advance width="958"/>
  <unicode hex="002F"/>
  <outline>
    <contour>
      <point x="203" y="-440" type="line" name=".av02"/>
      <point x="1012" y="1552" type="line" name=".av01"/>
      <point x="754" y="1552" type="line"/>
      <point x="-53" y="-440" type="line"/>
    </contour>
  </outline>
</glyph>
<glyph name="zero" format="2">
  <advance width="1229"/>
  <unicode hex="0030"/>
  <outline>
    <contour>
      <point x="623.616" y="-20.48" type="curve" smooth="yes" name=".dv01"/>
      <point x="1021.86" y="-20.48"/>
      <point x="1210.37" y="363.542"/>
      <point x="1210.37" y="722.944" type="curve" smooth="yes" name=".sh01"/>
      <point x="1210.37" y="1081.51"/>
      <point x="1012.39" y="1470.46"/>
      <point x="609.28" y="1470.46" type="curve" smooth="yes" name=".dv04"/>
      <point x="202.829" y="1470.46"/>
      <point x="21.504" y="1091.02"/>
      <point x="21.504" y="723.968" type="curve" smooth="yes" name=".sh02"/>
      <point x="21.504" y="354.79"/>
      <point x="208.644" y="-20.48"/>
    </contour>
    <contour>
      <point x="617.472" y="254.976" type="curve" smooth="yes" name=".dv02"/>
      <point x="397.532" y="254.976"/>
      <point x="308.224" y="530.68"/>
      <point x="308.224" y="709.632" type="curve" smooth="yes" name=".sh03"/>
      <point x="308.224" y="888.386"/>
      <point x="367.686" y="1189.89"/>
      <point x="604.16" y="1189.89" type="curve" smooth="yes"/>
      <point x="828.059" y="1189.89"/>
      <point x="910.336" y="919.801"/>
      <point x="910.336" y="738.304" type="curve" smooth="yes" name=".ah01"/>
      <point x="910.336" y="553.459"/>
      <point x="849.047" y="254.976"/>
    </contour>
  </outline>
  <guideline angle="90" x="617.472" y="0"/>
  <guideline angle="0" x="0" y="721.92"/>
</glyph>
<glyph name="one" format="2">
  <advance width="1229"/>
  <unicode hex="0031"/>
  <outline>
    <contour>
      <point x="846.848" y="0" type="line" name=".av01"/>
      <point x="846.848" y="1446.91" type="line" name=".av02"/>
      <point x="570.368" y="1446.91" type="line"/>
      <point x="570.368" y="1402.88" type="line" smooth="yes" name=".sh01"/>
      <point x="570.368" y="1311.74"/>
      <point x="524.288" y="1256.45"/>
      <point x="422.912" y="1256.45" type="curve" smooth="yes"/>
      <point x="179.2" y="1256.45" type="line" name=".dv02"/>
      <point x="179.2" y="1036.29" type="line" name=".dv01"/>
      <point x="561.152" y="1036.29" type="line" name=".dh01"/>
      <point x="561.152" y="0" type="line"/>
    </contour>
  </outline>
</glyph>
<glyph name="two" format="2">
  <advance width="1229"/>
  <unicode hex="0032"/>
  <outline>
    <contour>
      <point x="37" y="0" type="line"/>
      <point x="1164" y="0" type="line" name=".dv01"/>
      <point x="1164" y="264" type="line" name=".dv02"/>
      <point x="529" y="264" type="line"/>
      <point x="934" y="536"/>
      <point x="1094" y="752"/>
      <point x="1094" y="1033" type="curve" smooth="yes" name=".dh02"/>
      <point x="1094" y="1283"/>
      <point x="865" y="1466"/>
      <point x="624" y="1466" type="curve" smooth="yes" name=".dv04"/>
      <point x="311" y="1466"/>
      <point x="93" y="1200"/>
      <point x="93" y="921" type="curve"/>
      <point x="377" y="904" type="line"/>
      <point x="377" y="1060"/>
      <point x="440" y="1205"/>
      <point x="616" y="1205" type="curve" smooth="yes" name=".dv03"/>
      <point x="736" y="1205"/>
      <point x="805" y="1133"/>
      <point x="805" y="1015" type="curve" smooth="yes" name=".dh01"/>
      <point x="805" y="742"/>
      <point x="246" y="309"/>
      <point x="29" y="219" type="curve" name=".iv01"/>
      <point x="37" y="224" type="line" name=".iv02"/>
    </contour>
  </outline>
</glyph>
<glyph name="three" format="2">
  <advance width="1229"/>
  <unicode hex="0033"/>
  <outline>
    <contour>
      <point x="44" y="472" type="line" name=".dh01"/>
      <point x="44" y="142"/>
      <point x="313" y="-20"/>
      <point x="611" y="-20" type="curve" smooth="yes" name=".dv01"/>
      <point x="874" y="-20"/>
      <point x="1150" y="142"/>
      <point x="1150" y="438" type="curve" smooth="yes" name=".dh04"/>
      <point x="1150" y="594"/>
      <point x="1083" y="710"/>
      <point x="959" y="788" type="curve"/>
      <point x="1029" y="861"/>
      <point x="1071" y="962"/>
      <point x="1071" y="1068" type="curve" smooth="yes" name=".ih01"/>
      <point x="1071" y="1311"/>
      <point x="841" y="1468"/>
      <point x="601" y="1468" type="curve" smooth="yes" name=".dv04"/>
      <point x="340" y="1468"/>
      <point x="114" y="1300"/>
      <point x="114" y="1023" type="curve" name=".ih02"/>
      <point x="389" y="1005" type="line" name=".sh01"/>
      <point x="389" y="1137"/>
      <point x="486" y="1196"/>
      <point x="598" y="1196" type="curve" smooth="yes" name=".dv03"/>
      <point x="720" y="1196"/>
      <point x="791" y="1138"/>
      <point x="791" y="1032" type="curve" smooth="yes" name=".sh02"/>
      <point x="791" y="950"/>
      <point x="747" y="889"/>
      <point x="641" y="889" type="curve" smooth="yes"/>
      <point x="454" y="889" type="line" name=".dv06"/>
      <point x="454" y="646" type="line" name=".dv05"/>
      <point x="641" y="646" type="line" smooth="yes"/>
      <point x="765" y="646"/>
      <point x="870" y="593"/>
      <point x="870" y="456" type="curve" smooth="yes" name=".dh03"/>
      <point x="870" y="319"/>
      <point x="746" y="249"/>
      <point x="602" y="249" type="curve" smooth="yes" name=".dv02"/>
      <point x="438" y="249"/>
      <point x="323" y="341"/>
      <point x="323" y="487" type="curve" name=".dh02"/>
    </contour>
  </outline>
</glyph>
<glyph name="four" format="2">
  <advance width="1229"/>
  <unicode hex="0034"/>
  <outline>
    <contour>
      <point x="953" y="0" type="line" name=".av01"/>
      <point x="953" y="325" type="line" name=".dv01"/>
      <point x="1185" y="325" type="line"/>
      <point x="1185" y="592" type="line"/>
      <point x="953" y="592" type="line" name=".dv02"/>
      <point x="953" y="1447" type="line" name=".av02"/>
      <point x="712" y="1447" type="line"/>
      <point x="-2" y="493" type="line"/>
      <point x="-2" y="325" type="line" name=".sv01"/>
      <point x="668" y="325" type="line" name=".dh01"/>
      <point x="668" y="0" type="line"/>
    </contour>
    <contour>
      <point x="668" y="592" type="line" name=".sv02"/>
      <point x="376" y="592" type="line" name=".iv01"/>
      <point x="668" y="1000" type="line" name=".iv02"/>
    </contour>
  </outline>
</glyph>
<glyph name="five" format="2">
  <advance width="1229"/>
  <unicode hex="0035"/>
  <outline>
    <contour>
      <point x="67" y="432" type="line"/>
      <point x="122.149" y="154.004"/>
      <point x="329.048" y="-19.752"/>
      <point x="604" y="-20" type="curve" smooth="yes" name=".dv01"/>
      <point x="922.574" y="-20.2873"/>
      <point x="1150.03" y="200.363"/>
      <point x="1150" y="510" type="curve" smooth="yes"/>
      <point x="1149.97" y="806.914"/>
      <point x="952.235" y="1010.31"/>
      <point x="656" y="1010" type="curve" smooth="yes" name=".dv06"/>
      <point x="589" y="1009.93"/>
      <point x="524.728" y="997.32"/>
      <point x="438" y="968" type="curve"/>
      <point x="482" y="1178" type="line" name=".dv03"/>
      <point x="1085" y="1178" type="line"/>
      <point x="1085" y="1447" type="line"/>
      <point x="251" y="1447" type="line" name=".dv04"/>
      <point x="106" y="676" type="line"/>
      <point x="371" y="618" type="line"/>
      <point x="413" y="690"/>
      <point x="511.911" y="743.834"/>
      <point x="601" y="744" type="curve" smooth="yes" name=".dv05"/>
      <point x="752" y="744.282"/>
      <point x="854.979" y="645.264"/>
      <point x="855" y="501" type="curve" smooth="yes" name=".dh01"/>
      <point x="855.023" y="346.395"/>
      <point x="758.136" y="245.149"/>
      <point x="612" y="245" type="curve" smooth="yes"/>
      <point x="474" y="244.859"/>
      <point x="370.08" y="343.192"/>
      <point x="338" y="504" type="curve"/>
    </contour>
  </outline>
</glyph>
<glyph name="six" format="2">
  <advance width="1229"/>
  <unicode hex="0036"/>
  <outline>
    <contour>
      <point x="626.688" y="-20.48" type="curve" smooth="yes" name=".dv01"/>
      <point x="899.063" y="-20.48"/>
      <point x="1158.14" y="201.017"/>
      <point x="1158.14" y="482.304" type="curve" smooth="yes"/>
      <point x="1158.14" y="774.342"/>
      <point x="915.785" y="986.112"/>
      <point x="630.784" y="986.112" type="curve" smooth="yes"/>
      <point x="616.448" y="986.112" type="line"/>
      <point x="926.72" y="1446.91" type="line" name=".av01"/>
      <point x="590.848" y="1446.91" type="line"/>
      <point x="152.576" y="741.376" type="line" smooth="yes"/>
      <point x="98.0464" y="653.594"/>
      <point x="72.704" y="574.835"/>
      <point x="72.704" y="471.04" type="curve" smooth="yes"/>
      <point x="72.704" y="174.562"/>
      <point x="352.135" y="-20.48"/>
    </contour>
    <contour>
      <point x="624.64" y="252.928" type="curve" smooth="yes" name=".dv02"/>
      <point x="496.74" y="252.928"/>
      <point x="357.376" y="344.959"/>
      <point x="357.376" y="485.376" type="curve" smooth="yes" name=".sh04"/>
      <point x="357.376" y="621.463"/>
      <point x="474.562" y="730.172"/>
      <point x="609.28" y="730.112" type="curve" smooth="yes"/>
      <point x="751.048" y="730.049"/>
      <point x="874.496" y="633.731"/>
      <point x="874.496" y="485.376" type="curve" smooth="yes"/>
      <point x="874.496" y="356.91"/>
      <point x="748.304" y="252.928"/>
    </contour>
  </outline>
</glyph>
<glyph name="seven" format="2">
  <advance width="1229"/>
  <unicode hex="0037"/>
  <outline>
    <contour>
      <point x="185" y="0" type="line"/>
      <point x="515" y="0" type="line"/>
      <point x="1164" y="1294" type="line"/>
      <point x="1164" y="1447" type="line"/>
      <point x="87" y="1447" type="line"/>
      <point x="87" y="1174" type="line"/>
      <point x="800" y="1174" type="line"/>
    </contour>
  </outline>
</glyph>
<glyph name="eight" format="2">
  <advance width="1229"/>
  <unicode hex="0038"/>
  <outline>
    <contour>
      <point x="602" y="-20" type="curve" smooth="yes"/>
      <point x="927" y="-20"/>
      <point x="1168" y="170"/>
      <point x="1168" y="426" type="curve" smooth="yes"/>
      <point x="1168" y="579"/>
      <point x="1105" y="696"/>
      <point x="975" y="782" type="curve"/>
      <point x="1054" y="861"/>
      <point x="1096" y="960"/>
      <point x="1096" y="1069" type="curve" smooth="yes"/>
      <point x="1096" y="1288"/>
      <point x="878" y="1468"/>
      <point x="613" y="1468" type="curve" smooth="yes"/>
      <point x="355" y="1468"/>
      <point x="133" y="1282"/>
      <point x="133" y="1065" type="curve" smooth="yes"/>
      <point x="133" y="956"/>
      <point x="173" y="862"/>
      <point x="254" y="782" type="curve"/>
      <point x="129" y="696"/>
      <point x="61" y="569"/>
      <point x="61" y="422" type="curve" smooth="yes"/>
      <point x="61" y="174"/>
      <point x="298" y="-20"/>
    </contour>
    <contour>
      <point x="617" y="898" type="curve" smooth="yes"/>
      <point x="505" y="898"/>
      <point x="428" y="964"/>
      <point x="428" y="1060" type="curve" smooth="yes"/>
      <point x="428" y="1161"/>
      <point x="496" y="1221"/>
      <point x="609" y="1221" type="curve" smooth="yes"/>
      <point x="734" y="1221"/>
      <point x="809" y="1161"/>
      <point x="809" y="1060" type="curve" smooth="yes"/>
      <point x="809" y="961"/>
      <point x="734" y="898"/>
    </contour>
    <contour>
      <point x="611" y="236" type="curve" smooth="yes"/>
      <point x="452" y="236"/>
      <point x="353" y="314"/>
      <point x="353" y="438" type="curve" smooth="yes"/>
      <point x="353" y="560"/>
      <point x="454" y="638"/>
      <point x="611" y="638" type="curve" smooth="yes"/>
      <point x="772" y="638"/>
      <point x="872" y="561"/>
      <point x="872" y="434" type="curve" smooth="yes"/>
      <point x="872" y="313"/>
      <point x="771" y="236"/>
    </contour>
  </outline>
</glyph>
<glyph name="nine" format="2">
  <advance width="1229"/>
  <unicode hex="0039"/>
  <outline>
    <contour>
      <point x="301" y="0" type="line"/>
      <point x="638" y="0" type="line"/>
      <point x="1074" y="706" type="line" smooth="yes"/>
      <point x="1096" y="741"/>
      <point x="1127" y="805"/>
      <point x="1146" y="871"/>
      <point x="1155" y="941"/>
      <point x="1155" y="983" type="qcurve" smooth="yes"/>
      <point x="1155" y="1087"/>
      <point x="1074" y="1264"/>
      <point x="928" y="1394"/>
      <point x="724" y="1468"/>
      <point x="602" y="1468" type="qcurve" smooth="yes"/>
      <point x="480" y="1468"/>
      <point x="283" y="1391"/>
      <point x="145" y="1258"/>
      <point x="70" y="1077"/>
      <point x="70" y="973" type="qcurve" smooth="yes"/>
      <point x="70" y="861"/>
      <point x="133" y="679"/>
      <point x="248" y="551"/>
      <point x="409" y="482"/>
      <point x="508" y="482" type="qcurve" smooth="yes"/>
      <point x="553" y="482"/>
      <point x="612" y="487"/>
      <point x="639" y="495" type="qcurve"/>
    </contour>
    <contour>
      <point x="618" y="716" type="qcurve" smooth="yes"/>
      <point x="565" y="716"/>
      <point x="469" y="751"/>
      <point x="397" y="816"/>
      <point x="354" y="907"/>
      <point x="354" y="963" type="qcurve" smooth="yes"/>
      <point x="354" y="1013"/>
      <point x="391" y="1098"/>
      <point x="458" y="1160"/>
      <point x="549" y="1194"/>
      <point x="603" y="1194" type="qcurve" smooth="yes"/>
      <point x="665" y="1194"/>
      <point x="763" y="1162"/>
      <point x="833" y="1102"/>
      <point x="870" y="1016"/>
      <point x="870" y="962" type="qcurve" smooth="yes"/>
      <point x="870" y="911"/>
      <point x="830" y="821"/>
      <point x="761" y="754"/>
      <point x="669" y="716"/>
    </contour>
  </outline>
</glyph>
<glyph name="colon" format="2">
  <advance width="693"/>
  <unicode hex="003A"/>
  <outline>
    <contour>
      <point x="494.592" y="684.032" type="line" name=".dv03"/>
      <point x="494.592" y="976.896" type="line" name=".dv04"/>
      <point x="199.68" y="976.896" type="line" name=".dh01"/>
      <point x="199.68" y="684.032" type="line"/>
    </contour>
    <contour>
      <point x="494.592" y="0" type="line" name=".dv01"/>
      <point x="494.592" y="292.864" type="line" name=".dv02"/>
      <point x="199.68" y="292.864" type="line" name=".sh01"/>
      <point x="199.68" y="0" type="line"/>
    </contour>
  </outline>
</glyph>
<glyph name="semicolon" format="2">
  <advance width="614"/>
  <unicode hex="003B"/>
  <outline>
    <contour>
      <point x="457" y="678" type="line"/>
      <point x="457" y="977" type="line"/>
      <point x="158" y="977" type="line"/>
      <point x="158" y="678" type="line"/>
    </contour>
    <contour>
      <point x="263" y="-302" type="line"/>
      <point x="527" y="270" type="line"/>
      <point x="206" y="270" type="line"/>
      <point x="68" y="-302" type="line"/>
    </contour>
  </outline>
</glyph>
<glyph name="less" format="2">
  <advance width="1277"/>
  <unicode hex="003C"/>
  <outline>
    <contour>
      <point x="1066" y="149" type="line"/>
      <point x="1186" y="354" type="line"/>
      <point x="485" y="690" type="line"/>
      <point x="1186" y="1026" type="line"/>
      <point x="1066" y="1231" type="line"/>
      <point x="24" y="690" type="line"/>
    </contour>
  </outline>
</glyph>
<glyph name="equal" format="2">
  <advance width="1299"/>
  <unicode hex="003D"/>
  <outline>
    <contour>
      <point x="1089" y="761" type="line"/>
      <point x="1089" y="1000" type="line"/>
      <point x="212" y="1000" type="line"/>
      <point x="212" y="761" type="line"/>
    </contour>
    <contour>
      <point x="1089" y="375" type="line"/>
      <point x="1089" y="615" type="line"/>
      <point x="212" y="615" type="line"/>
      <point x="212" y="375" type="line"/>
    </contour>
  </outline>
</glyph>
<glyph name="greater" format="2">
  <advance width="1275"/>
  <unicode hex="003E"/>
  <outline>
    <contour>
      <point x="211" y="150" type="line" name=".av02"/>
      <point x="1247" y="690" type="line" name=".iv01"/>
      <point x="211" y="1230" type="line" name=".av01"/>
      <point x="94" y="1029" type="line"/>
      <point x="797" y="690" type="line" name=".iv02"/>
      <point x="94" y="351" type="line"/>
    </contour>
  </outline>
</glyph>
<glyph name="question" format="2">
  <advance width="1014"/>
  <unicode hex="003F"/>
  <outline>
    <contour>
      <point x="615" y="450" type="line"/>
      <point x="615" y="536" type="line" smooth="yes" name=".sh01"/>
      <point x="615" y="603"/>
      <point x="642" y="635"/>
      <point x="741" y="685" type="curve" smooth="yes"/>
      <point x="890" y="760"/>
      <point x="966" y="887"/>
      <point x="966" y="1064" type="curve" smooth="yes"/>
      <point x="966" y="1309"/>
      <point x="777" y="1468"/>
      <point x="488" y="1468" type="curve" smooth="yes"/>
      <point x="193" y="1468"/>
      <point x="31" y="1281"/>
      <point x="31" y="992" type="curve" name=".dh01"/>
      <point x="273" y="992" type="line" name=".dh02"/>
      <point x="273" y="1160"/>
      <point x="336" y="1238"/>
      <point x="497" y="1238" type="curve" smooth="yes" name=".dv03"/>
      <point x="618" y="1238"/>
      <point x="730" y="1193"/>
      <point x="730" y="1059" type="curve" smooth="yes"/>
      <point x="730" y="967"/>
      <point x="676" y="929"/>
      <point x="602" y="887" type="curve" smooth="yes"/>
      <point x="443" y="797"/>
      <point x="381" y="709"/>
      <point x="381" y="571" type="curve" smooth="yes" name=".ih01"/>
      <point x="381" y="450" type="line"/>
    </contour>
    <contour>
      <point x="649" y="0" type="line" name=".dv01"/>
      <point x="649" y="293" type="line" name=".dv02"/>
      <point x="353" y="293" type="line" name=".dh03"/>
      <point x="353" y="0" type="line"/>
    </contour>
  </outline>
</glyph>
<glyph name="at" format="2">
  <advance width="2047"/>
  <unicode hex="0040"/>
  <outline>
    <contour>
      <point x="86" y="534" type="curve" smooth="yes"/>
      <point x="86" y="443"/>
      <point x="98" y="357"/>
      <point x="121" y="278" type="curve" smooth="yes"/>
      <point x="167" y="118"/>
      <point x="251" y="-14"/>
      <point x="365" y="-117" type="curve" smooth="yes"/>
      <point x="422" y="-168"/>
      <point x="485" y="-212"/>
      <point x="554" y="-248" type="curve" smooth="yes"/>
      <point x="692" y="-319"/>
      <point x="850" y="-356"/>
      <point x="1015" y="-356" type="curve" smooth="yes"/>
      <point x="1134" y="-356"/>
      <point x="1228" y="-339"/>
      <point x="1336" y="-302" type="curve"/>
      <point x="1263" y="-100" type="line"/>
      <point x="1179" y="-128"/>
      <point x="1093" y="-140"/>
      <point x="1004" y="-140" type="curve" smooth="yes"/>
      <point x="815" y="-140"/>
      <point x="637" y="-71"/>
      <point x="508" y="49" type="curve" smooth="yes"/>
      <point x="379" y="168"/>
      <point x="297" y="338"/>
      <point x="297" y="538" type="curve" smooth="yes"/>
      <point x="297" y="749"/>
      <point x="375" y="930"/>
      <point x="507" y="1058" type="curve" smooth="yes"/>
      <point x="638" y="1186"/>
      <point x="822" y="1262"/>
      <point x="1033" y="1262" type="curve" smooth="yes"/>
      <point x="1250" y="1262"/>
      <point x="1432" y="1192"/>
      <point x="1558" y="1069" type="curve" smooth="yes"/>
      <point x="1684" y="945"/>
      <point x="1755" y="770"/>
      <point x="1755" y="558" type="curve" smooth="yes"/>
      <point x="1755" y="515"/>
      <point x="1751" y="469"/>
      <point x="1742" y="419" type="curve" smooth="yes"/>
      <point x="1733" y="369"/>
      <point x="1719" y="323"/>
      <point x="1698" y="280" type="curve" smooth="yes"/>
      <point x="1656" y="195"/>
      <point x="1586" y="131"/>
      <point x="1479" y="131" type="curve" smooth="yes"/>
      <point x="1442" y="131"/>
      <point x="1419" y="140"/>
      <point x="1407" y="159" type="curve" smooth="yes"/>
      <point x="1395" y="178"/>
      <point x="1392" y="204"/>
      <point x="1392" y="239" type="curve" smooth="yes"/>
      <point x="1392" y="294"/>
      <point x="1405" y="380"/>
      <point x="1422" y="472" type="curve" smooth="yes"/>
      <point x="1439" y="564"/>
      <point x="1461" y="662"/>
      <point x="1480" y="743" type="curve" smooth="yes"/>
      <point x="1489" y="782" type="line" smooth="yes"/>
      <point x="1498" y="822"/>
      <point x="1509" y="867"/>
      <point x="1520" y="912" type="curve" smooth="yes"/>
      <point x="1531" y="957"/>
      <point x="1540" y="1003"/>
      <point x="1547" y="1043" type="curve"/>
      <point x="1331" y="1043" type="line"/>
      <point x="1315" y="973" type="line"/>
      <point x="1255" y="1054"/>
      <point x="1168" y="1094"/>
      <point x="1052" y="1094" type="curve" smooth="yes"/>
      <point x="999" y="1094"/>
      <point x="949" y="1085"/>
      <point x="903" y="1066" type="curve" smooth="yes"/>
      <point x="811" y="1028"/>
      <point x="736" y="962"/>
      <point x="679" y="876" type="curve" smooth="yes"/>
      <point x="650" y="833"/>
      <point x="626" y="787"/>
      <point x="607" y="739" type="curve" smooth="yes"/>
      <point x="568" y="643"/>
      <point x="548" y="540"/>
      <point x="548" y="445" type="curve" smooth="yes"/>
      <point x="548" y="344"/>
      <point x="577" y="241"/>
      <point x="635" y="165" type="curve" smooth="yes"/>
      <point x="693" y="88"/>
      <point x="779" y="37"/>
      <point x="892" y="37" type="curve" smooth="yes"/>
      <point x="1007" y="37"/>
      <point x="1106" y="72"/>
      <point x="1191" y="144" type="curve"/>
      <point x="1207" y="68"/>
      <point x="1240" y="11"/>
      <point x="1289" y="-28" type="curve" smooth="yes"/>
      <point x="1337" y="-66"/>
      <point x="1403" y="-85"/>
      <point x="1483" y="-85" type="curve" smooth="yes"/>
      <point x="1538" y="-85"/>
      <point x="1589" y="-76"/>
      <point x="1634" y="-58" type="curve" smooth="yes"/>
      <point x="1724" y="-21"/>
      <point x="1795" y="43"/>
      <point x="1848" y="127" type="curve" smooth="yes"/>
      <point x="1874" y="169"/>
      <point x="1896" y="214"/>
      <point x="1913" y="261" type="curve" smooth="yes"/>
      <point x="1948" y="355"/>
      <point x="1964" y="458"/>
      <point x="1964" y="553" type="curve" smooth="yes"/>
      <point x="1964" y="636"/>
      <point x="1954" y="716"/>
      <point x="1934" y="793" type="curve" smooth="yes"/>
      <point x="1893" y="948"/>
      <point x="1816" y="1084"/>
      <point x="1707" y="1196" type="curve" smooth="yes"/>
      <point x="1652" y="1252"/>
      <point x="1590" y="1300"/>
      <point x="1521" y="1341" type="curve" smooth="yes"/>
      <point x="1382" y="1421"/>
      <point x="1216" y="1468"/>
      <point x="1031" y="1468" type="curve" smooth="yes"/>
      <point x="942" y="1468"/>
      <point x="858" y="1458"/>
      <point x="777" y="1437" type="curve" smooth="yes"/>
      <point x="615" y="1395"/>
      <point x="474" y="1317"/>
      <point x="359" y="1206" type="curve" smooth="yes"/>
      <point x="302" y="1151"/>
      <point x="253" y="1088"/>
      <point x="213" y="1019" type="curve" smooth="yes"/>
      <point x="132" y="880"/>
      <point x="86" y="715"/>
    </contour>
    <contour>
      <point x="914" y="251" type="curve" smooth="yes"/>
      <point x="803" y="251"/>
      <point x="751" y="314"/>
      <point x="751" y="445" type="curve" smooth="yes"/>
      <point x="751" y="545"/>
      <point x="781" y="653"/>
      <point x="837" y="737" type="curve" smooth="yes"/>
      <point x="893" y="821"/>
      <point x="977" y="880"/>
      <point x="1082" y="880" type="curve" smooth="yes"/>
      <point x="1197" y="880"/>
      <point x="1244" y="813"/>
      <point x="1244" y="689" type="curve" smooth="yes"/>
      <point x="1244" y="594"/>
      <point x="1216" y="486"/>
      <point x="1161" y="400" type="curve" smooth="yes"/>
      <point x="1105" y="314"/>
      <point x="1023" y="251"/>
    </contour>
  </outline>
</glyph>
<glyph name="A" format="2">
  <advance width="1388"/>
  <unicode hex="0041"/>
  <anchor x="696" y="1620" name="top"/>
  <anchor x="1390" y="0" name="ogonek"/>
  <anchor x="696" y="1550" name="center"/>
  <anchor x="696" y="-150" name="bottom"/>
  <outline>
    <contour>
      <point x="1390.59" y="0" type="line" name=".av01"/>
      <point x="802.816" y="1447.94" type="line" name=".av03"/>
      <point x="586.752" y="1447.94" type="line"/>
      <point x="-4.09598" y="0" type="line" name=".av02"/>
      <point x="312.32" y="0" type="line"/>
      <point x="425.984" y="314.368" type="line" name=".dv01"/>
      <point x="965.632" y="314.368" type="line"/>
      <point x="1077.25" y="0" type="line"/>
    </contour>
    <contour>
      <point x="866.304" y="559.104" type="line" name=".av04"/>
      <point x="524.288" y="559.104" type="line" name=".dv02"/>
      <point x="696.32" y="1020.93" type="line"/>
    </contour>
  </outline>
  <guideline angle="90" name="vertical" x="696" y="0"/>
</glyph>
<glyph name="B" format="2">
  <advance width="1315"/>
  <unicode hex="0042"/>
  <outline>
    <contour>
      <point x="177" y="0" type="line"/>
      <point x="778" y="0" type="line" smooth="yes" name=".dv01"/>
      <point x="1065" y="0"/>
      <point x="1244" y="168"/>
      <point x="1244" y="437" type="curve" smooth="yes" name=".sh01"/>
      <point x="1244" y="569"/>
      <point x="1123" y="763"/>
      <point x="994" y="784" type="curve" name=".iv01"/>
      <point x="993" y="766" type="line"/>
      <point x="1099" y="801"/>
      <point x="1172" y="937"/>
      <point x="1172" y="1047" type="curve" smooth="yes" name=".dh04"/>
      <point x="1172" y="1316"/>
      <point x="955" y="1448"/>
      <point x="710" y="1448" type="curve" smooth="yes" name=".dv04"/>
      <point x="177" y="1448" type="line" name=".dh01"/>
    </contour>
    <contour>
      <point x="467" y="881" type="line" name=".dv06"/>
      <point x="467" y="1186" type="line" name=".dh02"/>
      <point x="715" y="1186" type="line" smooth="yes" name=".dv03"/>
      <point x="807" y="1186"/>
      <point x="912" y="1141"/>
      <point x="912" y="1034" type="curve" smooth="yes" name=".dh03"/>
      <point x="912" y="918"/>
      <point x="842" y="881"/>
      <point x="742" y="881" type="curve" smooth="yes"/>
    </contour>
    <contour>
      <point x="467" y="279" type="line" name=".sh02"/>
      <point x="467" y="632" type="line" name=".dv05"/>
      <point x="759" y="632" type="line" smooth="yes"/>
      <point x="852" y="632"/>
      <point x="958" y="568"/>
      <point x="958" y="465" type="curve" smooth="yes" name=".ih01"/>
      <point x="958" y="334"/>
      <point x="885" y="279"/>
      <point x="773" y="279" type="curve" smooth="yes" name=".dv02"/>
    </contour>
  </outline>
</glyph>
<glyph name="C" format="2">
  <advance width="1493"/>
  <unicode hex="0043"/>
  <outline>
    <contour>
      <point x="783" y="-20" type="curve" smooth="yes"/>
      <point x="934" y="-20"/>
      <point x="1067" y="14"/>
      <point x="1176" y="82" type="curve" smooth="yes"/>
      <point x="1285" y="150"/>
      <point x="1371" y="252"/>
      <point x="1427" y="385" type="curve"/>
      <point x="1161" y="493" type="line"/>
      <point x="1126" y="410"/>
      <point x="1075" y="346"/>
      <point x="1011" y="303" type="curve" smooth="yes"/>
      <point x="947" y="259"/>
      <point x="870" y="236"/>
      <point x="783" y="236" type="curve" smooth="yes"/>
      <point x="636" y="236"/>
      <point x="536" y="288"/>
      <point x="472" y="376" type="curve" smooth="yes"/>
      <point x="408" y="463"/>
      <point x="381" y="585"/>
      <point x="381" y="724" type="curve" smooth="yes"/>
      <point x="381" y="857"/>
      <point x="414" y="979"/>
      <point x="481" y="1068" type="curve" smooth="yes"/>
      <point x="548" y="1156"/>
      <point x="648" y="1212"/>
      <point x="783" y="1212" type="curve" smooth="yes"/>
      <point x="875" y="1212"/>
      <point x="958" y="1186"/>
      <point x="1022" y="1142" type="curve" smooth="yes"/>
      <point x="1086" y="1098"/>
      <point x="1133" y="1035"/>
      <point x="1156" y="959" type="curve"/>
      <point x="1429" y="1066" type="line"/>
      <point x="1369" y="1205"/>
      <point x="1282" y="1306"/>
      <point x="1173" y="1372" type="curve" smooth="yes"/>
      <point x="1064" y="1438"/>
      <point x="932" y="1468"/>
      <point x="783" y="1468" type="curve" smooth="yes"/>
      <point x="546" y="1468"/>
      <point x="368" y="1383"/>
      <point x="249" y="1248" type="curve" smooth="yes"/>
      <point x="129" y="1112"/>
      <point x="70" y="927"/>
      <point x="70" y="724" type="curve" smooth="yes"/>
      <point x="70" y="516"/>
      <point x="139" y="331"/>
      <point x="263" y="197" type="curve" smooth="yes"/>
      <point x="387" y="63"/>
      <point x="566" y="-20"/>
    </contour>
  </outline>
</glyph>
<glyph name="D" format="2">
  <advance width="1444"/>
  <unicode hex="0044"/>
  <outline>
    <contour>
      <point x="175" y="0" type="line"/>
      <point x="612" y="0" type="line" smooth="yes"/>
      <point x="1114" y="0"/>
      <point x="1375" y="277"/>
      <point x="1375" y="713" type="curve" smooth="yes"/>
      <point x="1375" y="1206"/>
      <point x="1092" y="1448"/>
      <point x="614" y="1448" type="curve" smooth="yes"/>
      <point x="175" y="1448" type="line"/>
    </contour>
    <contour>
      <point x="472" y="273" type="line"/>
      <point x="472" y="1173" type="line"/>
      <point x="616" y="1173" type="line" smooth="yes"/>
      <point x="948" y="1173"/>
      <point x="1077" y="1055"/>
      <point x="1077" y="724" type="curve" smooth="yes"/>
      <point x="1077" y="389"/>
      <point x="908" y="273"/>
      <point x="587" y="273" type="curve" smooth="yes"/>
    </contour>
  </outline>
</glyph>
<glyph name="E" format="2">
  <advance width="1278"/>
  <unicode hex="0045"/>
  <outline>
    <contour>
      <point x="1147" y="0" type="line"/>
      <point x="1147" y="284" type="line"/>
      <point x="472" y="284" type="line"/>
      <point x="472" y="585" type="line"/>
      <point x="1120" y="585" type="line"/>
      <point x="1120" y="863" type="line"/>
      <point x="472" y="863" type="line"/>
      <point x="472" y="1172" type="line"/>
      <point x="1147" y="1172" type="line"/>
      <point x="1147" y="1448" type="line"/>
      <point x="175" y="1448" type="line"/>
      <point x="175" y="0" type="line"/>
    </contour>
  </outline>
</glyph>
<glyph name="F" format="2">
  <advance width="1277"/>
  <unicode hex="0046"/>
  <anchor x="682" y="1617.92" name="top"/>
  <outline>
    <contour>
      <point x="467" y="0" type="line" name=".av01"/>
      <point x="467" y="589" type="line" name=".dv03"/>
      <point x="1143" y="589" type="line"/>
      <point x="1143" y="859" type="line"/>
      <point x="467" y="859" type="line" name=".dv04"/>
      <point x="467" y="1179" type="line" name=".dv01"/>
      <point x="1233" y="1179" type="line"/>
      <point x="1233" y="1448" type="line"/>
      <point x="177" y="1448" type="line" name=".dv02"/>
      <point x="177" y="0" type="line"/>
    </contour>
  </outline>
  <guideline angle="90" name="vertical" x="682" y="0"/>
</glyph>
<glyph name="G" format="2">
  <advance width="1579"/>
  <unicode hex="0047"/>
  <anchor x="785" y="1617.92" name="top"/>
  <outline>
    <contour>
      <point x="786.432" y="-20.48" type="curve" smooth="yes" name=".dv01"/>
      <point x="961.536" y="-20.48"/>
      <point x="1113.09" y="50.176"/>
      <point x="1200.13" y="185.344" type="curve" name=".iv01"/>
      <point x="1229.82" y="0" type="line"/>
      <point x="1457.15" y="0" type="line"/>
      <point x="1457.15" y="797.696" type="line"/>
      <point x="846.848" y="797.696" type="line" name=".dv06"/>
      <point x="846.848" y="562.176" type="line" name=".dv05"/>
      <point x="1174.53" y="562.176" type="line"/>
      <point x="1138.69" y="368.64"/>
      <point x="977.92" y="236.544"/>
      <point x="786.432" y="236.544" type="curve" smooth="yes" name=".dv02"/>
      <point x="532.236" y="236.544"/>
      <point x="358.4" y="415.854"/>
      <point x="358.4" y="724.208" type="curve" smooth="yes" name=".dh02"/>
      <point x="358.4" y="1032.02"/>
      <point x="532.027" y="1211.58"/>
      <point x="784.336" y="1211.58" type="curve" smooth="yes" name=".dv03"/>
      <point x="979.92" y="1211.58"/>
      <point x="1116.16" y="1130.5"/>
      <point x="1172.48" y="939.008" type="curve"/>
      <point x="1428.48" y="1043.5" type="line"/>
      <point x="1312.99" y="1313.67"/>
      <point x="1078.07" y="1468.46"/>
      <point x="784.384" y="1468.46" type="curve" smooth="yes" name=".dv04"/>
      <point x="361.966" y="1468.46"/>
      <point x="70.656" y="1164.99"/>
      <point x="70.656" y="723.968" type="curve" smooth="yes" name=".dh01"/>
      <point x="70.656" y="283.489"/>
      <point x="362.454" y="-20.48"/>
    </contour>
  </outline>
  <guideline angle="90" name="vertical" x="785" y="0"/>
</glyph>
<glyph name="H" format="2">
  <advance width="1538"/>
  <unicode hex="0048"/>
  <anchor x="769" y="1617.92" name="top"/>
  <outline>
    <contour>
      <point x="1361" y="0" type="line" name=".av03"/>
      <point x="1361" y="1448" type="line" name=".av01"/>
      <point x="1071" y="1448" type="line" name=".ah01"/>
      <point x="1071" y="858" type="line"/>
      <point x="467" y="858" type="line" name=".dv02"/>
      <point x="467" y="1448" type="line" name=".av02"/>
      <point x="177" y="1448" type="line" name=".sh01"/>
      <point x="177" y="0" type="line" name=".av04"/>
      <point x="467" y="0" type="line" name=".sh02"/>
      <point x="467" y="588" type="line" name=".dv01"/>
      <point x="1071" y="588" type="line" name=".sh03"/>
      <point x="1071" y="0" type="line"/>
    </contour>
  </outline>
  <guideline angle="90" name="vertical" x="769" y="0"/>
</glyph>
<glyph name="I" format="2">
  <advance width="647"/>
  <unicode hex="0049"/>
  <anchor x="324" y="1618" name="top"/>
  <anchor x="472" y="0" name="ogonek"/>
  <outline>
    <contour>
      <point x="472" y="0" type="line"/>
      <point x="472" y="1448" type="line"/>
      <point x="175" y="1448" type="line"/>
      <point x="175" y="0" type="line"/>
    </contour>
  </outline>
</glyph>
<glyph name="J" format="2">
  <advance width="1172"/>
  <unicode hex="004A"/>
  <anchor x="881" y="1617.92" name="top"/>
  <outline>
    <contour>
      <point x="18" y="465" type="line" name=".sh04"/>
      <point x="36" y="194"/>
      <point x="245" y="-20"/>
      <point x="523" y="-20" type="curve" smooth="yes" name=".dv00"/>
      <point x="873" y="-20"/>
      <point x="1026" y="207"/>
      <point x="1026" y="524" type="curve" smooth="yes"/>
      <point x="1026" y="1448" type="line" name=".sh00"/>
      <point x="736" y="1448" type="line" name=".dv04"/>
      <point x="736" y="633" type="line" smooth="yes"/>
      <point x="736" y="364"/>
      <point x="729" y="251"/>
      <point x="523" y="251" type="curve" smooth="yes" name=".dv05"/>
      <point x="383" y="251"/>
      <point x="313" y="355"/>
      <point x="305" y="497" type="curve" name=".sh03"/>
    </contour>
  </outline>
  <guideline angle="90" name="vertical" x="881" y="0"/>
</glyph>
<glyph name="K" format="2">
  <advance width="1542"/>
  <unicode hex="004B"/>
  <outline>
    <contour>
      <point x="1545" y="0" type="line"/>
      <point x="951" y="845" type="line"/>
      <point x="1543" y="1448" type="line"/>
      <point x="1140" y="1448" type="line"/>
      <point x="472" y="730" type="line"/>
      <point x="472" y="1448" type="line"/>
      <point x="175" y="1448" type="line"/>
      <point x="175" y="0" type="line"/>
      <point x="472" y="0" type="line"/>
      <point x="472" y="367" type="line"/>
      <point x="743" y="646" type="line"/>
      <point x="1172" y="0" type="line"/>
    </contour>
  </outline>
</glyph>
<glyph name="L" format="2">
  <advance width="1099"/>
  <unicode hex="004C"/>
  <outline>
    <contour>
      <point x="1090" y="0" type="line"/>
      <point x="1090" y="284" type="line"/>
      <point x="472" y="284" type="line"/>
      <point x="472" y="1448" type="line"/>
      <point x="175" y="1448" type="line"/>
      <point x="175" y="0" type="line"/>
    </contour>
  </outline>
</glyph>
<glyph name="M" format="2">
  <advance width="1852"/>
  <unicode hex="004D"/>
  <outline>
    <contour>
      <point x="1675" y="0" type="line" name=".av03"/>
      <point x="1675" y="1448" type="line" name=".av01"/>
      <point x="1298" y="1448" type="line"/>
      <point x="928" y="459" type="line" name=".iv01"/>
      <point x="554" y="1448" type="line" name=".av02"/>
      <point x="177" y="1448" type="line" name=".sh01"/>
      <point x="177" y="0" type="line" name=".av04"/>
      <point x="454" y="0" type="line"/>
      <point x="454" y="1013" type="line" name=".iv02"/>
      <point x="788" y="126" type="line"/>
      <point x="1064" y="126" type="line"/>
      <point x="1398" y="1013" type="line" name=".iv03"/>
      <point x="1398" y="0" type="line"/>
    </contour>
  </outline>
</glyph>
<glyph name="N" format="2">
  <advance width="1500"/>
  <unicode hex="004E"/>
  <outline>
    <contour>
      <point x="1323" y="0" type="line" name=".av03"/>
      <point x="1323" y="1448" type="line" name=".av01"/>
      <point x="1046" y="1448" type="line" name=".ah01"/>
      <point x="1046" y="485" type="line" name=".iv01"/>
      <point x="1063" y="490" type="line"/>
      <point x="442" y="1448" type="line" name=".av02"/>
      <point x="177" y="1448" type="line" name=".sh01"/>
      <point x="177" y="0" type="line" name=".av04"/>
      <point x="454" y="0" type="line"/>
      <point x="454" y="965" type="line" name=".iv02"/>
      <point x="437" y="960" type="line"/>
      <point x="1057" y="0" type="line" name=".sh02"/>
    </contour>
  </outline>
</glyph>
<glyph name="O" format="2">
  <advance width="1570"/>
  <unicode hex="004F"/>
  <anchor x="785" y="1617.92" name="top"/>
  <anchor x="1546" y="1448" name="horn"/>
  <anchor x="956.392" y="0" name="ogonek"/>
  <outline>
    <contour>
      <point x="785.384" y="-20.48" type="curve" smooth="yes" name=".dv01"/>
      <point x="1208.66" y="-20.48"/>
      <point x="1499.11" y="282.473"/>
      <point x="1499.11" y="723.968" type="curve" smooth="yes"/>
      <point x="1499.11" y="1165.48"/>
      <point x="1208.68" y="1468.42"/>
      <point x="785.385" y="1468.42" type="curve" smooth="yes"/>
      <point x="362.186" y="1468.42"/>
      <point x="70.656" y="1165.38"/>
      <point x="70.656" y="723.968" type="curve" smooth="yes"/>
      <point x="70.656" y="282.574"/>
      <point x="362.203" y="-20.48"/>
    </contour>
    <contour>
      <point x="785.384" y="235.52" type="curve" smooth="yes" name=".dv02"/>
      <point x="531.45" y="235.52"/>
      <point x="381.952" y="415.758"/>
      <point x="381.952" y="723.968" type="curve" smooth="yes" name=".sh03"/>
      <point x="381.952" y="1032.11"/>
      <point x="531.504" y="1212.42"/>
      <point x="785.384" y="1212.42" type="curve" smooth="yes"/>
      <point x="1039.66" y="1212.42"/>
      <point x="1187.82" y="1032.59"/>
      <point x="1187.82" y="723.968" type="curve" smooth="yes" name=".ah01"/>
      <point x="1187.82" y="415.278"/>
      <point x="1039.71" y="235.52"/>
    </contour>
  </outline>
  <guideline angle="0" x="0" y="723.968"/>
  <guideline angle="90" name="vertical" x="785" y="0"/>
</glyph>
<glyph name="P" format="2">
  <advance width="1201"/>
  <unicode hex="0050"/>
  <outline>
    <contour>
      <point x="177" y="0" type="line"/>
      <point x="465" y="0" type="line" name=".av01"/>
      <point x="465" y="584" type="line" name=".dv03"/>
      <point x="656" y="584" type="line" smooth="yes"/>
      <point x="910" y="584"/>
      <point x="1171" y="732"/>
      <point x="1171" y="1017" type="curve" smooth="yes"/>
      <point x="1171" y="1305"/>
      <point x="912" y="1448"/>
      <point x="656" y="1448" type="curve" smooth="yes" name=".dv02"/>
      <point x="177" y="1448" type="line" name=".sh01"/>
    </contour>
    <contour>
      <point x="465" y="857" type="line" name=".dv04"/>
      <point x="465" y="1175" type="line" name=".sh02"/>
      <point x="645" y="1175" type="line" smooth="yes" name=".dv01"/>
      <point x="813" y="1175"/>
      <point x="883" y="1120"/>
      <point x="883" y="1010" type="curve" smooth="yes" name=".ah01"/>
      <point x="883" y="900"/>
      <point x="806" y="857"/>
      <point x="645" y="857" type="curve" smooth="yes"/>
    </contour>
  </outline>
</glyph>
<glyph name="Q" format="2">
  <advance width="1620"/>
  <unicode hex="0051"/>
  <outline>
    <component base="O" xOffset="1"/>
    <contour>
      <point x="987" y="263" type="line"/>
      <point x="1170" y="435" type="line" name=".ih01"/>
      <point x="1101" y="500"/>
      <point x="1031" y="562"/>
      <point x="958" y="626" type="curve"/>
      <point x="768" y="455" type="line"/>
    </contour>
    <contour>
      <point x="1148" y="102" type="line"/>
      <point x="1381" y="-129" type="line" name=".av01"/>
      <point x="1570" y="47" type="line"/>
      <point x="1338" y="264" type="line"/>
    </contour>
  </outline>
</glyph>
<glyph name="R" format="2">
  <advance width="1314"/>
  <unicode hex="0052"/>
  <outline>
    <contour>
      <point x="177.152" y="0" type="line" name=".av02"/>
      <point x="466.944" y="0" type="line"/>
      <point x="466.944" y="609.28" type="line" name=".dv03"/>
      <point x="621.568" y="609.28" type="line"/>
      <point x="975.872" y="0" type="line"/>
      <point x="1307.65" y="0" type="line" name=".av01"/>
      <point x="902.144" y="635.904" type="line" name=".sh01"/>
      <point x="1061.89" y="698.368"/>
      <point x="1176.58" y="838.656"/>
      <point x="1176.58" y="1013.76" type="curve" smooth="yes" name=".sh02"/>
      <point x="1176.58" y="1287.17"/>
      <point x="926.72" y="1447.94"/>
      <point x="671.744" y="1447.94" type="curve" smooth="yes" name=".dv02"/>
      <point x="177.152" y="1447.94" type="line"/>
    </contour>
    <contour>
      <point x="468.992" y="840.704" type="line" name=".dv04"/>
      <point x="468.992" y="1187.84" type="line"/>
      <point x="663.552" y="1187.84" type="line" smooth="yes" name=".dv01"/>
      <point x="802.816" y="1187.84"/>
      <point x="888.832" y="1116.16"/>
      <point x="888.832" y="1008.64" type="curve" smooth="yes" name=".ah01"/>
      <point x="888.832" y="907.264"/>
      <point x="811.008" y="840.704"/>
      <point x="684.032" y="840.704" type="curve" smooth="yes"/>
    </contour>
  </outline>
</glyph>
<glyph name="S" format="2">
  <advance width="1172"/>
  <unicode hex="0053"/>
  <outline>
    <contour>
      <point x="34" y="421" type="line"/>
      <point x="77" y="129"/>
      <point x="343" y="-16"/>
      <point x="615" y="-16" type="curve" smooth="yes" name=".dv01"/>
      <point x="872" y="-16"/>
      <point x="1123" y="143"/>
      <point x="1123" y="422" type="curve" smooth="yes" name=".sh01"/>
      <point x="1123" y="692"/>
      <point x="949" y="768"/>
      <point x="730" y="847" type="curve" smooth="yes"/>
      <point x="474" y="940"/>
      <point x="422" y="978"/>
      <point x="422" y="1072" type="curve" smooth="yes" name=".sh04"/>
      <point x="422" y="1162"/>
      <point x="508" y="1208"/>
      <point x="589" y="1208" type="curve" smooth="yes" name=".dv03"/>
      <point x="683" y="1208"/>
      <point x="759" y="1151"/>
      <point x="807" y="1058" type="curve"/>
      <point x="1053" y="1205" type="line"/>
      <point x="959" y="1378"/>
      <point x="793" y="1468"/>
      <point x="600" y="1468" type="curve" smooth="yes" name=".dv04"/>
      <point x="341" y="1468"/>
      <point x="130" y="1314"/>
      <point x="130" y="1067" type="curve" smooth="yes" name=".sh03"/>
      <point x="130" y="849"/>
      <point x="312" y="725"/>
      <point x="510" y="651" type="curve" smooth="yes"/>
      <point x="788" y="548"/>
      <point x="831" y="510"/>
      <point x="831" y="401" type="curve" smooth="yes" name=".ah01"/>
      <point x="831" y="286"/>
      <point x="706" y="241"/>
      <point x="610" y="241" type="curve" smooth="yes" name=".dv02"/>
      <point x="441" y="241"/>
      <point x="345" y="336"/>
      <point x="325" y="493" type="curve"/>
    </contour>
  </outline>
</glyph>
<glyph name="T" format="2">
  <advance width="1191"/>
  <unicode hex="0054"/>
  <anchor x="581" y="0" name="cedilla"/>
  <outline>
    <contour>
      <point x="451" y="0" type="line"/>
      <point x="740" y="0" type="line" name=".av01"/>
      <point x="740" y="1185" type="line" name=".dh02"/>
      <point x="1182" y="1185" type="line" name=".dv01"/>
      <point x="1182" y="1448" type="line" name=".dv02"/>
      <point x="7" y="1448" type="line"/>
      <point x="7" y="1185" type="line" name=".sv01"/>
      <point x="451" y="1185" type="line" name=".dh01"/>
    </contour>
  </outline>
</glyph>
<glyph name="U" format="2">
  <advance width="1421"/>
  <unicode hex="0055"/>
  <anchor x="711" y="1617.92" name="top"/>
  <anchor x="1606" y="1448" name="horn"/>
  <outline>
    <contour>
      <point x="711" y="-20" type="curve" smooth="yes" name=".dv01"/>
      <point x="1091" y="-20"/>
      <point x="1280" y="182"/>
      <point x="1280" y="585" type="curve" smooth="yes"/>
      <point x="1280" y="1448" type="line" name=".av01"/>
      <point x="989" y="1448" type="line" name=".ah01"/>
      <point x="989" y="599" type="line" smooth="yes"/>
      <point x="989" y="368"/>
      <point x="937" y="261"/>
      <point x="711" y="261" type="curve" smooth="yes" name=".dv02"/>
      <point x="484" y="261"/>
      <point x="432" y="379"/>
      <point x="432" y="587" type="curve" smooth="yes"/>
      <point x="432" y="1448" type="line" name=".av02"/>
      <point x="142" y="1448" type="line" name=".sh01"/>
      <point x="142" y="574" type="line" smooth="yes"/>
      <point x="142" y="194"/>
      <point x="322" y="-20"/>
    </contour>
  </outline>
  <guideline angle="90" name="vertical" x="711" y="0"/>
</glyph>
<glyph name="V" format="2">
  <advance width="1381"/>
  <unicode hex="0056"/>
  <outline>
    <contour>
      <point x="797.696" y="0" type="line" name=".av03"/>
      <point x="1385.47" y="1447.91" type="line" name=".av01"/>
      <point x="1063.94" y="1447.91" type="line"/>
      <point x="693.248" y="486.4" type="line" name=".iv01"/>
      <point x="320.512" y="1447.91" type="line" name=".av02"/>
      <point x="-4.096" y="1447.91" type="line"/>
      <point x="585.728" y="0" type="line"/>
    </contour>
  </outline>
</glyph>
<glyph name="W" format="2">
  <advance width="2060"/>
  <unicode hex="0057"/>
  <anchor x="1028" y="1617.92" name="top"/>
  <outline>
    <contour>
      <point x="1607.68" y="0" type="line" name=".av03"/>
      <point x="2050.05" y="1447.94" type="line" name=".av01"/>
      <point x="1747.97" y="1447.94" type="line"/>
      <point x="1449.98" y="439.296" type="line" name=".iv01"/>
      <point x="1141.76" y="1447.94" type="line"/>
      <point x="918.528" y="1447.94" type="line"/>
      <point x="610.304" y="439.296" type="line" name=".iv02"/>
      <point x="312.32" y="1447.94" type="line" name=".av02"/>
      <point x="10.2401" y="1447.94" type="line"/>
      <point x="452.608" y="0" type="line" name=".av04"/>
      <point x="726.016" y="0" type="line"/>
      <point x="1028.1" y="990.208" type="line" name=".iv03"/>
      <point x="1334.27" y="0" type="line"/>
    </contour>
  </outline>
  <guideline angle="90" name="vertical" x="1028" y="0"/>
</glyph>
<glyph name="X" format="2">
  <advance width="1402"/>
  <unicode hex="0058"/>
  <outline>
    <contour>
      <point x="1392.64" y="0" type="line" name=".av03"/>
      <point x="905.216" y="723.968" type="line"/>
      <point x="1390.59" y="1447.91" type="line" name=".av01"/>
      <point x="1042.43" y="1447.91" type="line"/>
      <point x="701.44" y="902.144" type="line" name=".iv01"/>
      <point x="359.424" y="1447.91" type="line" name=".av02"/>
      <point x="12.288" y="1447.91" type="line"/>
      <point x="496.64" y="723.968" type="line"/>
      <point x="10.24" y="0" type="line" name=".av04"/>
      <point x="357.376" y="0" type="line"/>
      <point x="699.392" y="537.6" type="line" name=".iv02"/>
      <point x="1044.48" y="0" type="line"/>
    </contour>
  </outline>
</glyph>
<glyph name="Y" format="2">
  <advance width="1352"/>
  <unicode hex="0059"/>
  <outline>
    <contour>
      <point x="833" y="0" type="line"/>
      <point x="833" y="563" type="line"/>
      <point x="1376" y="1448" type="line"/>
      <point x="1010" y="1448" type="line"/>
      <point x="673" y="847" type="line"/>
      <point x="340" y="1448" type="line"/>
      <point x="-23" y="1448" type="line"/>
      <point x="519" y="563" type="line"/>
      <point x="519" y="0" type="line"/>
    </contour>
  </outline>
</glyph>
<glyph name="Z" format="2">
  <advance width="1302"/>
  <unicode hex="005A"/>
  <outline>
    <contour>
      <point x="1236" y="0" type="line"/>
      <point x="1236" y="268" type="line"/>
      <point x="475" y="268" type="line"/>
      <point x="1236" y="1238" type="line"/>
      <point x="1236" y="1448" type="line"/>
      <point x="95" y="1448" type="line"/>
      <point x="95" y="1172" type="line"/>
      <point x="814" y="1172" type="line"/>
      <point x="49" y="201" type="line"/>
      <point x="49" y="0" type="line"/>
    </contour>
  </outline>
</glyph>
<glyph name="bracketleft" format="2">
  <advance width="658"/>
  <unicode hex="005B"/>
  <outline>
    <contour>
      <point x="636" y="-190" type="line"/>
      <point x="636" y="0" type="line"/>
      <point x="395" y="0" type="line"/>
      <point x="395" y="1444" type="line"/>
      <point x="636" y="1444" type="line"/>
      <point x="636" y="1632" type="line"/>
      <point x="171" y="1632" type="line"/>
      <point x="171" y="-190" type="line"/>
    </contour>
  </outline>
</glyph>
<glyph name="backslash" format="2">
  <advance width="958"/>
  <unicode hex="005C"/>
  <outline>
    <contour>
      <point x="1012" y="-440" type="line"/>
      <point x="203" y="1552" type="line"/>
      <point x="-53" y="1552" type="line"/>
      <point x="754" y="-440" type="line"/>
    </contour>
  </outline>
</glyph>
<glyph name="bracketright" format="2">
  <advance width="658"/>
  <unicode hex="005D"/>
  <outline>
    <contour>
      <point x="487" y="-190" type="line" name=".dv01"/>
      <point x="487" y="1632" type="line" name=".dh01"/>
      <point x="23" y="1632" type="line" name=".dv04"/>
      <point x="23" y="1444" type="line" name=".dv03"/>
      <point x="263" y="1444" type="line" name=".sh01"/>
      <point x="263" y="0" type="line" name=".dv02"/>
      <point x="23" y="0" type="line" name=".sh02"/>
      <point x="23" y="-190" type="line"/>
    </contour>
  </outline>
</glyph>
<glyph name="asciicircum" format="2">
  <advance width="1007"/>
  <unicode hex="005E"/>
  <outline>
    <contour>
      <point x="961" y="813" type="line"/>
      <point x="502" y="1554" type="line"/>
      <point x="45" y="813" type="line"/>
      <point x="319" y="813" type="line"/>
      <point x="502" y="1111" type="line"/>
      <point x="686" y="813" type="line"/>
    </contour>
  </outline>
</glyph>
<glyph name="underscore" format="2">
  <advance width="1280"/>
  <unicode hex="005F"/>
  <outline>
    <contour>
      <point x="1087.49" y="-210.944" type="line" name=".dv01"/>
      <point x="1087.49" y="0" type="line" name=".dv02"/>
      <point x="194.56" y="0" type="line"/>
      <point x="194.56" y="-210.944" type="line"/>
    </contour>
  </outline>
</glyph>
<glyph name="grave" format="2">
  <advance width="553"/>
  <unicode hex="0060"/>
  <outline>
    <contour>
      <point x="532" y="1192" type="line" name=".av07"/>
      <point x="298" y="1508" type="line" name=".av08"/>
      <point x="10" y="1508" type="line"/>
      <point x="342" y="1192" type="line"/>
    </contour>
  </outline>
</glyph>
<glyph name="a" format="2">
  <advance width="1098"/>
  <unicode hex="0061"/>
  <outline>
    <contour>
      <point x="423" y="-20" type="qcurve" smooth="yes"/>
      <point x="474" y="-20"/>
      <point x="562" y="-5"/>
      <point x="639" y="30"/>
      <point x="708" y="88"/>
      <point x="739" y="130" type="qcurve"/>
      <point x="760" y="0" type="line"/>
      <point x="989" y="0" type="line"/>
      <point x="989" y="618" type="line" smooth="yes"/>
      <point x="989" y="730"/>
      <point x="925" y="903"/>
      <point x="807" y="1022"/>
      <point x="637" y="1084"/>
      <point x="531" y="1084" type="qcurve" smooth="yes"/>
      <point x="385" y="1084"/>
      <point x="169" y="967"/>
      <point x="90" y="857" type="qcurve"/>
      <point x="306" y="702" type="line"/>
      <point x="342" y="766"/>
      <point x="456" y="840"/>
      <point x="534" y="840" type="qcurve" smooth="yes"/>
      <point x="578" y="840"/>
      <point x="647" y="814"/>
      <point x="695" y="760"/>
      <point x="720" y="676"/>
      <point x="720" y="618" type="qcurve"/>
      <point x="443" y="618" type="line" smooth="yes"/>
      <point x="369" y="618"/>
      <point x="222" y="591"/>
      <point x="106" y="522"/>
      <point x="34" y="405"/>
      <point x="34" y="316" type="qcurve" smooth="yes"/>
      <point x="34" y="235"/>
      <point x="100" y="110"/>
      <point x="210" y="25"/>
      <point x="350" y="-20"/>
    </contour>
    <contour>
      <point x="475" y="216" type="qcurve" smooth="yes"/>
      <point x="441" y="216"/>
      <point x="384" y="231"/>
      <point x="344" y="257"/>
      <point x="321" y="293"/>
      <point x="321" y="314" type="qcurve" smooth="yes"/>
      <point x="321" y="345"/>
      <point x="355" y="385"/>
      <point x="405" y="409"/>
      <point x="463" y="418"/>
      <point x="488" y="418" type="qcurve" smooth="yes"/>
      <point x="720" y="418" type="line"/>
      <point x="720" y="373"/>
      <point x="673" y="299"/>
      <point x="601" y="245"/>
      <point x="515" y="216"/>
    </contour>
  </outline>
</glyph>
<glyph name="b" format="2">
  <advance width="1220"/>
  <unicode hex="0062"/>
  <outline>
    <contour>
      <point x="732.16" y="-20.48" type="line" smooth="yes"/>
      <point x="795.648" y="-20.48"/>
      <point x="852.992" y="-7.168"/>
      <point x="905.216" y="19.456" type="curve" smooth="yes"/>
      <point x="1015.81" y="76.8"/>
      <point x="1094.66" y="178.176"/>
      <point x="1135.62" y="309.248" type="curve" smooth="yes"/>
      <point x="1155.07" y="370.688"/>
      <point x="1164.29" y="435.2"/>
      <point x="1164.29" y="502.784" type="curve" smooth="yes" name=".dh04"/>
      <point x="1164.29" y="521.216" type="line" smooth="yes"/>
      <point x="1164.29" y="588.8"/>
      <point x="1155.07" y="653.312"/>
      <point x="1135.62" y="714.752" type="curve" smooth="yes"/>
      <point x="1075.2" y="906.24"/>
      <point x="923.648" y="1043.46"/>
      <point x="719.872" y="1043.46" type="curve" name=".dv04"/>
      <point x="592.896" y="1042.43"/>
      <point x="497.664" y="1005.57"/>
      <point x="434.176" y="931.84" type="curve" name=".iv01"/>
      <point x="434.176" y="1443.84" type="line" name=".av01"/>
      <point x="143.36" y="1443.84" type="line"/>
      <point x="143.36" y="0" type="line" name=".dh01"/>
      <point x="434.176" y="0" type="line" name=".sh01"/>
      <point x="434.176" y="91.136" type="line" name=".iv02"/>
      <point x="502.784" y="14.336"/>
      <point x="610.304" y="-20.48"/>
      <point x="717.824" y="-20.48" type="curve" smooth="yes" name=".dv01"/>
    </contour>
    <contour>
      <point x="648.192" y="239.616" type="curve" smooth="yes" name=".dv02"/>
      <point x="476.16" y="239.616"/>
      <point x="408.576" y="362.496"/>
      <point x="408.576" y="512" type="curve" smooth="yes" name=".dh02"/>
      <point x="408.576" y="606.208"/>
      <point x="431.104" y="675.84"/>
      <point x="475.136" y="720.896" type="curve" smooth="yes"/>
      <point x="519.168" y="765.952"/>
      <point x="577.536" y="788.48"/>
      <point x="648.192" y="788.48" type="curve" smooth="yes" name=".dv03"/>
      <point x="765.952" y="788.48"/>
      <point x="831.488" y="729.088"/>
      <point x="860.16" y="644.096" type="curve" smooth="yes"/>
      <point x="874.496" y="602.112"/>
      <point x="881.664" y="558.08"/>
      <point x="881.664" y="512" type="curve" smooth="yes" name=".dh03"/>
      <point x="881.664" y="315.392"/>
      <point x="781.312" y="239.616"/>
    </contour>
  </outline>
</glyph>
<glyph name="c" format="2">
  <advance width="1037"/>
  <unicode hex="0063"/>
  <outline>
    <contour>
      <point x="550" y="-20" type="qcurve" smooth="yes"/>
      <point x="629" y="-20"/>
      <point x="770" y="23"/>
      <point x="887" y="104"/>
      <point x="976" y="220"/>
      <point x="1002" y="292" type="qcurve"/>
      <point x="746" y="387" type="line"/>
      <point x="736" y="354"/>
      <point x="701" y="302"/>
      <point x="653" y="266"/>
      <point x="592" y="247"/>
      <point x="557" y="247" type="qcurve" smooth="yes"/>
      <point x="505" y="247"/>
      <point x="422" y="286"/>
      <point x="363" y="360"/>
      <point x="332" y="464"/>
      <point x="332" y="530" type="qcurve" smooth="yes"/>
      <point x="332" y="595"/>
      <point x="364" y="700"/>
      <point x="423" y="775"/>
      <point x="506" y="816"/>
      <point x="557" y="816" type="qcurve" smooth="yes"/>
      <point x="593" y="816"/>
      <point x="654" y="798"/>
      <point x="702" y="762"/>
      <point x="737" y="709"/>
      <point x="746" y="675" type="qcurve"/>
      <point x="1013" y="777" type="line"/>
      <point x="981" y="850"/>
      <point x="888" y="964"/>
      <point x="771" y="1043"/>
      <point x="634" y="1084"/>
      <point x="557" y="1084" type="qcurve" smooth="yes"/>
      <point x="442" y="1084"/>
      <point x="253" y="1005"/>
      <point x="120" y="859"/>
      <point x="47" y="655"/>
      <point x="47" y="529" type="qcurve" smooth="yes"/>
      <point x="47" y="405"/>
      <point x="120" y="203"/>
      <point x="252" y="59"/>
      <point x="437" y="-20"/>
    </contour>
  </outline>
</glyph>
<glyph name="d" format="2">
  <advance width="1212"/>
  <unicode hex="0064"/>
  <outline>
    <contour>
      <point x="506.88" y="-20.48" type="curve" smooth="yes" name=".dv01"/>
      <point x="631.229" y="-20.48"/>
      <point x="737.224" y="25.5881"/>
      <point x="796.672" y="105.472" type="curve" name=".iv01"/>
      <point x="811.008" y="0" type="line" name=".sv01"/>
      <point x="1069.06" y="0" type="line"/>
      <point x="1069.06" y="1447.91" type="line" name=".av01"/>
      <point x="784.384" y="1447.91" type="line" name=".dh03"/>
      <point x="784.384" y="971.84" type="line" name=".iv02"/>
      <point x="721.886" y="1045.08"/>
      <point x="620.521" y="1084.48"/>
      <point x="494.592" y="1084.48" type="curve" smooth="yes" name=".dv04"/>
      <point x="238.83" y="1084.48"/>
      <point x="54.272" y="857.203"/>
      <point x="54.272" y="542.24" type="curve" smooth="yes" name=".dh01"/>
      <point x="54.272" y="205.311"/>
      <point x="235.881" y="-20.48"/>
    </contour>
    <contour>
      <point x="574.464" y="238.592" type="curve" smooth="yes" name=".dv02"/>
      <point x="425.691" y="238.592"/>
      <point x="337.92" y="347.463"/>
      <point x="337.92" y="532" type="curve" smooth="yes" name=".dh02"/>
      <point x="337.92" y="714.081"/>
      <point x="430.682" y="831.552"/>
      <point x="574.464" y="831.552" type="curve" smooth="yes" name=".dv03"/>
      <point x="718.41" y="831.552"/>
      <point x="807.897" y="716.737"/>
      <point x="807.936" y="532" type="curve" smooth="yes" name=".sh01"/>
      <point x="807.974" y="349.309"/>
      <point x="719.874" y="238.592"/>
    </contour>
  </outline>
</glyph>
<glyph name="e" format="2">
  <advance width="1102"/>
  <unicode hex="0065"/>
  <outline>
    <contour>
      <point x="556" y="-12" type="qcurve" smooth="yes"/>
      <point x="626" y="-12"/>
      <point x="749" y="5"/>
      <point x="860" y="47"/>
      <point x="962" y="117"/>
      <point x="1010" y="170" type="qcurve"/>
      <point x="816" y="341" type="line"/>
      <point x="788" y="312"/>
      <point x="733" y="277"/>
      <point x="675" y="257"/>
      <point x="609" y="251"/>
      <point x="570" y="251" type="qcurve" smooth="yes"/>
      <point x="522" y="251"/>
      <point x="446" y="272"/>
      <point x="388" y="314"/>
      <point x="350" y="378"/>
      <point x="341" y="421" type="qcurve"/>
      <point x="1040" y="421" type="line"/>
      <point x="1043" y="429"/>
      <point x="1052" y="480"/>
      <point x="1052" y="514" type="qcurve" smooth="yes"/>
      <point x="1052" y="655"/>
      <point x="988" y="869"/>
      <point x="863" y="1012"/>
      <point x="677" y="1084"/>
      <point x="554" y="1084" type="qcurve" smooth="yes"/>
      <point x="440" y="1084"/>
      <point x="253" y="1004"/>
      <point x="119" y="855"/>
      <point x="45" y="645"/>
      <point x="45" y="515" type="qcurve" smooth="yes"/>
      <point x="45" y="396"/>
      <point x="118" y="201"/>
      <point x="252" y="63"/>
      <point x="441" y="-12"/>
    </contour>
    <contour>
      <point x="341" y="618" type="line"/>
      <point x="349" y="679"/>
      <point x="387" y="766"/>
      <point x="441" y="824"/>
      <point x="512" y="851"/>
      <point x="554" y="851" type="qcurve" smooth="yes"/>
      <point x="605" y="851"/>
      <point x="683" y="824"/>
      <point x="738" y="767"/>
      <point x="770" y="679"/>
      <point x="774" y="618" type="qcurve"/>
    </contour>
  </outline>
</glyph>
<glyph name="f" format="2">
  <advance width="708"/>
  <unicode hex="0066"/>
  <outline>
    <contour>
      <point x="204" y="0" type="line"/>
      <point x="484" y="0" type="line"/>
      <point x="484" y="828" type="line"/>
      <point x="705" y="828" type="line"/>
      <point x="705" y="1064" type="line"/>
      <point x="484" y="1064" type="line"/>
      <point x="484" y="1118" type="line" smooth="yes"/>
      <point x="484" y="1168"/>
      <point x="530" y="1217"/>
      <point x="565" y="1217" type="qcurve" smooth="yes"/>
      <point x="583" y="1217"/>
      <point x="615" y="1204"/>
      <point x="632" y="1193" type="qcurve"/>
      <point x="727" y="1425" type="line"/>
      <point x="678" y="1447"/>
      <point x="583" y="1468"/>
      <point x="529" y="1468" type="qcurve" smooth="yes"/>
      <point x="463" y="1468"/>
      <point x="346" y="1423"/>
      <point x="258" y="1341"/>
      <point x="207" y="1226"/>
      <point x="207" y="1157" type="qcurve" smooth="yes"/>
      <point x="207" y="1064" type="line"/>
      <point x="16" y="1064" type="line"/>
      <point x="16" y="828" type="line"/>
      <point x="204" y="828" type="line"/>
    </contour>
  </outline>
</glyph>
<glyph name="g" format="2">
  <advance width="1125"/>
  <unicode hex="0067"/>
  <outline>
    <contour>
      <point x="568" y="1084" type="curve" smooth="yes"/>
      <point x="336" y="1084"/>
      <point x="128" y="938"/>
      <point x="128" y="691" type="curve" smooth="yes"/>
      <point x="128" y="616"/>
      <point x="147" y="547"/>
      <point x="183" y="489" type="curve"/>
      <point x="111" y="427"/>
      <point x="59" y="350"/>
      <point x="59" y="252" type="curve" smooth="yes"/>
      <point x="59" y="167"/>
      <point x="91" y="93"/>
      <point x="154" y="38" type="curve"/>
      <point x="154" y="21" type="line"/>
      <point x="30" y="-31" type="line"/>
      <point x="22" y="-65"/>
      <point x="16" y="-101"/>
      <point x="16" y="-136" type="curve" smooth="yes"/>
      <point x="16" y="-399"/>
      <point x="368" y="-452"/>
      <point x="563" y="-452" type="curve" smooth="yes"/>
      <point x="828" y="-452"/>
      <point x="1085" y="-359"/>
      <point x="1085" y="-53" type="curve" smooth="yes"/>
      <point x="1085" y="142"/>
      <point x="924" y="186"/>
      <point x="735" y="186" type="curve" smooth="yes"/>
      <point x="467" y="186" type="line" smooth="yes"/>
      <point x="401" y="186"/>
      <point x="302" y="184"/>
      <point x="302" y="276" type="curve" smooth="yes"/>
      <point x="302" y="300"/>
      <point x="316" y="326"/>
      <point x="338" y="349" type="curve"/>
      <point x="410" y="311"/>
      <point x="492" y="295"/>
      <point x="573" y="295" type="curve" smooth="yes"/>
      <point x="803" y="295"/>
      <point x="999" y="428"/>
      <point x="999" y="676" type="curve" smooth="yes"/>
      <point x="999" y="913"/>
      <point x="799" y="1084"/>
    </contour>
    <contour>
      <point x="568" y="-244" type="curve" smooth="yes"/>
      <point x="491" y="-244"/>
      <point x="300" y="-233"/>
      <point x="300" y="-123" type="curve" smooth="yes"/>
      <point x="300" y="-109"/>
      <point x="302" y="-93"/>
      <point x="308" y="-79" type="curve"/>
      <point x="351" y="-44" type="line"/>
      <point x="395" y="-50"/>
      <point x="438" y="-50"/>
      <point x="482" y="-50" type="curve" smooth="yes"/>
      <point x="653" y="-50" type="line" smooth="yes"/>
      <point x="703" y="-50"/>
      <point x="809" y="-36"/>
      <point x="809" y="-110" type="curve" smooth="yes"/>
      <point x="809" y="-213"/>
      <point x="646" y="-244"/>
    </contour>
    <contour>
      <point x="570" y="861" type="curve" smooth="yes"/>
      <point x="672" y="861"/>
      <point x="727" y="781"/>
      <point x="727" y="687" type="curve" smooth="yes"/>
      <point x="727" y="592"/>
      <point x="672" y="518"/>
      <point x="570" y="518" type="curve" smooth="yes"/>
      <point x="465" y="518"/>
      <point x="409" y="592"/>
      <point x="409" y="687" type="curve" smooth="yes"/>
      <point x="409" y="781"/>
      <point x="465" y="861"/>
    </contour>
    <contour>
      <point x="941" y="837" type="line"/>
      <point x="1119" y="981" type="line"/>
      <point x="973" y="1162" type="line"/>
      <point x="785" y="1003" type="line"/>
    </contour>
  </outline>
</glyph>
<glyph name="h" format="2">
  <advance width="1211"/>
  <unicode hex="0068"/>
  <anchor x="286" y="1617.92" name="top"/>
  <outline>
    <contour>
      <point x="143.36" y="0" type="line" name=".av03"/>
      <point x="429.056" y="0" type="line" name=".sh03"/>
      <point x="429.056" y="503.776" type="line" smooth="yes"/>
      <point x="429.056" y="708.214"/>
      <point x="512.853" y="823.389"/>
      <point x="661.504" y="823.264" type="curve" smooth="yes" name=".dv01"/>
      <point x="758.452" y="823.182"/>
      <point x="817.152" y="746.332"/>
      <point x="817.152" y="619.488" type="curve" smooth="yes" name=".ah01"/>
      <point x="817.152" y="0" type="line"/>
      <point x="1101.82" y="0" type="line" name=".av02"/>
      <point x="1101.82" y="653.28" type="line" smooth="yes" name=".sh01"/>
      <point x="1101.82" y="911.729"/>
      <point x="949.675" y="1084.38"/>
      <point x="721.92" y="1084.38" type="curve" smooth="yes" name=".dv02"/>
      <point x="595.82" y="1084.38"/>
      <point x="504.741" y="1046.81"/>
      <point x="429.056" y="963.552" type="curve" name=".iv01"/>
      <point x="429.056" y="1447.91" type="line" name=".av01"/>
      <point x="143.36" y="1447.91" type="line" name=".sh02"/>
    </contour>
  </outline>
  <guideline angle="90" name="vertical" x="286" y="0"/>
</glyph>
<glyph name="i" format="2">
  <advance width="539"/>
  <unicode hex="0069"/>
  <anchor x="418" y="0" name="ogonek"/>
  <outline>
    <contour>
      <point x="124.69" y="1206.27" type="line"/>
      <point x="414.463" y="1206.27" type="line" name=".dv01"/>
      <point x="414.463" y="1447.91" type="line" name=".dv02"/>
      <point x="124.69" y="1447.91" type="line" name=".dh01"/>
    </contour>
    <contour>
      <point x="129.848" y="0" type="line"/>
      <point x="409.714" y="0" type="line" name=".av02"/>
      <point x="409.714" y="1063.98" type="line" name=".dh02"/>
      <point x="129.848" y="1063.98" type="line" name=".dh01"/>
    </contour>
  </outline>
  <guideline angle="90" name="vertical" x="270" y="0"/>
</glyph>
<glyph name="j" format="2">
  <advance width="571"/>
  <unicode hex="006A"/>
  <outline>
    <contour>
      <point x="439.296" y="1176.58" type="line" name=".dv03"/>
      <point x="439.296" y="1444.86" type="line" name=".dv04"/>
      <point x="150.528" y="1444.86" type="line" name=".sh00"/>
      <point x="150.528" y="1176.58" type="line"/>
    </contour>
    <contour>
      <point x="118.784" y="-448.512" type="curve" smooth="yes" name=".dv00"/>
      <point x="218.112" y="-448.512"/>
      <point x="295.936" y="-413.696"/>
      <point x="351.232" y="-344.064" type="curve" smooth="yes"/>
      <point x="401.408" y="-280.576"/>
      <point x="427.008" y="-195.584"/>
      <point x="427.008" y="-90.112" type="curve" smooth="yes"/>
      <point x="427.008" y="1022.98" type="line" name=".dh02"/>
      <point x="146.432" y="1022.98" type="line" name=".dh00"/>
      <point x="146.432" y="82.944" type="line" smooth="yes"/>
      <point x="146.432" y="52.224"/>
      <point x="147.456" y="20.48"/>
      <point x="150.528" y="-11.264" type="curve" smooth="yes" name=".sh05"/>
      <point x="152.576" y="-31.744"/>
      <point x="153.6" y="-51.2"/>
      <point x="153.6" y="-69.632" type="curve" name=".sh06"/>
      <point x="152.576" y="-100.352" type="line" smooth="yes"/>
      <point x="151.552" y="-153.6"/>
      <point x="135.168" y="-191.488"/>
      <point x="87.04" y="-191.488" type="curve" smooth="yes" name=".dv05"/>
      <point x="64.512" y="-191.488"/>
      <point x="37.888" y="-183.296"/>
      <point x="6.144" y="-167.936" type="curve"/>
      <point x="-19.456" y="-249.856"/>
      <point x="-39.936" y="-333.824"/>
      <point x="-67.584" y="-415.744" type="curve"/>
      <point x="-20.48" y="-432.128"/>
      <point x="59.392" y="-448.512"/>
    </contour>
  </outline>
</glyph>
<glyph name="k" format="2">
  <advance width="1167"/>
  <unicode hex="006B"/>
  <outline>
    <contour>
      <point x="143" y="0" type="line" name=".av02"/>
      <point x="423" y="0" type="line" name=".sh01"/>
      <point x="423" y="300" type="line"/>
      <point x="561" y="453" type="line" name=".iv03"/>
      <point x="857" y="0" type="line"/>
      <point x="1188" y="0" type="line" name=".av01"/>
      <point x="755" y="621" type="line"/>
      <point x="1153" y="1064" type="line" name=".iv01"/>
      <point x="786" y="1064" type="line"/>
      <point x="423" y="637" type="line" name=".iv02"/>
      <point x="423" y="1448" type="line" name=".av03"/>
      <point x="143" y="1448" type="line" name=".dh01"/>
    </contour>
  </outline>
</glyph>
<glyph name="l" format="2">
  <advance width="604"/>
  <unicode hex="006C"/>
  <outline>
    <contour>
      <point x="370.688" y="-20.48" type="curve" smooth="yes" name=".av01"/>
      <point x="394.24" y="-20.48"/>
      <point x="424.96" y="-18.432"/>
      <point x="462.848" y="-15.36" type="curve" name=".av02"/>
      <point x="500.736" y="-11.264"/>
      <point x="534.528" y="-7.168"/>
      <point x="564.224" y="0" type="curve"/>
      <point x="564.224" y="237.568" type="line" name=".sh01"/>
      <point x="535.552" y="233.472"/>
      <point x="514.048" y="231.424"/>
      <point x="499.712" y="231.424" type="curve"/>
      <point x="442.368" y="232.448"/>
      <point x="413.696" y="258.048"/>
      <point x="413.696" y="309.248" type="curve" smooth="yes"/>
      <point x="413.696" y="1446.91" type="line" name=".av03"/>
      <point x="134.144" y="1446.91" type="line" name=".dh01"/>
      <point x="134.144" y="211.968" type="line" smooth="yes" name=".sh05"/>
      <point x="134.144" y="24.576"/>
      <point x="234.496" y="-20.48"/>
    </contour>
  </outline>
</glyph>
<glyph name="m" format="2">
  <advance width="1799"/>
  <unicode hex="006D"/>
  <outline>
    <contour>
      <point x="141" y="0" type="line" name=".av02"/>
      <point x="423" y="0" type="line" name=".sh01"/>
      <point x="423" y="597" type="line" smooth="yes"/>
      <point x="423" y="730"/>
      <point x="509" y="820"/>
      <point x="623" y="820" type="curve" smooth="yes" name=".sv02"/>
      <point x="734" y="820"/>
      <point x="770" y="754"/>
      <point x="770" y="622" type="curve" smooth="yes" name=".dh03"/>
      <point x="770" y="0" type="line" name=".av03"/>
      <point x="1055" y="0" type="line"/>
      <point x="1055" y="597" type="line" smooth="yes" name=".dh04"/>
      <point x="1055" y="719"/>
      <point x="1126" y="820"/>
      <point x="1255" y="820" type="curve" smooth="yes" name=".sv01"/>
      <point x="1365" y="820"/>
      <point x="1403" y="748"/>
      <point x="1403" y="617" type="curve" smooth="yes" name=".dh05"/>
      <point x="1403" y="0" type="line"/>
      <point x="1688" y="0" type="line" name=".av01"/>
      <point x="1688" y="664" type="line" smooth="yes" name=".dh06"/>
      <point x="1688" y="886"/>
      <point x="1547" y="1082"/>
      <point x="1308" y="1082" type="curve" smooth="yes" name=".av04"/>
      <point x="1178" y="1082"/>
      <point x="1045" y="1044"/>
      <point x="957" y="942" type="curve"/>
      <point x="879" y="1039"/>
      <point x="793" y="1084"/>
      <point x="670" y="1084" type="curve" smooth="yes" name=".av06"/>
      <point x="572" y="1084"/>
      <point x="490" y="1050"/>
      <point x="423" y="980" type="curve" name=".iv01"/>
      <point x="423" y="1064" type="line" name=".dh02"/>
      <point x="141" y="1064" type="line" name=".dh01"/>
    </contour>
  </outline>
</glyph>
<glyph name="n" format="2">
  <advance width="1210"/>
  <unicode hex="006E"/>
  <anchor x="618" y="1191.94" name="top"/>
  <outline>
    <contour>
      <point x="141" y="0" type="line" name=".av02"/>
      <point x="426" y="0" type="line" name=".sh04"/>
      <point x="426" y="498" type="line" smooth="yes"/>
      <point x="426" y="657"/>
      <point x="469" y="823"/>
      <point x="660" y="823" type="curve" smooth="yes"/>
      <point x="771" y="823"/>
      <point x="815" y="754"/>
      <point x="815" y="620" type="curve" smooth="yes" name=".ah01"/>
      <point x="815" y="0" type="line"/>
      <point x="1101" y="0" type="line" name=".av01"/>
      <point x="1101" y="656" type="line" smooth="yes" name=".sh01"/>
      <point x="1101" y="876"/>
      <point x="974" y="1084"/>
      <point x="722" y="1084" type="curve" smooth="yes" name=".dv02"/>
      <point x="602" y="1084"/>
      <point x="504" y="1048"/>
      <point x="426" y="962" type="curve" name=".iv01"/>
      <point x="426" y="1064" type="line" name=".sh03"/>
      <point x="141" y="1064" type="line" name=".sh02"/>
    </contour>
  </outline>
  <guideline angle="90" name="vertical" x="618" y="0"/>
</glyph>
<glyph name="o" format="2">
  <advance width="1156"/>
  <unicode hex="006F"/>
  <anchor x="578" y="1191.94" name="top"/>
  <outline>
    <contour>
      <point x="578.176" y="-20.48" type="curve" smooth="yes"/>
      <point x="881.803" y="-20.48"/>
      <point x="1115.11" y="232.727"/>
      <point x="1115.11" y="532" type="curve" smooth="yes" name=".sh01"/>
      <point x="1115.11" y="832.913"/>
      <point x="864.881" y="1084.29"/>
      <point x="577.536" y="1084.29" type="curve" smooth="yes" name=".dv04"/>
      <point x="281.212" y="1084.29"/>
      <point x="40.96" y="832.913"/>
      <point x="40.96" y="532" type="curve" smooth="yes" name=".sh02"/>
      <point x="40.96" y="232.727"/>
      <point x="289.424" y="-20.48"/>
    </contour>
    <contour>
      <point x="577.536" y="219.136" type="curve" smooth="yes" name=".dv02"/>
      <point x="397.312" y="219.136"/>
      <point x="328.704" y="373.28"/>
      <point x="328.704" y="532" type="curve" smooth="yes" name=".sh03"/>
      <point x="328.704" y="691.744"/>
      <point x="411.648" y="844.624"/>
      <point x="577.536" y="844.624" type="curve" smooth="yes" name=".dv03"/>
      <point x="753.904" y="844.624"/>
      <point x="827.368" y="685.116"/>
      <point x="827.368" y="532" type="curve" smooth="yes" name=".ah01"/>
      <point x="827.368" y="367.103"/>
      <point x="752.196" y="219.136"/>
    </contour>
  </outline>
  <guideline angle="90" name="vertical" x="578" y="0"/>
  <guideline angle="0" x="0" y="532"/>
</glyph>
<glyph name="p" format="2">
  <advance width="1212"/>
  <unicode hex="0070"/>
  <outline>
    <contour>
      <point x="143" y="-449" type="line"/>
      <point x="428" y="-449" type="line" name=".av01"/>
      <point x="428" y="91" type="line" name=".iv01"/>
      <point x="494" y="17"/>
      <point x="595" y="-20"/>
      <point x="725" y="-20" type="curve" smooth="yes"/>
      <point x="973" y="-20"/>
      <point x="1158" y="220"/>
      <point x="1158" y="542" type="curve" smooth="yes"/>
      <point x="1158" y="848"/>
      <point x="965" y="1084"/>
      <point x="714" y="1084" type="curve" smooth="yes" name=".dv02"/>
      <point x="587" y="1084"/>
      <point x="496" y="1049"/>
      <point x="428" y="972" type="curve" name=".iv02"/>
      <point x="428" y="1064" type="line" name=".sh01"/>
      <point x="143" y="1064" type="line" name=".dh01"/>
    </contour>
    <contour>
      <point x="639" y="240" type="curve" smooth="yes" name=".dv04"/>
      <point x="489" y="240"/>
      <point x="403" y="346"/>
      <point x="403" y="532" type="curve" smooth="yes" name=".dh02"/>
      <point x="403" y="717"/>
      <point x="494" y="833"/>
      <point x="639" y="833" type="curve" smooth="yes" name=".dv01"/>
      <point x="784" y="833"/>
      <point x="873" y="718"/>
      <point x="873" y="532" type="curve" smooth="yes" name=".dh03"/>
      <point x="873" y="355"/>
      <point x="781" y="240"/>
    </contour>
  </outline>
</glyph>
<glyph name="q" format="2">
  <advance width="1209"/>
  <unicode hex="0071"/>
  <outline>
    <contour>
      <point x="1065.98" y="-448.512" type="line" name=".av01"/>
      <point x="1065.98" y="1063.98" type="line" name=".dh04"/>
      <point x="784.384" y="1063.98" type="line" name=".dh03"/>
      <point x="784.384" y="971.84" type="line" name=".iv01"/>
      <point x="728.782" y="1040.59"/>
      <point x="618.658" y="1084.48"/>
      <point x="501.76" y="1084.48" type="curve" smooth="yes" name=".dv02"/>
      <point x="252.965" y="1084.48"/>
      <point x="54.272" y="843.716"/>
      <point x="54.272" y="542.24" type="curve" smooth="yes" name=".dh01"/>
      <point x="54.272" y="213.419"/>
      <point x="239.423" y="-20.48"/>
      <point x="499.712" y="-20.48" type="curve" smooth="yes" name=".dv03"/>
      <point x="628.392" y="-20.48"/>
      <point x="726.695" y="18.0635"/>
      <point x="784.384" y="91.136" type="curve" name=".iv02"/>
      <point x="784.384" y="-448.512" type="line"/>
    </contour>
    <contour>
      <point x="574.464" y="239.616" type="curve" smooth="yes" name=".dv04"/>
      <point x="426.013" y="239.616"/>
      <point x="337.92" y="348.505"/>
      <point x="337.92" y="532" type="curve" smooth="yes" name=".dh02"/>
      <point x="337.92" y="712.465"/>
      <point x="430.977" y="829.504"/>
      <point x="574.464" y="829.504" type="curve" smooth="yes" name=".dv01"/>
      <point x="719.545" y="829.504"/>
      <point x="807.936" y="716.871"/>
      <point x="807.936" y="532" type="curve" smooth="yes" name=".sh01"/>
      <point x="807.936" y="350.202"/>
      <point x="719.632" y="239.616"/>
    </contour>
  </outline>
</glyph>
<glyph name="r" format="2">
  <advance width="841"/>
  <unicode hex="0072"/>
  <outline>
    <contour>
      <point x="141" y="0" type="line"/>
      <point x="410" y="0" type="line"/>
      <point x="410" y="532" type="line" smooth="yes"/>
      <point x="410" y="567"/>
      <point x="424" y="635"/>
      <point x="451" y="698"/>
      <point x="490" y="752"/>
      <point x="542" y="791"/>
      <point x="605" y="814"/>
      <point x="642" y="814" type="qcurve" smooth="yes"/>
      <point x="671" y="814"/>
      <point x="717" y="802"/>
      <point x="740" y="782" type="qcurve"/>
      <point x="766" y="826"/>
      <point x="809" y="899"/>
      <point x="842" y="957"/>
      <point x="866" y="998"/>
      <point x="873" y="1011" type="qcurve"/>
      <point x="827" y="1051"/>
      <point x="704" y="1084"/>
      <point x="644" y="1084" type="qcurve" smooth="yes"/>
      <point x="609" y="1084"/>
      <point x="539" y="1062"/>
      <point x="478" y="1017"/>
      <point x="428" y="950"/>
      <point x="412" y="905" type="qcurve"/>
      <point x="412" y="1064" type="line"/>
      <point x="141" y="1064" type="line"/>
    </contour>
  </outline>
</glyph>
<glyph name="s" format="2">
  <advance width="976"/>
  <unicode hex="0073"/>
  <anchor x="530" y="0" name="m.uni0326"/>
  <anchor x="0" y="0" name="m.uni0328_1"/>
  <anchor x="457" y="1062" name="m.uni0308_2"/>
  <anchor x="0" y="0" name="m.uni031B_3_2"/>
  <outline>
    <contour>
      <point x="474" y="-21" type="curve" smooth="yes"/>
      <point x="696" y="-21"/>
      <point x="904" y="102"/>
      <point x="901" y="341" type="curve"/>
      <point x="901" y="570"/>
      <point x="726" y="637"/>
      <point x="539" y="684" type="curve"/>
      <point x="491" y="699"/>
      <point x="375" y="718"/>
      <point x="370" y="781" type="curve"/>
      <point x="370" y="820"/>
      <point x="416" y="858"/>
      <point x="495" y="859" type="curve"/>
      <point x="598" y="859"/>
      <point x="655" y="802"/>
      <point x="698" y="728" type="curve"/>
      <point x="921" y="848" type="line"/>
      <point x="834" y="999"/>
      <point x="690" y="1084"/>
      <point x="504" y="1084" type="curve" smooth="yes"/>
      <point x="290" y="1084"/>
      <point x="94" y="974"/>
      <point x="95" y="743" type="curve"/>
      <point x="95" y="522"/>
      <point x="269" y="473"/>
      <point x="442" y="428" type="curve"/>
      <point x="491" y="417"/>
      <point x="619" y="398"/>
      <point x="620" y="330" type="curve"/>
      <point x="620" y="286"/>
      <point x="570" y="215"/>
      <point x="457" y="215" type="curve"/>
      <point x="340" y="215"/>
      <point x="283" y="280"/>
      <point x="241" y="383" type="curve"/>
      <point x="16" y="285" type="line"/>
      <point x="77" y="90"/>
      <point x="279" y="-21"/>
    </contour>
  </outline>
</glyph>
<glyph name="t" format="2">
  <advance width="798"/>
  <unicode hex="0074"/>
  <anchor x="456" y="0" name="cedilla"/>
  <outline>
    <contour>
      <point x="529" y="-20" type="curve" smooth="yes" name=".dv01"/>
      <point x="594" y="-20"/>
      <point x="672" y="-7"/>
      <point x="728" y="13" type="curve"/>
      <point x="728" y="269" type="line"/>
      <point x="676" y="242"/>
      <point x="623" y="229"/>
      <point x="573" y="229" type="curve" smooth="yes" name=".dv02"/>
      <point x="499" y="229"/>
      <point x="452" y="258"/>
      <point x="452" y="344" type="curve" smooth="yes"/>
      <point x="452" y="828" type="line" name=".dv03"/>
      <point x="720" y="828" type="line"/>
      <point x="720" y="1064" type="line"/>
      <point x="452" y="1064" type="line" name=".dv04"/>
      <point x="452" y="1474" type="line" name=".av01"/>
      <point x="346" y="1395"/>
      <point x="258" y="1332"/>
      <point x="190" y="1284" type="curve" name=".sh01"/>
      <point x="190" y="1064" type="line" name=".sv01"/>
      <point x="19" y="1064" type="line"/>
      <point x="19" y="828" type="line" name=".sv02"/>
      <point x="185" y="828" type="line" name=".dh01"/>
      <point x="185" y="286" type="line" smooth="yes"/>
      <point x="185" y="83"/>
      <point x="339" y="-20"/>
    </contour>
  </outline>
</glyph>
<glyph name="u" format="2">
  <advance width="1211"/>
  <unicode hex="0075"/>
  <outline>
    <contour>
      <point x="492" y="-19" type="curve" smooth="yes" name=".dv01"/>
      <point x="614" y="-19"/>
      <point x="705" y="22"/>
      <point x="777" y="104" type="curve"/>
      <point x="777" y="0" type="line" name=".ah01"/>
      <point x="1071" y="0" type="line" name=".sh01"/>
      <point x="1071" y="1064" type="line" name=".av01"/>
      <point x="777" y="1064" type="line" name=".sh02"/>
      <point x="777" y="549" type="line" smooth="yes"/>
      <point x="777" y="350"/>
      <point x="695" y="259"/>
      <point x="569" y="259" type="curve" smooth="yes" name=".dv02"/>
      <point x="461" y="259"/>
      <point x="397" y="317"/>
      <point x="397" y="444" type="curve" smooth="yes"/>
      <point x="397" y="1064" type="line" name=".av02"/>
      <point x="106" y="1064" type="line" name=".sh03"/>
      <point x="106" y="412" type="line" smooth="yes"/>
      <point x="106" y="155"/>
      <point x="281" y="-19"/>
    </contour>
  </outline>
</glyph>
<glyph name="v" format="2">
  <advance width="1039"/>
  <unicode hex="0076"/>
  <outline>
    <contour>
      <point x="633" y="0" type="line" name=".av03"/>
      <point x="1063" y="1064" type="line" name=".av01"/>
      <point x="758" y="1064" type="line"/>
      <point x="520" y="361" type="line" name=".iv01"/>
      <point x="283" y="1064" type="line" name=".av02"/>
      <point x="-23" y="1064" type="line"/>
      <point x="406" y="0" type="line"/>
    </contour>
  </outline>
</glyph>
<glyph name="w" format="2">
  <advance width="1517"/>
  <unicode hex="0077"/>
  <anchor x="757" y="1191.94" name="top"/>
  <outline>
    <contour>
      <point x="569" y="-5" type="line" name=".av04"/>
      <point x="757" y="662" type="line" name=".iv01"/>
      <point x="947" y="0" type="line" name=".av05"/>
      <point x="1195" y="0" type="line"/>
      <point x="1521" y="1064" type="line" name=".av01"/>
      <point x="1223" y="1064" type="line"/>
      <point x="1056" y="440" type="line" name=".iv02"/>
      <point x="877" y="1064" type="line" name=".av02"/>
      <point x="640" y="1064" type="line"/>
      <point x="459" y="438" type="line" name=".iv03"/>
      <point x="296" y="1064" type="line" name=".av03"/>
      <point x="-2" y="1064" type="line" name=".iv04"/>
      <point x="321" y="-5" type="line"/>
    </contour>
  </outline>
</glyph>
<glyph name="x" format="2">
  <advance width="1090"/>
  <unicode hex="0078"/>
  <outline>
    <contour>
      <point x="746" y="0" type="line"/>
      <point x="1091" y="0" type="line" name=".av03"/>
      <point x="735" y="516" type="line"/>
      <point x="543" y="699" type="line" name=".iv01"/>
      <point x="339" y="1064" type="line" name=".av02"/>
      <point x="-1" y="1064" type="line"/>
      <point x="350" y="516" type="line"/>
      <point x="543" y="331" type="line" name=".iv02"/>
    </contour>
    <contour>
      <point x="-1" y="0" type="line" name=".av04"/>
      <point x="339" y="0" type="line"/>
      <point x="559" y="357" type="line"/>
      <point x="367" y="541" type="line"/>
    </contour>
    <contour>
      <point x="526" y="673" type="line"/>
      <point x="718" y="491" type="line"/>
      <point x="1091" y="1064" type="line" name=".av01"/>
      <point x="746" y="1064" type="line"/>
    </contour>
  </outline>
</glyph>
<glyph name="y" format="2">
  <advance width="1075"/>
  <unicode hex="0079"/>
  <anchor x="534" y="1191.94" name="top"/>
  <outline>
    <contour>
      <point x="498" y="-440" type="line" name=".av03"/>
      <point x="1095" y="1064" type="line" name=".av00"/>
      <point x="786" y="1064" type="line"/>
      <point x="534" y="351" type="line" name=".iv01"/>
      <point x="288" y="1064" type="line" name=".av02"/>
      <point x="-19" y="1064" type="line" name=".iv02"/>
      <point x="383" y="35" type="line"/>
      <point x="190" y="-440" type="line"/>
    </contour>
  </outline>
  <guideline angle="90" name="vertical" x="534" y="0"/>
</glyph>
<glyph name="z" format="2">
  <advance width="1052"/>
  <unicode hex="007A"/>
  <outline>
    <contour>
      <point x="983.04" y="0" type="line" name=".dv00"/>
      <point x="983.04" y="234.496" type="line" name=".dv05"/>
      <point x="445.44" y="234.496" type="line"/>
      <point x="983.04" y="869.376" type="line"/>
      <point x="983.04" y="1063.94" type="line"/>
      <point x="79.8719" y="1063.94" type="line" name=".dv06"/>
      <point x="79.8719" y="828.416" type="line" name=".dv07"/>
      <point x="613.376" y="828.416" type="line"/>
      <point x="50.176" y="181.248" type="line"/>
      <point x="50.176" y="0" type="line"/>
    </contour>
  </outline>
</glyph>
<glyph name="braceleft" format="2">
  <advance width="639"/>
  <unicode hex="007B"/>
  <outline>
    <contour>
      <point x="519.168" y="-171.008" type="line" smooth="yes" name=".dv01"/>
      <point x="542.72" y="-171.008"/>
      <point x="579.584" y="-165.888"/>
      <point x="590.848" y="-165.888" type="curve" name=".sv01"/>
      <point x="590.848" y="25.6" type="line"/>
      <point x="559.104" y="18.432"/>
      <point x="531.456" y="14.336"/>
      <point x="505.856" y="14.336" type="curve" smooth="yes" name=".dv02"/>
      <point x="443.392" y="15.36"/>
      <point x="412.672" y="56.32"/>
      <point x="412.672" y="139.264" type="curve" smooth="yes" name=".sh02"/>
      <point x="412.672" y="508.928" type="line" smooth="yes"/>
      <point x="412.672" y="544.768"/>
      <point x="399.36" y="580.608"/>
      <point x="372.736" y="615.424" type="curve" smooth="yes"/>
      <point x="346.112" y="650.24"/>
      <point x="315.392" y="675.84"/>
      <point x="280.576" y="691.2" type="curve" name=".ih01"/>
      <point x="359.424" y="740.352"/>
      <point x="412.672" y="805.888"/>
      <point x="412.672" y="912.384" type="curve" smooth="yes"/>
      <point x="412.672" y="1435.65" type="line" smooth="yes" name=".sh01"/>
      <point x="412.672" y="1447.94"/>
      <point x="417.792" y="1456.13"/>
      <point x="428.032" y="1459.2" type="curve" smooth="yes"/>
      <point x="435.2" y="1461.25"/>
      <point x="448.512" y="1462.27"/>
      <point x="466.944" y="1462.27" type="curve"/>
      <point x="495.616" y="1461.25" type="line"/>
      <point x="532.48" y="1456.13" type="line"/>
      <point x="561.152" y="1451.01"/>
      <point x="580.608" y="1446.91"/>
      <point x="590.848" y="1443.84" type="curve" name=".dh02"/>
      <point x="590.848" y="1635.33" type="line"/>
      <point x="583.68" y="1636.35"/>
      <point x="576.512" y="1637.38"/>
      <point x="570.368" y="1637.38" type="curve" smooth="yes"/>
      <point x="564.224" y="1637.38" type="line"/>
      <point x="537.6" y="1640.45" type="line"/>
      <point x="441.344" y="1640.45" type="line" smooth="yes"/>
      <point x="266.24" y="1640.45"/>
      <point x="178.176" y="1548.29"/>
      <point x="178.176" y="1362.94" type="curve" smooth="yes" name=".dh01"/>
      <point x="178.176" y="926.72" type="line" smooth="yes"/>
      <point x="178.176" y="885.76"/>
      <point x="166.912" y="856.064"/>
      <point x="145.408" y="837.632" type="curve"/>
      <point x="134.144" y="827.392"/>
      <point x="120.832" y="818.176"/>
      <point x="104.448" y="811.008" type="curve" smooth="yes"/>
      <point x="44.032" y="786.432" type="line"/>
      <point x="44.032" y="608.256" type="line"/>
      <point x="60.416" y="601.088"/>
      <point x="73.728" y="596.992"/>
      <point x="83.968" y="593.92" type="curve" smooth="yes"/>
      <point x="108.544" y="586.752"/>
      <point x="132.096" y="576.512"/>
      <point x="153.6" y="564.224" type="curve"/>
      <point x="169.984" y="548.864"/>
      <point x="178.176" y="528.384"/>
      <point x="178.176" y="502.784" type="curve" smooth="yes" name=".sh03"/>
      <point x="178.176" y="220.16" type="line" smooth="yes"/>
      <point x="178.176" y="206.848"/>
      <point x="175.104" y="190.464"/>
      <point x="169.984" y="171.008" type="curve" name=".sh04"/>
      <point x="169.984" y="145.408" type="line" smooth="yes"/>
      <point x="169.984" y="96.256"/>
      <point x="175.104" y="53.248"/>
      <point x="184.32" y="16.384" type="curve" smooth="yes"/>
      <point x="217.088" y="-113.664"/>
      <point x="305.152" y="-171.008"/>
      <point x="418.816" y="-171.008" type="curve" smooth="yes"/>
    </contour>
  </outline>
</glyph>
<glyph name="bar" format="2">
  <advance width="638"/>
  <unicode hex="007C"/>
  <outline>
    <contour>
      <point x="422" y="-524" type="line"/>
      <point x="422" y="1571" type="line"/>
      <point x="215" y="1571" type="line"/>
      <point x="215" y="-524" type="line"/>
    </contour>
  </outline>
</glyph>
<glyph name="braceright" format="2">
  <advance width="639"/>
  <unicode hex="007D"/>
  <outline>
    <contour>
      <point x="457" y="11" type="line" smooth="yes"/>
      <point x="457" y="-165"/>
      <point x="372" y="-259"/>
      <point x="205" y="-259" type="curve" smooth="yes"/>
      <point x="44" y="-259" type="line" name=".sv01"/>
      <point x="44" y="-63" type="line"/>
      <point x="143" y="-63" type="line" smooth="yes" name=".dv02"/>
      <point x="205" y="-63"/>
      <point x="222" y="-21"/>
      <point x="222" y="62" type="curve" smooth="yes" name=".sh02"/>
      <point x="222" y="471" type="line" smooth="yes"/>
      <point x="222" y="577"/>
      <point x="275" y="651"/>
      <point x="354" y="691" type="curve" name=".ih01"/>
      <point x="275" y="740"/>
      <point x="222" y="805"/>
      <point x="222" y="911" type="curve" smooth="yes"/>
      <point x="222" y="1375" type="line" smooth="yes" name=".sh01"/>
      <point x="222" y="1413"/>
      <point x="177" y="1445"/>
      <point x="143" y="1445" type="curve" smooth="yes"/>
      <point x="44" y="1445" type="line" name=".dh02"/>
      <point x="44" y="1641" type="line"/>
      <point x="205" y="1641" type="line" smooth="yes"/>
      <point x="380" y="1641"/>
      <point x="457" y="1549"/>
      <point x="457" y="1364" type="curve" smooth="yes" name=".dh01"/>
      <point x="457" y="926" type="line" smooth="yes"/>
      <point x="457" y="858"/>
      <point x="497" y="817"/>
      <point x="591" y="786" type="curve"/>
      <point x="591" y="596" type="line"/>
      <point x="497" y="561"/>
      <point x="457" y="524"/>
      <point x="457" y="456" type="curve" smooth="yes" name=".sh03"/>
    </contour>
  </outline>
</glyph>
<glyph name="asciitilde" format="2">
  <advance width="1184"/>
  <unicode hex="007E"/>
  <outline>
    <contour>
      <point x="633.856" y="385.024" type="curve" name=".sv01"/>
      <point x="666.624" y="385.024"/>
      <point x="706.56" y="388.096"/>
      <point x="751.616" y="388.096" type="curve" smooth="yes" name=".dv01"/>
      <point x="935.936" y="388.096"/>
      <point x="1018.88" y="479.232"/>
      <point x="1018.88" y="660.48" type="curve"/>
      <point x="814.08" y="660.48" type="line" name=".dv02"/>
      <point x="814.08" y="638.976"/>
      <point x="813.056" y="623.616"/>
      <point x="812.032" y="612.352" type="curve" smooth="yes"/>
      <point x="811.008" y="601.088"/>
      <point x="799.744" y="593.92"/>
      <point x="780.288" y="588.8" type="curve"/>
      <point x="758.784" y="587.776" type="line"/>
      <point x="741.376" y="587.776"/>
      <point x="716.8" y="594.944"/>
      <point x="684.032" y="608.256" type="curve"/>
      <point x="642.048" y="627.712"/>
      <point x="602.112" y="643.072"/>
      <point x="562.176" y="652.288" type="curve" smooth="yes"/>
      <point x="517.12" y="661.504"/>
      <point x="467.968" y="666.624"/>
      <point x="407.552" y="666.624" type="curve" smooth="yes" name=".sv02"/>
      <point x="254.976" y="666.624"/>
      <point x="163.84" y="590.848"/>
      <point x="163.84" y="415.744" type="curve"/>
      <point x="360.448" y="415.744" type="line" name=".sv03"/>
      <point x="360.448" y="464.896"/>
      <point x="362.496" y="470.016"/>
      <point x="409.6" y="470.016" type="curve" smooth="yes" name=".sv04"/>
      <point x="417.792" y="470.016"/>
      <point x="430.08" y="466.944"/>
      <point x="445.44" y="459.776" type="curve"/>
      <point x="463.872" y="452.608"/>
      <point x="482.304" y="444.416"/>
      <point x="501.76" y="435.2" type="curve" smooth="yes"/>
      <point x="551.936" y="410.624"/>
      <point x="595.968" y="394.24"/>
    </contour>
  </outline>
</glyph>
<glyph name="exclamdown" format="2">
  <advance width="652"/>
  <unicode hex="00A1"/>
  <outline>
    <contour>
      <point x="474" y="730" type="line" name=".dv01"/>
      <point x="474" y="1023" type="line" name=".dv02"/>
      <point x="178" y="1023" type="line" name=".dh01"/>
      <point x="178" y="730" type="line"/>
    </contour>
    <contour>
      <point x="461" y="-444" type="line" name=".av01"/>
      <point x="432" y="569" type="line"/>
      <point x="220" y="569" type="line"/>
      <point x="191" y="-444" type="line" name=".sh01"/>
    </contour>
  </outline>
</glyph>
<glyph name="cent" format="2">
  <advance width="1229"/>
  <unicode hex="00A2"/>
  <outline>
    <contour>
      <point x="742" y="-210" type="line"/>
      <point x="742" y="-22" type="line"/>
      <point x="909" y="9"/>
      <point x="1016" y="108"/>
      <point x="1087" y="292" type="curve"/>
      <point x="858" y="382" type="line"/>
      <point x="835" y="311"/>
      <point x="811" y="265"/>
      <point x="777" y="235" type="curve" smooth="yes"/>
      <point x="743" y="205"/>
      <point x="700" y="193"/>
      <point x="641" y="193" type="curve" smooth="yes"/>
      <point x="566" y="193"/>
      <point x="506" y="222"/>
      <point x="466" y="277" type="curve" smooth="yes"/>
      <point x="425" y="332"/>
      <point x="402" y="411"/>
      <point x="402" y="510" type="curve" smooth="yes"/>
      <point x="402" y="606"/>
      <point x="426" y="685"/>
      <point x="467" y="740" type="curve" smooth="yes"/>
      <point x="508" y="795"/>
      <point x="568" y="825"/>
      <point x="641" y="825" type="curve" smooth="yes"/>
      <point x="702" y="825"/>
      <point x="746" y="812"/>
      <point x="781" y="783" type="curve" smooth="yes"/>
      <point x="816" y="754"/>
      <point x="839" y="706"/>
      <point x="858" y="637" type="curve"/>
      <point x="1102" y="730" type="line"/>
      <point x="1062" y="823"/>
      <point x="1014" y="892"/>
      <point x="955" y="943" type="curve" smooth="yes"/>
      <point x="896" y="994"/>
      <point x="827" y="1025"/>
      <point x="742" y="1041" type="curve"/>
      <point x="742" y="1229" type="line"/>
      <point x="535" y="1229" type="line"/>
      <point x="535" y="1041" type="line"/>
      <point x="422" y="1021"/>
      <point x="325" y="957"/>
      <point x="257" y="865" type="curve" smooth="yes"/>
      <point x="188" y="773"/>
      <point x="147" y="653"/>
      <point x="147" y="521" type="curve" smooth="yes"/>
      <point x="147" y="377"/>
      <point x="185" y="251"/>
      <point x="253" y="156" type="curve" smooth="yes"/>
      <point x="321" y="61"/>
      <point x="418" y="-3"/>
      <point x="535" y="-23" type="curve"/>
      <point x="535" y="-210" type="line"/>
    </contour>
  </outline>
</glyph>
<glyph name="sterling" format="2">
  <advance width="1229"/>
  <unicode hex="00A3"/>
  <outline>
    <contour>
      <point x="139" y="0" type="line"/>
      <point x="1212" y="0" type="line"/>
      <point x="1212" y="232" type="line"/>
      <point x="504" y="232" type="line"/>
      <point x="531" y="261"/>
      <point x="574" y="324"/>
      <point x="604" y="388"/>
      <point x="621" y="449"/>
      <point x="621" y="475" type="qcurve" smooth="yes"/>
      <point x="621" y="509"/>
      <point x="606" y="577"/>
      <point x="597" y="608" type="qcurve"/>
      <point x="1046" y="608" type="line"/>
      <point x="1046" y="841" type="line"/>
      <point x="557" y="841" type="line"/>
      <point x="546" y="877"/>
      <point x="530" y="942"/>
      <point x="520" y="999"/>
      <point x="515" y="1045"/>
      <point x="515" y="1062" type="qcurve" smooth="yes"/>
      <point x="515" y="1114"/>
      <point x="545" y="1186"/>
      <point x="602" y="1231"/>
      <point x="683" y="1251"/>
      <point x="734" y="1251" type="qcurve" smooth="yes"/>
      <point x="770" y="1251"/>
      <point x="834" y="1228"/>
      <point x="888" y="1183"/>
      <point x="930" y="1120"/>
      <point x="944" y="1079" type="qcurve"/>
      <point x="1160" y="1158" type="line"/>
      <point x="1136" y="1226"/>
      <point x="1057" y="1345"/>
      <point x="948" y="1434"/>
      <point x="813" y="1485"/>
      <point x="734" y="1485" type="qcurve" smooth="yes"/>
      <point x="624" y="1485"/>
      <point x="455" y="1418"/>
      <point x="340" y="1305"/>
      <point x="281" y="1156"/>
      <point x="281" y="1075" type="qcurve" smooth="yes"/>
      <point x="281" y="1047"/>
      <point x="286" y="987"/>
      <point x="295" y="927"/>
      <point x="308" y="868"/>
      <point x="316" y="841" type="qcurve"/>
      <point x="143" y="841" type="line"/>
      <point x="143" y="608" type="line"/>
      <point x="372" y="608" type="line"/>
      <point x="381" y="577"/>
      <point x="392" y="513"/>
      <point x="392" y="481" type="qcurve" smooth="yes"/>
      <point x="392" y="446"/>
      <point x="353" y="374"/>
      <point x="286" y="310"/>
      <point x="193" y="257"/>
      <point x="139" y="241" type="qcurve"/>
    </contour>
  </outline>
</glyph>
<glyph name="currency" format="2">
  <advance width="1229"/>
  <unicode hex="00A4"/>
  <outline>
    <contour>
      <point x="122" y="643" type="qcurve" smooth="yes"/>
      <point x="122" y="572"/>
      <point x="161" y="441"/>
      <point x="201" y="378" type="qcurve"/>
      <point x="91" y="270" type="line"/>
      <point x="237" y="122" type="line"/>
      <point x="346" y="232" type="line"/>
      <point x="409" y="191"/>
      <point x="542" y="152"/>
      <point x="614" y="152" type="qcurve" smooth="yes"/>
      <point x="683" y="152"/>
      <point x="816" y="191"/>
      <point x="882" y="232" type="qcurve"/>
      <point x="994" y="120" type="line"/>
      <point x="1139" y="270" type="line"/>
      <point x="1028" y="376" type="line"/>
      <point x="1069" y="438"/>
      <point x="1110" y="572"/>
      <point x="1110" y="646" type="qcurve" smooth="yes"/>
      <point x="1110" y="715"/>
      <point x="1070" y="854"/>
      <point x="1028" y="915" type="qcurve"/>
      <point x="1139" y="1023" type="line"/>
      <point x="992" y="1166" type="line"/>
      <point x="882" y="1060" type="line"/>
      <point x="821" y="1099"/>
      <point x="691" y="1139"/>
      <point x="619" y="1139" type="qcurve" smooth="yes"/>
      <point x="550" y="1139"/>
      <point x="410" y="1100"/>
      <point x="348" y="1058" type="qcurve"/>
      <point x="237" y="1168" type="line"/>
      <point x="93" y="1019" type="line"/>
      <point x="201" y="913" type="line"/>
      <point x="161" y="848"/>
      <point x="122" y="714"/>
    </contour>
    <contour>
      <point x="325" y="642" type="qcurve" smooth="yes"/>
      <point x="325" y="703"/>
      <point x="370" y="810"/>
      <point x="449" y="889"/>
      <point x="555" y="934"/>
      <point x="615" y="934" type="qcurve" smooth="yes"/>
      <point x="675" y="934"/>
      <point x="780" y="890"/>
      <point x="858" y="813"/>
      <point x="904" y="709"/>
      <point x="904" y="649" type="qcurve" smooth="yes"/>
      <point x="904" y="589"/>
      <point x="858" y="482"/>
      <point x="779" y="401"/>
      <point x="674" y="354"/>
      <point x="614" y="354" type="qcurve" smooth="yes"/>
      <point x="555" y="354"/>
      <point x="450" y="400"/>
      <point x="371" y="479"/>
      <point x="325" y="584"/>
    </contour>
  </outline>
</glyph>
<glyph name="yen" format="2">
  <advance width="1360"/>
  <unicode hex="00A5"/>
  <outline>
    <contour>
      <point x="798" y="0" type="line" name=".av03"/>
      <point x="798" y="167" type="line"/>
      <point x="1103" y="167" type="line"/>
      <point x="1103" y="377" type="line"/>
      <point x="798" y="377" type="line"/>
      <point x="798" y="497" type="line" name=".dh02"/>
      <point x="1103" y="497" type="line"/>
      <point x="1103" y="707" type="line"/>
      <point x="895" y="707" type="line" name=".iv01"/>
      <point x="1379" y="1447" type="line" name=".av01"/>
      <point x="1097" y="1447" type="line"/>
      <point x="680" y="770" type="line" name=".iv02"/>
      <point x="263" y="1447" type="line" name=".av02"/>
      <point x="-19" y="1447" type="line"/>
      <point x="464" y="710" type="line" name=".iv03"/>
      <point x="256" y="710" type="line"/>
      <point x="256" y="497" type="line"/>
      <point x="562" y="497" type="line" name=".dh01"/>
      <point x="562" y="377" type="line"/>
      <point x="256" y="377" type="line"/>
      <point x="256" y="167" type="line"/>
      <point x="562" y="167" type="line" name=".sh01"/>
      <point x="562" y="0" type="line"/>
    </contour>
  </outline>
</glyph>
<glyph name="brokenbar" format="2">
  <advance width="667"/>
  <unicode hex="00A6"/>
  <outline>
    <contour>
      <point x="450.56" y="748.544" type="line"/>
      <point x="450.56" y="1510.4" type="line" name=".av01"/>
      <point x="215.04" y="1510.4" type="line" name=".dh01"/>
      <point x="215.04" y="748.544" type="line"/>
    </contour>
    <contour>
      <point x="450.56" y="-314.368" type="line" name=".av02"/>
      <point x="450.56" y="430.08" type="line"/>
      <point x="215.04" y="430.08" type="line" name=".sh01"/>
      <point x="215.04" y="-314.368" type="line"/>
    </contour>
  </outline>
</glyph>
<glyph name="section" format="2">
  <advance width="1106"/>
  <unicode hex="00A7"/>
  <outline>
    <contour>
      <point x="103" y="237" type="line"/>
      <point x="127" y="161"/>
      <point x="184" y="97"/>
      <point x="261" y="53" type="curve" smooth="yes"/>
      <point x="337" y="8"/>
      <point x="435" y="-18"/>
      <point x="543" y="-18" type="curve" smooth="yes"/>
      <point x="674" y="-18"/>
      <point x="786" y="15"/>
      <point x="866" y="71" type="curve" smooth="yes"/>
      <point x="946" y="127"/>
      <point x="994" y="205"/>
      <point x="994" y="297" type="curve" smooth="yes"/>
      <point x="994" y="389"/>
      <point x="942" y="467"/>
      <point x="846" y="519" type="curve"/>
      <point x="846" y="472" type="line"/>
      <point x="938" y="535"/>
      <point x="978" y="606"/>
      <point x="978" y="705" type="curve" smooth="yes"/>
      <point x="978" y="785"/>
      <point x="956" y="843"/>
      <point x="904" y="889" type="curve" smooth="yes"/>
      <point x="852" y="935"/>
      <point x="771" y="969"/>
      <point x="654" y="1000" type="curve" smooth="yes"/>
      <point x="429" y="1059" type="line"/>
      <point x="412" y="1064"/>
      <point x="395" y="1075"/>
      <point x="384" y="1091" type="curve"/>
      <point x="372" y="1106"/>
      <point x="365" y="1126"/>
      <point x="365" y="1147" type="curve" smooth="yes"/>
      <point x="365" y="1179"/>
      <point x="383" y="1206"/>
      <point x="414" y="1226" type="curve" smooth="yes"/>
      <point x="445" y="1245"/>
      <point x="488" y="1255"/>
      <point x="536" y="1255" type="curve" smooth="yes"/>
      <point x="582" y="1255"/>
      <point x="622" y="1246"/>
      <point x="656" y="1229" type="curve"/>
      <point x="689" y="1211"/>
      <point x="716" y="1189"/>
      <point x="735" y="1164" type="curve"/>
      <point x="938" y="1291" type="line"/>
      <point x="909" y="1342"/>
      <point x="852" y="1385"/>
      <point x="782" y="1417" type="curve" smooth="yes"/>
      <point x="712" y="1449"/>
      <point x="629" y="1468"/>
      <point x="546" y="1468" type="curve" smooth="yes"/>
      <point x="423" y="1468"/>
      <point x="321" y="1436"/>
      <point x="249" y="1380" type="curve" smooth="yes"/>
      <point x="177" y="1324"/>
      <point x="135" y="1244"/>
      <point x="135" y="1149" type="curve" smooth="yes"/>
      <point x="135" y="1105"/>
      <point x="147" y="1064"/>
      <point x="169" y="1028" type="curve" smooth="yes"/>
      <point x="191" y="991"/>
      <point x="224" y="958"/>
      <point x="265" y="931" type="curve"/>
      <point x="265" y="978" type="line"/>
      <point x="220" y="946"/>
      <point x="186" y="912"/>
      <point x="165" y="873" type="curve" smooth="yes"/>
      <point x="144" y="834"/>
      <point x="133" y="792"/>
      <point x="133" y="744" type="curve" smooth="yes"/>
      <point x="133" y="663"/>
      <point x="155" y="604"/>
      <point x="213" y="557" type="curve" smooth="yes"/>
      <point x="271" y="510"/>
      <point x="365" y="475"/>
      <point x="509" y="442" type="curve" smooth="yes"/>
      <point x="600" y="421" type="line" smooth="yes"/>
      <point x="649" y="410"/>
      <point x="685" y="395"/>
      <point x="709" y="375" type="curve" smooth="yes"/>
      <point x="733" y="354"/>
      <point x="745" y="330"/>
      <point x="745" y="302" type="curve" smooth="yes"/>
      <point x="745" y="239"/>
      <point x="678" y="203"/>
      <point x="565" y="203" type="curve" smooth="yes"/>
      <point x="508" y="203"/>
      <point x="453" y="218"/>
      <point x="409" y="243" type="curve" smooth="yes"/>
      <point x="365" y="267"/>
      <point x="331" y="303"/>
      <point x="315" y="346" type="curve"/>
    </contour>
    <contour>
      <point x="365" y="754" type="curve" smooth="yes"/>
      <point x="365" y="813"/>
      <point x="410" y="864"/>
      <point x="474" y="880" type="curve"/>
      <point x="406" y="885" type="line"/>
      <point x="426" y="873"/>
      <point x="445" y="865"/>
      <point x="461" y="861" type="curve" smooth="yes"/>
      <point x="490" y="854" type="line" smooth="yes"/>
      <point x="587" y="830"/>
      <point x="651" y="809"/>
      <point x="691" y="785" type="curve"/>
      <point x="730" y="760"/>
      <point x="745" y="733"/>
      <point x="745" y="694" type="curve" smooth="yes"/>
      <point x="745" y="638"/>
      <point x="703" y="599"/>
      <point x="635" y="588" type="curve"/>
      <point x="689" y="588" type="line"/>
      <point x="678" y="593"/>
      <point x="652" y="601"/>
      <point x="615" y="608" type="curve" smooth="yes"/>
      <point x="556" y="620" type="line" smooth="yes"/>
      <point x="500" y="632"/>
      <point x="453" y="651"/>
      <point x="419" y="675" type="curve" smooth="yes"/>
      <point x="385" y="699"/>
      <point x="365" y="726"/>
    </contour>
  </outline>
</glyph>
<glyph name="dieresis" format="2">
  <advance width="670"/>
  <unicode hex="00A8"/>
  <outline>
    <contour>
      <point x="40" y="1230" type="line"/>
      <point x="260" y="1230" type="line"/>
      <point x="260" y="1470" type="line"/>
      <point x="40" y="1470" type="line"/>
    </contour>
    <contour>
      <point x="410" y="1230" type="line"/>
      <point x="630" y="1230" type="line"/>
      <point x="630" y="1470" type="line"/>
      <point x="410" y="1470" type="line"/>
    </contour>
  </outline>
</glyph>
<glyph name="copyright" format="2">
  <advance width="1776"/>
  <unicode hex="00A9"/>
  <outline>
    <contour>
      <point x="889" y="-50" type="curve" smooth="yes"/>
      <point x="1320" y="-50"/>
      <point x="1708" y="280"/>
      <point x="1708" y="724" type="curve" smooth="yes"/>
      <point x="1708" y="1171"/>
      <point x="1320" y="1496"/>
      <point x="889" y="1496" type="curve" smooth="yes"/>
      <point x="460" y="1496"/>
      <point x="68" y="1172"/>
      <point x="68" y="724" type="curve" smooth="yes"/>
      <point x="68" y="281"/>
      <point x="461" y="-50"/>
    </contour>
    <contour>
      <point x="889" y="171" type="curve" smooth="yes"/>
      <point x="584" y="171"/>
      <point x="292" y="408"/>
      <point x="292" y="724" type="curve" smooth="yes"/>
      <point x="292" y="1041"/>
      <point x="585" y="1276"/>
      <point x="889" y="1276" type="curve" smooth="yes"/>
      <point x="1193" y="1276"/>
      <point x="1487" y="1040"/>
      <point x="1487" y="724" type="curve" smooth="yes"/>
      <point x="1487" y="407"/>
      <point x="1194" y="171"/>
    </contour>
    <contour>
      <point x="897" y="256" type="curve" smooth="yes"/>
      <point x="1099" y="256"/>
      <point x="1210" y="363"/>
      <point x="1287" y="530" type="curve"/>
      <point x="1081" y="616" type="line"/>
      <point x="1038" y="526"/>
      <point x="1010" y="482"/>
      <point x="904" y="482" type="curve" smooth="yes"/>
      <point x="774" y="482"/>
      <point x="713" y="569"/>
      <point x="713" y="722" type="curve" smooth="yes"/>
      <point x="713" y="870"/>
      <point x="778" y="963"/>
      <point x="906" y="963" type="curve" smooth="yes"/>
      <point x="1001" y="963"/>
      <point x="1039" y="926"/>
      <point x="1083" y="827" type="curve"/>
      <point x="1287" y="914" type="line"/>
      <point x="1204" y="1099"/>
      <point x="1096" y="1187"/>
      <point x="906" y="1187" type="curve" smooth="yes"/>
      <point x="643" y="1187"/>
      <point x="494" y="963"/>
      <point x="494" y="735" type="curve" smooth="yes"/>
      <point x="494" y="492"/>
      <point x="623" y="256"/>
    </contour>
  </outline>
</glyph>
<glyph name="ordfeminine" format="2">
  <advance width="736"/>
  <unicode hex="00AA"/>
  <anchor x="663" y="742" name="ogonek"/>
  <anchor x="359" y="1540" name="top"/>
  <anchor x="359" y="1690" name="center"/>
  <anchor x="359" y="641" name="bottom"/>
  <outline>
    <contour>
      <point x="283" y="729" type="curve" smooth="yes"/>
      <point x="375" y="729"/>
      <point x="439" y="753"/>
      <point x="495" y="829" type="curve" name=".iv01"/>
      <point x="509" y="742" type="line"/>
      <point x="687" y="742" type="line"/>
      <point x="673" y="785"/>
      <point x="663" y="855"/>
      <point x="663" y="895" type="curve" smooth="yes"/>
      <point x="663" y="1156" type="line" smooth="yes" name=".sh01"/>
      <point x="663" y="1356"/>
      <point x="545" y="1468"/>
      <point x="356" y="1468" type="curve" smooth="yes" name=".dv04"/>
      <point x="226" y="1468"/>
      <point x="131" y="1414"/>
      <point x="60" y="1316" type="curve"/>
      <point x="205" y="1212" type="line" name=".sh04"/>
      <point x="237" y="1269"/>
      <point x="289" y="1305"/>
      <point x="358" y="1305" type="curve" smooth="yes" name=".dv03"/>
      <point x="437" y="1305"/>
      <point x="482" y="1259"/>
      <point x="482" y="1156" type="curve" name=".dv06"/>
      <point x="297" y="1156" type="line" smooth="yes"/>
      <point x="164" y="1156"/>
      <point x="23" y="1113"/>
      <point x="23" y="954" type="curve" smooth="yes" name=".sh02"/>
      <point x="23" y="810"/>
      <point x="152" y="729"/>
    </contour>
    <contour>
      <point x="318" y="887" type="curve" smooth="yes" name=".dv02"/>
      <point x="257" y="887"/>
      <point x="215" y="914"/>
      <point x="215" y="952" type="curve" smooth="yes" name=".sh03"/>
      <point x="215" y="1008"/>
      <point x="283" y="1022"/>
      <point x="327" y="1022" type="curve" smooth="yes" name=".sv01"/>
      <point x="482" y="1022" type="line" name=".dv05"/>
      <point x="482" y="942"/>
      <point x="389" y="887"/>
    </contour>
  </outline>
</glyph>
<glyph name="guillemotleft" format="2">
  <advance width="974"/>
  <unicode hex="00AB"/>
  <outline>
    <contour>
      <point x="458" y="151" type="line" name=".av03"/>
      <point x="458" y="382" type="line"/>
      <point x="279" y="521" type="line"/>
      <point x="458" y="665" type="line"/>
      <point x="458" y="896" type="line" name=".av01"/>
      <point x="1" y="521" type="line"/>
    </contour>
    <contour>
      <point x="829" y="151" type="line" name=".av04"/>
      <point x="829" y="382" type="line"/>
      <point x="650" y="521" type="line"/>
      <point x="829" y="665" type="line"/>
      <point x="829" y="896" type="line" name=".av02"/>
      <point x="373" y="521" type="line"/>
    </contour>
  </outline>
</glyph>
<glyph name="logicalnot" format="2">
  <advance width="1336"/>
  <unicode hex="00AC"/>
  <outline>
    <contour>
      <point x="1125.38" y="297.984" type="line" name=".dv01"/>
      <point x="1125.38" y="816.128" type="line" name=".dv02"/>
      <point x="132.096" y="816.128" type="line"/>
      <point x="132.096" y="567.296" type="line" name=".sv01"/>
      <point x="857.088" y="567.296" type="line" name=".dh01"/>
      <point x="857.088" y="297.984" type="line"/>
    </contour>
  </outline>
</glyph>
<glyph name="softhyphen" format="2">
  <advance width="1044"/>
  <unicode hex="00AD"/>
  <outline>
    <contour>
      <point x="905" y="498" type="line"/>
      <point x="905" y="709" type="line"/>
      <point x="138" y="709" type="line"/>
      <point x="138" y="498" type="line"/>
    </contour>
  </outline>
</glyph>
<glyph name="registered" format="2">
  <advance width="1777"/>
  <unicode hex="00AE"/>
  <outline>
    <contour>
      <point x="889" y="-48" type="curve" smooth="yes"/>
      <point x="961" y="-48"/>
      <point x="1031" y="-39"/>
      <point x="1100" y="-22" type="curve" smooth="yes"/>
      <point x="1236" y="14"/>
      <point x="1358" y="80"/>
      <point x="1459" y="173" type="curve" smooth="yes"/>
      <point x="1510" y="219"/>
      <point x="1553" y="271"/>
      <point x="1590" y="328" type="curve" smooth="yes"/>
      <point x="1663" y="443"/>
      <point x="1706" y="578"/>
      <point x="1706" y="726" type="curve" smooth="yes"/>
      <point x="1706" y="800"/>
      <point x="1696" y="871"/>
      <point x="1676" y="938" type="curve" smooth="yes"/>
      <point x="1635" y="1072"/>
      <point x="1560" y="1187"/>
      <point x="1460" y="1279" type="curve" smooth="yes"/>
      <point x="1409" y="1325"/>
      <point x="1354" y="1364"/>
      <point x="1293" y="1397" type="curve" smooth="yes"/>
      <point x="1172" y="1461"/>
      <point x="1033" y="1498"/>
      <point x="889" y="1498" type="curve" smooth="yes"/>
      <point x="818" y="1498"/>
      <point x="748" y="1489"/>
      <point x="680" y="1472" type="curve" smooth="yes"/>
      <point x="543" y="1437"/>
      <point x="420" y="1372"/>
      <point x="319" y="1280" type="curve" smooth="yes"/>
      <point x="268" y="1234"/>
      <point x="225" y="1182"/>
      <point x="188" y="1125" type="curve" smooth="yes"/>
      <point x="115" y="1010"/>
      <point x="71" y="875"/>
      <point x="71" y="726" type="curve" smooth="yes"/>
      <point x="71" y="653"/>
      <point x="81" y="583"/>
      <point x="102" y="516" type="curve" smooth="yes"/>
      <point x="143" y="382"/>
      <point x="218" y="266"/>
      <point x="319" y="174" type="curve" smooth="yes"/>
      <point x="370" y="127"/>
      <point x="425" y="88"/>
      <point x="486" y="55" type="curve" smooth="yes"/>
      <point x="607" y="-12"/>
      <point x="746" y="-48"/>
    </contour>
    <contour>
      <point x="889" y="152" type="curve" smooth="yes"/>
      <point x="811" y="152"/>
      <point x="735" y="167"/>
      <point x="662" y="196" type="curve" smooth="yes"/>
      <point x="589" y="225"/>
      <point x="524" y="266"/>
      <point x="467" y="317" type="curve" smooth="yes"/>
      <point x="410" y="368"/>
      <point x="364" y="429"/>
      <point x="330" y="499" type="curve" smooth="yes"/>
      <point x="295" y="569"/>
      <point x="278" y="645"/>
      <point x="278" y="726" type="curve" smooth="yes"/>
      <point x="278" y="889"/>
      <point x="353" y="1031"/>
      <point x="467" y="1134" type="curve" smooth="yes"/>
      <point x="524" y="1185"/>
      <point x="589" y="1226"/>
      <point x="662" y="1255" type="curve" smooth="yes"/>
      <point x="735" y="1284"/>
      <point x="811" y="1298"/>
      <point x="889" y="1298" type="curve" smooth="yes"/>
      <point x="1045" y="1298"/>
      <point x="1199" y="1238"/>
      <point x="1312" y="1136" type="curve" smooth="yes"/>
      <point x="1425" y="1034"/>
      <point x="1500" y="890"/>
      <point x="1500" y="726" type="curve" smooth="yes"/>
      <point x="1500" y="645"/>
      <point x="1483" y="569"/>
      <point x="1449" y="499" type="curve" smooth="yes"/>
      <point x="1414" y="429"/>
      <point x="1369" y="368"/>
      <point x="1312" y="317" type="curve" smooth="yes"/>
      <point x="1198" y="214"/>
      <point x="1045" y="152"/>
    </contour>
    <contour>
      <point x="608" y="331" type="line"/>
      <point x="817" y="331" type="line"/>
      <point x="817" y="648" type="line"/>
      <point x="896" y="648" type="line"/>
      <point x="1071" y="331" type="line"/>
      <point x="1309" y="331" type="line"/>
      <point x="1106" y="680" type="line"/>
      <point x="1197" y="727"/>
      <point x="1242" y="807"/>
      <point x="1242" y="919" type="curve" smooth="yes"/>
      <point x="1242" y="998"/>
      <point x="1218" y="1064"/>
      <point x="1169" y="1111" type="curve" smooth="yes"/>
      <point x="1120" y="1158"/>
      <point x="1045" y="1185"/>
      <point x="944" y="1185" type="curve" smooth="yes"/>
      <point x="608" y="1185" type="line"/>
    </contour>
    <contour>
      <point x="944" y="847" type="curve" smooth="yes"/>
      <point x="807" y="847" type="line"/>
      <point x="807" y="987" type="line"/>
      <point x="944" y="987" type="line" smooth="yes"/>
      <point x="973" y="987"/>
      <point x="999" y="985"/>
      <point x="1016" y="976" type="curve" smooth="yes"/>
      <point x="1033" y="967"/>
      <point x="1044" y="950"/>
      <point x="1044" y="919" type="curve" smooth="yes"/>
      <point x="1044" y="886"/>
      <point x="1033" y="867"/>
      <point x="1016" y="858" type="curve" smooth="yes"/>
      <point x="999" y="849"/>
      <point x="973" y="847"/>
    </contour>
  </outline>
</glyph>
<glyph name="macron" format="2">
  <advance width="760"/>
  <unicode hex="00AF"/>
  <outline>
    <contour>
      <point x="40" y="1248" type="line"/>
      <point x="720" y="1248" type="line" name=".dv00"/>
      <point x="720" y="1468" type="line" name=".dv07"/>
      <point x="40" y="1468" type="line"/>
    </contour>
  </outline>
</glyph>
<glyph name="degree" format="2">
  <advance width="874"/>
  <unicode hex="00B0"/>
  <outline>
    <contour>
      <point x="439.808" y="867.352" type="curve" smooth="yes" name=".dv01"/>
      <point x="617" y="867.352"/>
      <point x="740.28" y="987.376"/>
      <point x="740.28" y="1167.97" type="curve" smooth="yes"/>
      <point x="740.28" y="1339.08"/>
      <point x="611.468" y="1468.42"/>
      <point x="439.808" y="1468.42" type="curve" smooth="yes" name=".dv04"/>
      <point x="263.218" y="1468.42"/>
      <point x="139.192" y="1340.68"/>
      <point x="139.192" y="1167.97" type="curve" smooth="yes"/>
      <point x="139.192" y="983.889"/>
      <point x="255.729" y="867.352"/>
    </contour>
    <contour>
      <point x="439.808" y="1057.82" type="curve" smooth="yes" name=".dv02"/>
      <point x="374.95" y="1057.92"/>
      <point x="329.656" y="1103.21"/>
      <point x="329.656" y="1167.97" type="curve" smooth="yes"/>
      <point x="329.656" y="1229.91"/>
      <point x="377.769" y="1277.95"/>
      <point x="439.808" y="1277.95" type="curve" smooth="yes" name=".dv03"/>
      <point x="500.372" y="1277.95"/>
      <point x="549.804" y="1228.55"/>
      <point x="549.864" y="1167.97" type="curve" smooth="yes" name=".dh01"/>
      <point x="549.929" y="1102.7"/>
      <point x="504.986" y="1057.71"/>
    </contour>
  </outline>
  <guideline angle="90" x="440" y="0"/>
  <guideline angle="0" x="0" y="1168"/>
</glyph>
<glyph name="plusminus" format="2">
  <advance width="1367"/>
  <unicode hex="00B1"/>
  <outline>
    <contour>
      <point x="794" y="109" type="line"/>
      <point x="794" y="529" type="line"/>
      <point x="1259" y="529" type="line"/>
      <point x="1259" y="748" type="line"/>
      <point x="794" y="748" type="line"/>
      <point x="794" y="1170" type="line"/>
      <point x="576" y="1170" type="line"/>
      <point x="576" y="748" type="line"/>
      <point x="109" y="748" type="line"/>
      <point x="109" y="529" type="line"/>
      <point x="576" y="529" type="line"/>
      <point x="576" y="109" type="line"/>
    </contour>
    <contour>
      <point x="1256" y="-217" type="line"/>
      <point x="1256" y="0" type="line"/>
      <point x="111" y="0" type="line"/>
      <point x="111" y="-217" type="line"/>
    </contour>
  </outline>
</glyph>
<glyph name="twosuperior" format="2">
  <advance width="897"/>
  <unicode hex="00B2"/>
  <outline>
    <contour>
      <point x="61" y="932" type="line"/>
      <point x="836" y="932" type="line"/>
      <point x="836" y="1136" type="line"/>
      <point x="447" y="1136" type="line"/>
      <point x="525" y="1180"/>
      <point x="652" y="1292"/>
      <point x="741" y="1418"/>
      <point x="789" y="1553"/>
      <point x="789" y="1621" type="qcurve" smooth="yes"/>
      <point x="789" y="1678"/>
      <point x="742" y="1779"/>
      <point x="655" y="1856"/>
      <point x="532" y="1900"/>
      <point x="457" y="1900" type="qcurve" smooth="yes"/>
      <point x="380" y="1900"/>
      <point x="249" y="1846"/>
      <point x="153" y="1749"/>
      <point x="99" y="1617"/>
      <point x="99" y="1539" type="qcurve"/>
      <point x="339" y="1529" type="line"/>
      <point x="340" y="1561"/>
      <point x="354" y="1617"/>
      <point x="381" y="1659"/>
      <point x="424" y="1684"/>
      <point x="454" y="1684" type="qcurve" smooth="yes"/>
      <point x="500" y="1684"/>
      <point x="543" y="1622"/>
      <point x="543" y="1576" type="qcurve" smooth="yes"/>
      <point x="543" y="1531"/>
      <point x="508" y="1436"/>
      <point x="445" y="1344"/>
      <point x="356" y="1258"/>
      <point x="249" y="1186"/>
      <point x="126" y="1130"/>
      <point x="61" y="1114" type="qcurve"/>
    </contour>
  </outline>
</glyph>
<glyph name="threesuperior" format="2">
  <advance width="983"/>
  <unicode hex="00B3"/>
  <outline>
    <contour>
      <point x="475" y="886" type="curve" smooth="yes"/>
      <point x="572" y="886"/>
      <point x="672" y="909"/>
      <point x="746" y="959" type="curve" smooth="yes"/>
      <point x="820" y="1009"/>
      <point x="870" y="1086"/>
      <point x="870" y="1194" type="curve" smooth="yes"/>
      <point x="870" y="1315"/>
      <point x="806" y="1400"/>
      <point x="685" y="1451" type="curve"/>
      <point x="689" y="1415" type="line"/>
      <point x="772" y="1471"/>
      <point x="812" y="1541"/>
      <point x="812" y="1632" type="curve" smooth="yes"/>
      <point x="812" y="1723"/>
      <point x="767" y="1790"/>
      <point x="701" y="1834" type="curve" smooth="yes"/>
      <point x="635" y="1878"/>
      <point x="550" y="1900"/>
      <point x="470" y="1900" type="curve" smooth="yes"/>
      <point x="379" y="1900"/>
      <point x="294" y="1874"/>
      <point x="231" y="1823" type="curve" smooth="yes"/>
      <point x="168" y="1772"/>
      <point x="129" y="1699"/>
      <point x="129" y="1603" type="curve"/>
      <point x="342" y="1593" type="line"/>
      <point x="343" y="1633"/>
      <point x="357" y="1665"/>
      <point x="381" y="1686" type="curve" smooth="yes"/>
      <point x="404" y="1707"/>
      <point x="436" y="1718"/>
      <point x="473" y="1718" type="curve" smooth="yes"/>
      <point x="502" y="1718"/>
      <point x="532" y="1712"/>
      <point x="556" y="1694" type="curve" smooth="yes"/>
      <point x="579" y="1676"/>
      <point x="595" y="1649"/>
      <point x="595" y="1606" type="curve" smooth="yes"/>
      <point x="595" y="1549"/>
      <point x="550" y="1505"/>
      <point x="463" y="1505" type="curve" smooth="yes"/>
      <point x="381" y="1505" type="line"/>
      <point x="381" y="1340" type="line"/>
      <point x="496" y="1340" type="line" smooth="yes"/>
      <point x="585" y="1340"/>
      <point x="639" y="1291"/>
      <point x="639" y="1208" type="curve" smooth="yes"/>
      <point x="639" y="1161"/>
      <point x="621" y="1126"/>
      <point x="591" y="1102" type="curve" smooth="yes"/>
      <point x="561" y="1078"/>
      <point x="520" y="1066"/>
      <point x="476" y="1066" type="curve" smooth="yes"/>
      <point x="437" y="1066"/>
      <point x="395" y="1077"/>
      <point x="363" y="1102" type="curve" smooth="yes"/>
      <point x="330" y="1127"/>
      <point x="307" y="1167"/>
      <point x="307" y="1224" type="curve"/>
      <point x="76" y="1215" type="line"/>
      <point x="76" y="1100"/>
      <point x="125" y="1019"/>
      <point x="200" y="965" type="curve" smooth="yes"/>
      <point x="275" y="911"/>
      <point x="374" y="886"/>
    </contour>
  </outline>
</glyph>
<glyph name="acute" format="2">
  <advance width="555"/>
  <unicode hex="00B4"/>
  <outline>
    <contour>
      <point x="210" y="1192" type="line"/>
      <point x="546" y="1508" type="line"/>
      <point x="253" y="1508" type="line"/>
      <point x="17" y="1192" type="line"/>
    </contour>
  </outline>
</glyph>
<glyph name="micro" format="2">
  <advance width="1189"/>
  <unicode hex="00B5"/>
  <outline>
    <contour>
      <point x="522" y="-19" type="curve" smooth="yes"/>
      <point x="571" y="-19"/>
      <point x="615" y="-10"/>
      <point x="655" y="10" type="curve" smooth="yes"/>
      <point x="695" y="30"/>
      <point x="732" y="61"/>
      <point x="769" y="105" type="curve"/>
      <point x="769" y="0" type="line"/>
      <point x="1048" y="0" type="line"/>
      <point x="1048" y="1064" type="line"/>
      <point x="769" y="1064" type="line"/>
      <point x="769" y="534" type="line" smooth="yes"/>
      <point x="769" y="441"/>
      <point x="751" y="368"/>
      <point x="716" y="319" type="curve" smooth="yes"/>
      <point x="680" y="270"/>
      <point x="627" y="245"/>
      <point x="559" y="245" type="curve" smooth="yes"/>
      <point x="502" y="245"/>
      <point x="459" y="261"/>
      <point x="431" y="293" type="curve" smooth="yes"/>
      <point x="402" y="325"/>
      <point x="387" y="372"/>
      <point x="387" y="435" type="curve" smooth="yes"/>
      <point x="387" y="1064" type="line"/>
      <point x="109" y="1064" type="line"/>
      <point x="109" y="-272" type="line"/>
      <point x="333" y="-272" type="line"/>
      <point x="361" y="166" type="line"/>
      <point x="231" y="166" type="line"/>
      <point x="251" y="110"/>
      <point x="291" y="64"/>
      <point x="342" y="32" type="curve" smooth="yes"/>
      <point x="393" y="0"/>
      <point x="455" y="-19"/>
    </contour>
  </outline>
</glyph>
<glyph name="uni00B5" format="2">
  <advance width="1187"/>
  <unicode hex="00B5"/>
  <outline>
    <contour>
      <point x="521" y="-19" type="curve" smooth="yes" name=".dv01"/>
      <point x="620" y="-19"/>
      <point x="694" y="18"/>
      <point x="768" y="105" type="curve" name=".iv01"/>
      <point x="768" y="0" type="line" name=".ah01"/>
      <point x="1047" y="0" type="line" name=".sh01"/>
      <point x="1047" y="1064" type="line" name=".av01"/>
      <point x="768" y="1064" type="line" name=".sh02"/>
      <point x="768" y="534" type="line" smooth="yes"/>
      <point x="768" y="346"/>
      <point x="695" y="245"/>
      <point x="558" y="245" type="curve" smooth="yes" name=".dv02"/>
      <point x="444" y="245"/>
      <point x="386" y="309"/>
      <point x="386" y="435" type="curve" smooth="yes"/>
      <point x="386" y="1064" type="line" name=".av02"/>
      <point x="108" y="1064" type="line" name=".sh03"/>
      <point x="108" y="-272" type="line"/>
      <point x="332" y="-272" type="line"/>
      <point x="360" y="166" type="line"/>
      <point x="230" y="166" type="line"/>
      <point x="271" y="55"/>
      <point x="388" y="-19"/>
    </contour>
  </outline>
</glyph>
<glyph name="paragraph" format="2">
  <advance width="1270"/>
  <unicode hex="00B6"/>
  <outline>
    <contour>
      <point x="698" y="-252" type="line" name=".av03"/>
      <point x="698" y="1448" type="line" name=".av01"/>
      <point x="503" y="1448" type="line" smooth="yes"/>
      <point x="277" y="1448"/>
      <point x="50" y="1295"/>
      <point x="50" y="1050" type="curve" smooth="yes"/>
      <point x="50" y="807"/>
      <point x="288" y="638"/>
      <point x="513" y="638" type="curve" name=".sh01"/>
      <point x="513" y="-252" type="line"/>
    </contour>
    <contour>
      <point x="1054" y="-252" type="line" name=".av04"/>
      <point x="1054" y="1448" type="line" name=".av02"/>
      <point x="865" y="1448" type="line" name=".ah01"/>
      <point x="865" y="-252" type="line"/>
    </contour>
  </outline>
</glyph>
<glyph name="periodcentered" format="2">
  <advance width="623"/>
  <unicode hex="00B7"/>
  <outline>
    <contour>
      <point x="310.272" y="651.264" type="curve" name=".dv00"/>
      <point x="356.352" y="651.264"/>
      <point x="394.24" y="667.648"/>
      <point x="425.984" y="701.44" type="curve" smooth="yes"/>
      <point x="456.704" y="734.208"/>
      <point x="473.088" y="772.096"/>
      <point x="472.064" y="813.056" type="curve" name=".dh02"/>
      <point x="472.064" y="858.112"/>
      <point x="455.68" y="896"/>
      <point x="423.936" y="925.696" type="curve" smooth="yes"/>
      <point x="391.168" y="955.392"/>
      <point x="354.304" y="970.752"/>
      <point x="310.272" y="970.752" type="curve" smooth="yes" name=".dv03"/>
      <point x="265.216" y="970.752"/>
      <point x="227.328" y="955.392"/>
      <point x="197.632" y="923.648" type="curve" smooth="yes"/>
      <point x="167.936" y="891.904"/>
      <point x="152.576" y="855.04"/>
      <point x="152.576" y="813.056" type="curve" smooth="yes" name=".dh00"/>
      <point x="152.576" y="770.048"/>
      <point x="167.936" y="732.16"/>
      <point x="197.632" y="700.416" type="curve" smooth="yes"/>
      <point x="227.328" y="667.648"/>
      <point x="265.216" y="652.288"/>
    </contour>
  </outline>
</glyph>
<glyph name="cedilla" format="2">
  <advance width="569"/>
  <unicode hex="00B8"/>
  <outline>
    <contour>
      <point x="228" y="0" type="line"/>
      <point x="133" y="-183" type="line"/>
      <point x="157" y="-205" type="line"/>
      <point x="232" y="-205" type="line" smooth="yes"/>
      <point x="258" y="-205"/>
      <point x="299" y="-220"/>
      <point x="327" y="-245"/>
      <point x="342" y="-281"/>
      <point x="342" y="-302" type="qcurve" smooth="yes"/>
      <point x="342" y="-341"/>
      <point x="298" y="-386"/>
      <point x="265" y="-386" type="qcurve" smooth="yes"/>
      <point x="239" y="-386"/>
      <point x="193" y="-358"/>
      <point x="179" y="-333" type="qcurve"/>
      <point x="33" y="-399" type="line"/>
      <point x="48" y="-431"/>
      <point x="96" y="-483"/>
      <point x="156" y="-521"/>
      <point x="224" y="-541"/>
      <point x="259" y="-541" type="qcurve" smooth="yes"/>
      <point x="313" y="-541"/>
      <point x="402" y="-507"/>
      <point x="465" y="-445"/>
      <point x="500" y="-358"/>
      <point x="500" y="-304" type="qcurve" smooth="yes"/>
      <point x="500" y="-266"/>
      <point x="474" y="-198"/>
      <point x="427" y="-143"/>
      <point x="361" y="-105"/>
      <point x="321" y="-97" type="qcurve"/>
      <point x="384" y="0" type="line"/>
    </contour>
  </outline>
</glyph>
<glyph name="onesuperior" format="2">
  <advance width="723"/>
  <unicode hex="00B9"/>
  <outline>
    <contour>
      <point x="553.392" y="935.664" type="line"/>
      <point x="553.392" y="1900.27" type="line"/>
      <point x="346.048" y="1900.27" type="line"/>
      <point x="346.048" y="1874.67" type="line" smooth="yes"/>
      <point x="346.048" y="1806.06"/>
      <point x="305.088" y="1774.32"/>
      <point x="242.624" y="1774.32" type="curve" smooth="yes"/>
      <point x="83.904" y="1774.32" type="line"/>
      <point x="83.904" y="1585.84" type="line"/>
      <point x="338.88" y="1585.84" type="line"/>
      <point x="338.88" y="935.664" type="line"/>
    </contour>
  </outline>
</glyph>
<glyph name="ordmasculine" format="2">
  <advance width="773"/>
  <unicode hex="00BA"/>
  <anchor x="387" y="1540" name="top"/>
  <anchor x="857" y="1455" name="horn"/>
  <anchor x="484" y="742" name="ogonek"/>
  <outline>
    <contour>
      <point x="387" y="729" type="curve" smooth="yes"/>
      <point x="610" y="729"/>
      <point x="746" y="875"/>
      <point x="746" y="1098" type="curve" smooth="yes" name=".sh01"/>
      <point x="746" y="1322"/>
      <point x="602" y="1468"/>
      <point x="387" y="1468" type="curve" smooth="yes" name=".dv04"/>
      <point x="167" y="1468"/>
      <point x="27" y="1322"/>
      <point x="27" y="1098" type="curve" smooth="yes" name=".sh02"/>
      <point x="27" y="875"/>
      <point x="171" y="729"/>
    </contour>
    <contour>
      <point x="387" y="889" type="curve" smooth="yes" name=".dv02"/>
      <point x="266" y="889"/>
      <point x="220" y="992"/>
      <point x="220" y="1098" type="curve" smooth="yes" name=".sh03"/>
      <point x="220" y="1206"/>
      <point x="275" y="1308"/>
      <point x="387" y="1308" type="curve" smooth="yes" name=".dv03"/>
      <point x="505" y="1308"/>
      <point x="553" y="1201"/>
      <point x="553" y="1098" type="curve" smooth="yes" name=".ah01"/>
      <point x="553" y="988"/>
      <point x="504" y="889"/>
    </contour>
  </outline>
</glyph>
<glyph name="guillemotright" format="2">
  <advance width="977"/>
  <unicode hex="00BB"/>
  <outline>
    <contour>
      <point x="141" y="149" type="line"/>
      <point x="603" y="521" type="line"/>
      <point x="141" y="898" type="line"/>
      <point x="141" y="664" type="line"/>
      <point x="322" y="521" type="line"/>
      <point x="141" y="384" type="line"/>
    </contour>
    <contour>
      <point x="513" y="149" type="line"/>
      <point x="974" y="521" type="line"/>
      <point x="513" y="898" type="line"/>
      <point x="513" y="664" type="line"/>
      <point x="691" y="521" type="line"/>
      <point x="513" y="384" type="line"/>
    </contour>
  </outline>
</glyph>
<glyph name="questiondown" format="2">
  <advance width="1014"/>
  <unicode hex="00BF"/>
  <outline>
    <contour>
      <point x="409" y="614" type="line"/>
      <point x="411" y="607"/>
      <point x="426" y="550"/>
      <point x="426" y="524" type="curve" smooth="yes"/>
      <point x="426" y="479"/>
      <point x="382" y="445"/>
      <point x="333" y="414" type="curve" smooth="yes"/>
      <point x="218" y="340" type="line" smooth="yes"/>
      <point x="128" y="282"/>
      <point x="48" y="186"/>
      <point x="48" y="16" type="curve" smooth="yes"/>
      <point x="48" y="-245"/>
      <point x="237" y="-404"/>
      <point x="517" y="-404" type="curve" smooth="yes"/>
      <point x="821" y="-404"/>
      <point x="983" y="-217"/>
      <point x="983" y="72" type="curve"/>
      <point x="741" y="72" type="line"/>
      <point x="741" y="-96"/>
      <point x="677" y="-174"/>
      <point x="517" y="-174" type="curve" smooth="yes"/>
      <point x="396" y="-174"/>
      <point x="284" y="-129"/>
      <point x="284" y="-2" type="curve" smooth="yes"/>
      <point x="284" y="75"/>
      <point x="325" y="135"/>
      <point x="391" y="177" type="curve" smooth="yes"/>
      <point x="506" y="251" type="line" smooth="yes"/>
      <point x="590" y="305"/>
      <point x="662" y="398"/>
      <point x="662" y="504" type="curve" smooth="yes"/>
      <point x="662" y="543"/>
      <point x="652" y="577"/>
      <point x="643" y="614" type="curve"/>
    </contour>
    <contour>
      <point x="375" y="1064" type="line"/>
      <point x="375" y="771" type="line"/>
      <point x="671" y="771" type="line"/>
      <point x="671" y="1064" type="line"/>
    </contour>
  </outline>
</glyph>
<glyph name="Aring" format="2">
  <advance width="1388"/>
  <unicode hex="00C5"/>
  <outline>
    <contour>
      <point x="1390.59" y="0" type="line" name=".av01"/>
      <point x="840.704" y="1351.68" type="line"/>
      <point x="909.312" y="1401.86"/>
      <point x="939.008" y="1476.61"/>
      <point x="939.008" y="1550.34" type="curve" smooth="yes" name=".sh01"/>
      <point x="939.008" y="1616.9"/>
      <point x="915.456" y="1674.24"/>
      <point x="868.352" y="1722.37" type="curve" smooth="yes"/>
      <point x="821.248" y="1770.5"/>
      <point x="762.88" y="1795.07"/>
      <point x="694.272" y="1794.05" type="curve" smooth="yes" name=".dv02"/>
      <point x="568.32" y="1794.05"/>
      <point x="449.536" y="1686.53"/>
      <point x="449.536" y="1550.34" type="curve" smooth="yes" name=".sh02"/>
      <point x="449.536" y="1476.61"/>
      <point x="482.304" y="1401.86"/>
      <point x="548.864" y="1352.7" type="curve"/>
      <point x="-4.096" y="0" type="line" name=".av02"/>
      <point x="312.32" y="0" type="line"/>
      <point x="335.872" y="63.488"/>
      <point x="359.424" y="128"/>
      <point x="382.976" y="193.536" type="curve" smooth="yes"/>
      <point x="425.984" y="314.368" type="line" name=".dv03"/>
      <point x="965.632" y="314.368" type="line"/>
      <point x="1077.25" y="0" type="line"/>
    </contour>
    <contour>
      <point x="694.272" y="1446.91" type="curve" smooth="yes"/>
      <point x="636.928" y="1446.91"/>
      <point x="592.896" y="1488.9"/>
      <point x="592.896" y="1553.41" type="curve" smooth="yes" name=".sh03"/>
      <point x="592.896" y="1613.82"/>
      <point x="640" y="1650.69"/>
      <point x="694.272" y="1650.69" type="curve" smooth="yes" name=".dv01"/>
      <point x="759.808" y="1650.69"/>
      <point x="796.672" y="1607.68"/>
      <point x="796.672" y="1553.41" type="curve" smooth="yes" name=".ah01"/>
      <point x="796.672" y="1492.99"/>
      <point x="760.832" y="1446.91"/>
    </contour>
    <contour>
      <point x="866.304" y="559.104" type="line" name=".ih01"/>
      <point x="524.288" y="559.104" type="line" name=".dv04"/>
      <point x="696.32" y="1019.9" type="line" name=".ih02"/>
    </contour>
  </outline>
</glyph>
<glyph name="AE" format="2">
  <advance width="1916"/>
  <unicode hex="00C6"/>
  <anchor x="1090" y="1617.92" name="top"/>
  <outline>
    <contour>
      <point x="1816" y="0" type="line" name=".dv01"/>
      <point x="1816" y="251" type="line" name=".dv02"/>
      <point x="1051" y="251" type="line" name=".dh02"/>
      <point x="1051" y="602" type="line" name=".dv07"/>
      <point x="1725" y="602" type="line"/>
      <point x="1725" y="845" type="line"/>
      <point x="1051" y="845" type="line" name=".dv08"/>
      <point x="1051" y="1202" type="line" name=".sv01"/>
      <point x="1816" y="1202" type="line"/>
      <point x="1816" y="1447" type="line"/>
      <point x="579" y="1447" type="line" name=".dv04"/>
      <point x="-4" y="0" type="line" name=".sv02"/>
      <point x="288" y="0" type="line"/>
      <point x="401" y="314" type="line" name=".dv05"/>
      <point x="785" y="314" type="line" name=".dh01"/>
      <point x="785" y="0" type="line"/>
    </contour>
    <contour>
      <point x="785" y="534" type="line" name=".sh01"/>
      <point x="493" y="534" type="line" name=".dv06"/>
      <point x="759" y="1202" type="line" name=".dv03"/>
      <point x="785" y="1202" type="line"/>
    </contour>
  </outline>
  <guideline angle="90" name="vertical" x="1090" y="0"/>
</glyph>
<glyph name="Ccedilla" format="2">
  <advance width="1493"/>
  <unicode hex="00C7"/>
  <anchor x="783" y="1620" name="top"/>
  <outline>
    <contour>
      <point x="512" y="-399" type="line"/>
      <point x="553" y="-484"/>
      <point x="644" y="-541"/>
      <point x="738" y="-541" type="curve" smooth="yes" name=".dv01"/>
      <point x="883" y="-541"/>
      <point x="979" y="-447"/>
      <point x="979" y="-304" type="curve" smooth="yes" name=".dh02"/>
      <point x="979" y="-202"/>
      <point x="907" y="-119"/>
      <point x="800" y="-97" type="curve"/>
      <point x="852" y="-18" type="line" name=".av01"/>
      <point x="1120" y="2"/>
      <point x="1325" y="138"/>
      <point x="1427" y="385" type="curve"/>
      <point x="1161" y="493" type="line"/>
      <point x="1092" y="328"/>
      <point x="956" y="236"/>
      <point x="783" y="236" type="curve" smooth="yes" name=".dv02"/>
      <point x="489" y="236"/>
      <point x="381" y="446"/>
      <point x="381" y="724" type="curve" smooth="yes" name=".dh02"/>
      <point x="381" y="990"/>
      <point x="514" y="1212"/>
      <point x="783" y="1212" type="curve" smooth="yes"/>
      <point x="968" y="1212"/>
      <point x="1111" y="1110"/>
      <point x="1156" y="959" type="curve"/>
      <point x="1429" y="1066" type="line"/>
      <point x="1309" y="1344"/>
      <point x="1081" y="1468"/>
      <point x="783" y="1468" type="curve" smooth="yes" name=".dv04"/>
      <point x="308" y="1468"/>
      <point x="70" y="1128"/>
      <point x="70" y="724" type="curve" smooth="yes" name=".dh01"/>
      <point x="70" y="336"/>
      <point x="312" y="24"/>
      <point x="699" y="-16" type="curve"/>
      <point x="612" y="-183" type="line"/>
      <point x="636" y="-205" type="line"/>
      <point x="711" y="-205" type="line" smooth="yes"/>
      <point x="780" y="-205"/>
      <point x="821" y="-246"/>
      <point x="821" y="-302" type="curve" smooth="yes" name=".dh01"/>
      <point x="821" y="-354"/>
      <point x="788" y="-386"/>
      <point x="744" y="-386" type="curve" smooth="yes" name=".dv02"/>
      <point x="710" y="-386"/>
      <point x="677" y="-366"/>
      <point x="658" y="-333" type="curve"/>
    </contour>
  </outline>
</glyph>
<glyph name="Eth" format="2">
  <advance width="1466"/>
  <unicode hex="00D0"/>
  <outline>
    <component base="D" xOffset="25" yOffset="-1.16415e-12"/>
    <contour>
      <point x="36.016" y="835.584" type="line" name=".dv06"/>
      <point x="36.016" y="624.64" type="line" name=".dv05"/>
      <point x="804.016" y="624.64" type="line"/>
      <point x="804.016" y="835.584" type="line" name=".sv02"/>
    </contour>
  </outline>
</glyph>
<glyph name="multiply" format="2">
  <advance width="1110"/>
  <unicode hex="00D7"/>
  <outline>
    <contour>
      <point x="222" y="157" type="line"/>
      <point x="554" y="485" type="line"/>
      <point x="854" y="187" type="line"/>
      <point x="1009" y="342" type="line"/>
      <point x="710" y="640" type="line"/>
      <point x="1037" y="971" type="line"/>
      <point x="887" y="1122" type="line"/>
      <point x="554" y="795" type="line"/>
      <point x="258" y="1093" type="line"/>
      <point x="102" y="938" type="line"/>
      <point x="402" y="640" type="line"/>
      <point x="72" y="308" type="line"/>
    </contour>
  </outline>
</glyph>
<glyph name="Oslash" format="2">
  <advance width="1569"/>
  <unicode hex="00D8"/>
  <outline>
    <contour>
      <point x="798" y="-20" type="curve" smooth="yes"/>
      <point x="1007" y="-20"/>
      <point x="1182" y="54"/>
      <point x="1305" y="182" type="curve" smooth="yes"/>
      <point x="1428" y="310"/>
      <point x="1498" y="493"/>
      <point x="1498" y="710" type="curve" smooth="yes"/>
      <point x="1498" y="838"/>
      <point x="1476" y="956"/>
      <point x="1435" y="1058" type="curve" smooth="yes"/>
      <point x="1394" y="1160"/>
      <point x="1332" y="1247"/>
      <point x="1252" y="1315" type="curve"/>
      <point x="1332" y="1447" type="line"/>
      <point x="1128" y="1447" type="line"/>
      <point x="1105" y="1407" type="line"/>
      <point x="1005" y="1450"/>
      <point x="899" y="1468"/>
      <point x="771" y="1468" type="curve" smooth="yes"/>
      <point x="563" y="1468"/>
      <point x="388" y="1394"/>
      <point x="265" y="1266" type="curve" smooth="yes"/>
      <point x="142" y="1137"/>
      <point x="71" y="954"/>
      <point x="71" y="738" type="curve" smooth="yes"/>
      <point x="71" y="609"/>
      <point x="92" y="491"/>
      <point x="133" y="389" type="curve" smooth="yes"/>
      <point x="174" y="287"/>
      <point x="236" y="200"/>
      <point x="317" y="132" type="curve"/>
      <point x="234" y="0" type="line"/>
      <point x="438" y="0" type="line"/>
      <point x="464" y="41" type="line"/>
      <point x="564" y="-2"/>
      <point x="669" y="-20"/>
    </contour>
    <contour>
      <point x="469" y="382" type="line"/>
      <point x="440" y="427"/>
      <point x="418" y="479"/>
      <point x="403" y="536" type="curve" smooth="yes"/>
      <point x="388" y="593"/>
      <point x="381" y="656"/>
      <point x="381" y="724" type="curve" smooth="yes"/>
      <point x="381" y="880"/>
      <point x="417" y="1001"/>
      <point x="486" y="1085" type="curve" smooth="yes"/>
      <point x="554" y="1168"/>
      <point x="655" y="1211"/>
      <point x="784" y="1211" type="curve" smooth="yes"/>
      <point x="853" y="1211"/>
      <point x="912" y="1200"/>
      <point x="963" y="1177" type="curve"/>
    </contour>
    <contour>
      <point x="793" y="236" type="curve" smooth="yes"/>
      <point x="717" y="236"/>
      <point x="657" y="246"/>
      <point x="604" y="270" type="curve"/>
      <point x="1100" y="1067" type="line"/>
      <point x="1129" y="1020"/>
      <point x="1150" y="969"/>
      <point x="1165" y="912" type="curve" smooth="yes"/>
      <point x="1180" y="855"/>
      <point x="1187" y="792"/>
      <point x="1187" y="724" type="curve" smooth="yes"/>
      <point x="1187" y="571"/>
      <point x="1150" y="449"/>
      <point x="1083" y="365" type="curve" smooth="yes"/>
      <point x="1015" y="281"/>
      <point x="917" y="236"/>
    </contour>
  </outline>
</glyph>
<glyph name="Thorn" format="2">
  <advance width="1179"/>
  <unicode hex="00DE"/>
  <outline>
    <contour>
      <point x="437" y="0" type="line" name=".av02"/>
      <point x="437" y="395" type="line" name=".dv01"/>
      <point x="630" y="395" type="line" smooth="yes"/>
      <point x="937" y="395"/>
      <point x="1144" y="548"/>
      <point x="1144" y="839" type="curve" smooth="yes" name=".sh02"/>
      <point x="1144" y="1089"/>
      <point x="995" y="1250"/>
      <point x="701" y="1250" type="curve" smooth="yes"/>
      <point x="437" y="1250" type="line" name=".dv04"/>
      <point x="437" y="1447" type="line" name=".av01"/>
      <point x="177" y="1447" type="line" name=".sh01"/>
      <point x="177" y="0" type="line"/>
    </contour>
    <contour>
      <point x="630" y="632" type="curve" smooth="yes"/>
      <point x="437" y="632" type="line" name=".dv02"/>
      <point x="437" y="1032" type="line" name=".dv03"/>
      <point x="630" y="1032" type="line" smooth="yes"/>
      <point x="799" y="1032"/>
      <point x="884" y="964"/>
      <point x="884" y="828" type="curve" smooth="yes" name=".ah01"/>
      <point x="884" y="689"/>
      <point x="797" y="632"/>
    </contour>
  </outline>
</glyph>
<glyph name="germandbls" format="2">
  <advance width="1217"/>
  <unicode hex="00DF"/>
  <outline>
    <contour>
      <point x="143.872" y="0" type="line" name=".dh01"/>
      <point x="420.352" y="0" type="line" name=".dh02"/>
      <point x="420.352" y="1003.52" type="line" smooth="yes" name=".sh03"/>
      <point x="420.352" y="1139.05"/>
      <point x="498.71" y="1230.85"/>
      <point x="614.4" y="1230.85" type="curve" smooth="yes" name=".dv03"/>
      <point x="715.266" y="1230.85"/>
      <point x="777" y="1174"/>
      <point x="777" y="1100.8" type="curve" smooth="yes" name=".sh04"/>
      <point x="777" y="1031.33"/>
      <point x="733.515" y="972.05"/>
      <point x="680.191" y="938.106" type="curve" smooth="yes"/>
      <point x="615.62" y="897.003"/>
      <point x="570.368" y="826.102"/>
      <point x="570.368" y="766.823" type="curve" smooth="yes"/>
      <point x="570.368" y="661.144"/>
      <point x="625.698" y="573.773"/>
      <point x="729.917" y="514.879" type="curve" smooth="yes"/>
      <point x="814.617" y="467.015"/>
      <point x="865.28" y="403.732"/>
      <point x="865.28" y="334.848" type="curve" smooth="yes" name=".dh03"/>
      <point x="865.28" y="269.312"/>
      <point x="823.296" y="230.4"/>
      <point x="741.376" y="230.4" type="curve" smooth="yes" name=".dv02"/>
      <point x="709.632" y="230.4"/>
      <point x="680.96" y="234.496"/>
      <point x="654.336" y="242.688" type="curve"/>
      <point x="561.152" y="9.216" type="line"/>
      <point x="624.64" y="-9.216"/>
      <point x="687.104" y="-18.432"/>
      <point x="749.568" y="-18.432" type="curve" smooth="yes" name=".dv01"/>
      <point x="1006.29" y="-18.432"/>
      <point x="1173.96" y="117.906"/>
      <point x="1173.96" y="326.656" type="curve" smooth="yes" name=".dh04"/>
      <point x="1173.96" y="473.091"/>
      <point x="1123.99" y="567.891"/>
      <point x="1006.08" y="645.163" type="curve" smooth="yes"/>
      <point x="945.774" y="684.684"/>
      <point x="898.614" y="729.979"/>
      <point x="898.614" y="764.928" type="curve" smooth="yes"/>
      <point x="898.614" y="794.77"/>
      <point x="917.411" y="829.586"/>
      <point x="950.866" y="852.607" type="curve" smooth="yes"/>
      <point x="1024.67" y="903.395"/>
      <point x="1063.92" y="984.942"/>
      <point x="1063.94" y="1100.8" type="curve" smooth="yes" name=".ih01"/>
      <point x="1063.97" y="1309.3"/>
      <point x="866.29" y="1468.42"/>
      <point x="607.232" y="1468.42" type="curve" smooth="yes" name=".dv04"/>
      <point x="327.871" y="1468.42"/>
      <point x="143.872" y="1289.14"/>
      <point x="143.872" y="1027.07" type="curve" smooth="yes" name=".sh02"/>
    </contour>
  </outline>
</glyph>
<glyph name="ae" format="2">
  <advance width="1721"/>
  <unicode hex="00E6"/>
  <outline>
    <contour>
      <point x="410" y="-20" type="curve" smooth="yes"/>
      <point x="503" y="-20"/>
      <point x="603" y="3"/>
      <point x="691" y="42" type="curve" smooth="yes"/>
      <point x="779" y="81"/>
      <point x="855" y="136"/>
      <point x="903" y="197" type="curve"/>
      <point x="789" y="197" type="line"/>
      <point x="818" y="137"/>
      <point x="876" y="85"/>
      <point x="948" y="48" type="curve" smooth="yes"/>
      <point x="1020" y="11"/>
      <point x="1106" y="-12"/>
      <point x="1190" y="-12" type="curve" smooth="yes"/>
      <point x="1283" y="-12"/>
      <point x="1365" y="3"/>
      <point x="1436" y="32" type="curve" smooth="yes"/>
      <point x="1506" y="61"/>
      <point x="1569" y="107"/>
      <point x="1626" y="170" type="curve"/>
      <point x="1428" y="341" type="line"/>
      <point x="1396" y="308"/>
      <point x="1366" y="285"/>
      <point x="1329" y="271" type="curve" smooth="yes"/>
      <point x="1292" y="257"/>
      <point x="1248" y="251"/>
      <point x="1188" y="251" type="curve" smooth="yes"/>
      <point x="1124" y="251"/>
      <point x="1072" y="266"/>
      <point x="1033" y="295" type="curve" smooth="yes"/>
      <point x="994" y="323"/>
      <point x="968" y="366"/>
      <point x="956" y="422" type="curve"/>
      <point x="1656" y="422" type="line" smooth="yes"/>
      <point x="1657" y="422"/>
      <point x="1668" y="460"/>
      <point x="1668" y="511" type="curve" smooth="yes"/>
      <point x="1668" y="683"/>
      <point x="1621" y="826"/>
      <point x="1538" y="927" type="curve" smooth="yes"/>
      <point x="1455" y="1027"/>
      <point x="1338" y="1084"/>
      <point x="1197" y="1084" type="curve" smooth="yes"/>
      <point x="1072" y="1084"/>
      <point x="961" y="1032"/>
      <point x="862" y="925" type="curve"/>
      <point x="823" y="977"/>
      <point x="773" y="1016"/>
      <point x="715" y="1043" type="curve" smooth="yes"/>
      <point x="657" y="1070"/>
      <point x="590" y="1084"/>
      <point x="518" y="1084" type="curve" smooth="yes"/>
      <point x="327" y="1084"/>
      <point x="191" y="1015"/>
      <point x="83" y="864" type="curve"/>
      <point x="278" y="721" type="line"/>
      <point x="305" y="758"/>
      <point x="340" y="790"/>
      <point x="381" y="811" type="curve" smooth="yes"/>
      <point x="421" y="832"/>
      <point x="466" y="845"/>
      <point x="510" y="845" type="curve" smooth="yes"/>
      <point x="647" y="845"/>
      <point x="721" y="765"/>
      <point x="721" y="618" type="curve"/>
      <point x="456" y="618" type="line" smooth="yes"/>
      <point x="184" y="618"/>
      <point x="36" y="509"/>
      <point x="36" y="306" type="curve" smooth="yes"/>
      <point x="36" y="218"/>
      <point x="79" y="137"/>
      <point x="148" y="78" type="curve" smooth="yes"/>
      <point x="216" y="18"/>
      <point x="310" y="-20"/>
    </contour>
    <contour>
      <point x="959" y="618" type="line"/>
      <point x="962" y="682"/>
      <point x="986" y="738"/>
      <point x="1024" y="779" type="curve" smooth="yes"/>
      <point x="1062" y="820"/>
      <point x="1113" y="845"/>
      <point x="1170" y="845" type="curve" smooth="yes"/>
      <point x="1233" y="845"/>
      <point x="1286" y="822"/>
      <point x="1325" y="782" type="curve" smooth="yes"/>
      <point x="1364" y="742"/>
      <point x="1388" y="685"/>
      <point x="1391" y="618" type="curve"/>
    </contour>
    <contour>
      <point x="457" y="207" type="curve" smooth="yes"/>
      <point x="401" y="207"/>
      <point x="361" y="215"/>
      <point x="334" y="232" type="curve"/>
      <point x="307" y="248"/>
      <point x="294" y="274"/>
      <point x="294" y="309" type="curve" smooth="yes"/>
      <point x="294" y="344"/>
      <point x="311" y="371"/>
      <point x="343" y="391" type="curve" smooth="yes"/>
      <point x="374" y="411"/>
      <point x="418" y="422"/>
      <point x="471" y="422" type="curve" smooth="yes"/>
      <point x="720" y="422" type="line"/>
      <point x="708" y="366"/>
      <point x="672" y="312"/>
      <point x="624" y="272" type="curve" smooth="yes"/>
      <point x="575" y="232"/>
      <point x="516" y="207"/>
    </contour>
  </outline>
</glyph>
<glyph name="ccedilla" format="2">
  <advance width="1037"/>
  <unicode hex="00E7"/>
  <outline>
    <contour>
      <point x="284" y="-399" type="line"/>
      <point x="304" y="-442"/>
      <point x="337" y="-477"/>
      <point x="377" y="-502" type="curve" smooth="yes"/>
      <point x="417" y="-527"/>
      <point x="463" y="-541"/>
      <point x="510" y="-541" type="curve" smooth="yes"/>
      <point x="582" y="-541"/>
      <point x="643" y="-517"/>
      <point x="685" y="-476" type="curve" smooth="yes"/>
      <point x="727" y="-435"/>
      <point x="751" y="-376"/>
      <point x="751" y="-304" type="curve" smooth="yes"/>
      <point x="751" y="-253"/>
      <point x="733" y="-207"/>
      <point x="702" y="-171" type="curve" smooth="yes"/>
      <point x="670" y="-134"/>
      <point x="625" y="-108"/>
      <point x="572" y="-97" type="curve"/>
      <point x="625" y="-15" type="line"/>
      <point x="713" y="-3"/>
      <point x="792" y="32"/>
      <point x="857" y="85" type="curve" smooth="yes"/>
      <point x="921" y="137"/>
      <point x="971" y="208"/>
      <point x="1002" y="292" type="curve"/>
      <point x="746" y="387" type="line"/>
      <point x="733" y="343"/>
      <point x="709" y="308"/>
      <point x="677" y="284" type="curve" smooth="yes"/>
      <point x="645" y="260"/>
      <point x="604" y="247"/>
      <point x="557" y="247" type="curve" smooth="yes"/>
      <point x="488" y="247"/>
      <point x="432" y="274"/>
      <point x="393" y="323" type="curve" smooth="yes"/>
      <point x="353" y="372"/>
      <point x="332" y="442"/>
      <point x="332" y="530" type="curve" smooth="yes"/>
      <point x="332" y="617"/>
      <point x="354" y="688"/>
      <point x="394" y="738" type="curve" smooth="yes"/>
      <point x="433" y="788"/>
      <point x="489" y="816"/>
      <point x="557" y="816" type="curve" smooth="yes"/>
      <point x="605" y="816"/>
      <point x="646" y="804"/>
      <point x="678" y="780" type="curve" smooth="yes"/>
      <point x="710" y="756"/>
      <point x="734" y="720"/>
      <point x="746" y="675" type="curve"/>
      <point x="1013" y="777" type="line"/>
      <point x="970" y="874"/>
      <point x="908" y="951"/>
      <point x="830" y="1004" type="curve" smooth="yes"/>
      <point x="752" y="1056"/>
      <point x="660" y="1084"/>
      <point x="557" y="1084" type="curve" smooth="yes"/>
      <point x="404" y="1084"/>
      <point x="275" y="1029"/>
      <point x="187" y="932" type="curve" smooth="yes"/>
      <point x="98" y="835"/>
      <point x="47" y="697"/>
      <point x="47" y="529" type="curve" smooth="yes"/>
      <point x="47" y="380"/>
      <point x="89" y="252"/>
      <point x="163" y="158" type="curve" smooth="yes"/>
      <point x="237" y="64"/>
      <point x="343" y="2"/>
      <point x="471" y="-15" type="curve"/>
      <point x="384" y="-183" type="line"/>
      <point x="408" y="-205" type="line"/>
      <point x="483" y="-205" type="line" smooth="yes"/>
      <point x="518" y="-205"/>
      <point x="545" y="-216"/>
      <point x="564" y="-233" type="curve"/>
      <point x="583" y="-249"/>
      <point x="593" y="-274"/>
      <point x="593" y="-302" type="curve" smooth="yes"/>
      <point x="593" y="-354"/>
      <point x="560" y="-386"/>
      <point x="516" y="-386" type="curve" smooth="yes"/>
      <point x="481" y="-386"/>
      <point x="449" y="-366"/>
      <point x="430" y="-333" type="curve"/>
    </contour>
  </outline>
</glyph>
<glyph name="eth" format="2">
  <advance width="1209"/>
  <unicode hex="00F0"/>
  <outline>
    <contour>
      <point x="604" y="-16" type="curve" smooth="yes"/>
      <point x="996" y="-16"/>
      <point x="1132" y="258"/>
      <point x="1132" y="597" type="curve" smooth="yes"/>
      <point x="1132" y="991"/>
      <point x="974" y="1253"/>
      <point x="653" y="1433" type="curve"/>
      <point x="721" y="1532" type="line"/>
      <point x="610" y="1597" type="line"/>
      <point x="540" y="1494" type="line"/>
      <point x="496" y="1518"/>
      <point x="449" y="1534"/>
      <point x="401" y="1551" type="curve"/>
      <point x="276" y="1322" type="line"/>
      <point x="319" y="1314"/>
      <point x="359" y="1305"/>
      <point x="401" y="1289" type="curve"/>
      <point x="338" y="1196" type="line"/>
      <point x="446" y="1125" type="line"/>
      <point x="522" y="1239" type="line"/>
      <point x="664" y="1172"/>
      <point x="747" y="1093"/>
      <point x="803" y="960" type="curve"/>
      <point x="719" y="1019"/>
      <point x="645" y="1034"/>
      <point x="549" y="1034" type="curve" smooth="yes"/>
      <point x="234" y="1034"/>
      <point x="43" y="786"/>
      <point x="43" y="523" type="curve" smooth="yes"/>
      <point x="43" y="190"/>
      <point x="291" y="-16"/>
    </contour>
    <contour>
      <point x="586" y="248" type="curve" smooth="yes"/>
      <point x="425" y="248"/>
      <point x="328" y="370"/>
      <point x="328" y="523" type="curve" smooth="yes"/>
      <point x="328" y="670"/>
      <point x="423" y="799"/>
      <point x="586" y="799" type="curve" smooth="yes"/>
      <point x="751" y="799"/>
      <point x="847" y="681"/>
      <point x="847" y="525" type="curve" smooth="yes"/>
      <point x="847" y="375"/>
      <point x="756" y="248"/>
    </contour>
  </outline>
</glyph>
<glyph name="divide" format="2">
  <advance width="1395"/>
  <unicode hex="00F7"/>
  <outline>
    <contour>
      <point x="846" y="831" type="line" name=".dv03"/>
      <point x="846" y="1124" type="line" name=".dv04"/>
      <point x="551" y="1124" type="line" name=".dh01"/>
      <point x="551" y="831" type="line"/>
    </contour>
    <contour>
      <point x="1325" y="539" type="line" name=".dv05"/>
      <point x="1325" y="750" type="line" name=".dv06"/>
      <point x="73" y="750" type="line"/>
      <point x="73" y="539" type="line"/>
    </contour>
    <contour>
      <point x="846" y="146" type="line" name=".dv01"/>
      <point x="846" y="441" type="line" name=".dv02"/>
      <point x="551" y="441" type="line" name=".sh01"/>
      <point x="551" y="146" type="line"/>
    </contour>
  </outline>
</glyph>
<glyph name="oslash" format="2">
  <advance width="1158"/>
  <unicode hex="00F8"/>
  <anchor x="562" y="1191.94" name="top"/>
  <outline>
    <contour>
      <point x="593" y="-20" type="curve" smooth="yes"/>
      <point x="905" y="-20"/>
      <point x="1114" y="199"/>
      <point x="1114" y="525" type="curve" smooth="yes" name=".sh01"/>
      <point x="1114" y="716"/>
      <point x="1036" y="888"/>
      <point x="908" y="980" type="curve"/>
      <point x="965" y="1071" type="line" name=".sv01"/>
      <point x="820" y="1071" type="line" name=".sh03"/>
      <point x="802" y="1041" type="line"/>
      <point x="731" y="1071"/>
      <point x="656" y="1084"/>
      <point x="562" y="1084" type="curve" smooth="yes"/>
      <point x="252" y="1084"/>
      <point x="41" y="861"/>
      <point x="41" y="533" type="curve" smooth="yes" name=".sh04"/>
      <point x="41" y="353"/>
      <point x="118" y="183"/>
      <point x="242" y="87" type="curve"/>
      <point x="187" y="-2" type="line" name=".iv01"/>
      <point x="332" y="-2" type="line" name=".sh06"/>
      <point x="348" y="26" type="line"/>
      <point x="422" y="-6"/>
      <point x="497" y="-20"/>
    </contour>
    <contour>
      <point x="380" y="313" type="line" name=".ih01"/>
      <point x="349" y="360"/>
      <point x="329" y="447"/>
      <point x="329" y="533" type="curve" smooth="yes" name=".sh05"/>
      <point x="329" y="717"/>
      <point x="430" y="843"/>
      <point x="578" y="843" type="curve" smooth="yes" name=".dv03"/>
      <point x="615" y="843"/>
      <point x="645" y="838"/>
      <point x="672" y="829" type="curve"/>
    </contour>
    <contour>
      <point x="578" y="219" type="curve" smooth="yes" name=".dv02"/>
      <point x="543" y="219"/>
      <point x="510" y="225"/>
      <point x="477" y="237" type="curve"/>
      <point x="771" y="755" type="line" name=".ih02"/>
      <point x="805" y="703"/>
      <point x="826" y="617"/>
      <point x="826" y="533" type="curve" smooth="yes" name=".ah01"/>
      <point x="826" y="339"/>
      <point x="732" y="219"/>
    </contour>
  </outline>
  <guideline angle="90" name="vertical" x="562" y="0"/>
</glyph>
<glyph name="thorn" format="2">
  <advance width="1187"/>
  <unicode hex="00FE"/>
  <outline>
    <contour>
      <point x="403" y="-449" type="line"/>
      <point x="403" y="66" type="line"/>
      <point x="474" y="7"/>
      <point x="565" y="-20"/>
      <point x="682" y="-20" type="curve" smooth="yes"/>
      <point x="819" y="-20"/>
      <point x="935" y="35"/>
      <point x="1016" y="131" type="curve" smooth="yes"/>
      <point x="1096" y="226"/>
      <point x="1143" y="362"/>
      <point x="1143" y="525" type="curve" smooth="yes"/>
      <point x="1143" y="694"/>
      <point x="1097" y="834"/>
      <point x="1017" y="931" type="curve" smooth="yes"/>
      <point x="936" y="1028"/>
      <point x="821" y="1084"/>
      <point x="681" y="1084" type="curve" smooth="yes"/>
      <point x="564" y="1084"/>
      <point x="479" y="1058"/>
      <point x="403" y="998" type="curve"/>
      <point x="403" y="1448" type="line"/>
      <point x="142" y="1448" type="line"/>
      <point x="142" y="-449" type="line"/>
    </contour>
    <contour>
      <point x="632" y="217" type="curve" smooth="yes"/>
      <point x="557" y="217"/>
      <point x="496" y="248"/>
      <point x="453" y="303" type="curve" smooth="yes"/>
      <point x="410" y="358"/>
      <point x="386" y="438"/>
      <point x="386" y="534" type="curve" smooth="yes"/>
      <point x="386" y="629"/>
      <point x="410" y="706"/>
      <point x="453" y="759" type="curve" smooth="yes"/>
      <point x="496" y="812"/>
      <point x="557" y="843"/>
      <point x="632" y="843" type="curve" smooth="yes"/>
      <point x="708" y="843"/>
      <point x="773" y="812"/>
      <point x="818" y="758" type="curve" smooth="yes"/>
      <point x="862" y="704"/>
      <point x="888" y="626"/>
      <point x="888" y="534" type="curve" smooth="yes"/>
      <point x="888" y="442"/>
      <point x="861" y="363"/>
      <point x="816" y="307" type="curve" smooth="yes"/>
      <point x="771" y="250"/>
      <point x="707" y="217"/>
    </contour>
  </outline>
</glyph>
<glyph name="aogonek" format="2">
  <advance width="1098"/>
  <unicode hex="0105"/>
  <outline>
    <contour>
      <point x="857.088" y="-461.824" type="curve" smooth="yes" name=".dv01"/>
      <point x="954.368" y="-461.824"/>
      <point x="1031.17" y="-418.816"/>
      <point x="1085.44" y="-332.8" type="curve"/>
      <point x="951.296" y="-240.64" type="line"/>
      <point x="922.624" y="-277.504"/>
      <point x="896" y="-296.96"/>
      <point x="851.968" y="-296.96" type="curve" smooth="yes" name=".dv02"/>
      <point x="805.888" y="-296.96"/>
      <point x="780.288" y="-279.552"/>
      <point x="780.288" y="-212.992" type="curve" smooth="yes" name=".dh04"/>
      <point x="780.288" y="-175.104"/>
      <point x="794.624" y="-140.288"/>
      <point x="822.272" y="-109.568" type="curve" smooth="yes"/>
      <point x="862.208" y="-65.536"/>
      <point x="917.504" y="-32.768"/>
      <point x="956.416" y="-14.336" type="curve"/>
      <point x="989.184" y="0" type="line"/>
      <point x="989.184" y="618.496" type="line" smooth="yes" name=".sh01"/>
      <point x="989.184" y="872.448"/>
      <point x="812.032" y="1040.38"/>
      <point x="531.456" y="1040.38" type="curve" smooth="yes" name=".dv04"/>
      <point x="333.824" y="1040.38"/>
      <point x="196.608" y="957.44"/>
      <point x="90.112" y="813.056" type="curve"/>
      <point x="162.816" y="761.856"/>
      <point x="234.496" y="710.656"/>
      <point x="306.176" y="658.432" type="curve"/>
      <point x="358.4" y="749.568"/>
      <point x="434.176" y="795.648"/>
      <point x="533.504" y="795.648" type="curve" smooth="yes" name=".dv03"/>
      <point x="652.288" y="795.648"/>
      <point x="719.872" y="723.968"/>
      <point x="719.872" y="618.496" type="curve" name=".dv08"/>
      <point x="443.392" y="618.496" type="line" smooth="yes"/>
      <point x="317.44" y="618.496"/>
      <point x="221.184" y="596.992"/>
      <point x="152.576" y="552.96" type="curve" smooth="yes"/>
      <point x="73.728" y="502.784"/>
      <point x="33.792" y="425.984"/>
      <point x="33.792" y="323.584" type="curve" smooth="yes" name=".dh01"/>
      <point x="33.792" y="163.84"/>
      <point x="137.216" y="48.128"/>
      <point x="278.528" y="2.048" type="curve" smooth="yes"/>
      <point x="324.608" y="-13.312"/>
      <point x="372.736" y="-20.48"/>
      <point x="422.912" y="-20.48" type="curve" smooth="yes"/>
      <point x="433.152" y="-20.48" type="line" smooth="yes" name=".dv05"/>
      <point x="559.104" y="-20.48"/>
      <point x="656.384" y="19.456"/>
      <point x="739.328" y="130.048" type="curve" name=".iv01"/>
      <point x="759.808" y="0" type="line"/>
      <point x="773.12" y="0" type="line"/>
      <point x="777.216" y="3.072" type="line" name=".iv02"/>
      <point x="749.568" y="-21.504"/>
      <point x="727.04" y="-43.008"/>
      <point x="710.656" y="-60.416" type="curve"/>
      <point x="676.864" y="-98.304"/>
      <point x="651.264" y="-137.216"/>
      <point x="634.88" y="-179.2" type="curve" smooth="yes"/>
      <point x="625.664" y="-201.728"/>
      <point x="620.544" y="-226.304"/>
      <point x="620.544" y="-251.904" type="curve" smooth="yes" name=".dh03"/>
      <point x="620.544" y="-379.904"/>
      <point x="729.088" y="-461.824"/>
    </contour>
    <contour>
      <point x="484.352" y="216.064" type="curve"/>
      <point x="475.136" y="216.064" type="line" smooth="yes" name=".dv06"/>
      <point x="384" y="216.064"/>
      <point x="320.512" y="257.024"/>
      <point x="320.512" y="314.368" type="curve" smooth="yes" name=".dh02"/>
      <point x="320.512" y="339.968"/>
      <point x="328.704" y="359.424"/>
      <point x="344.064" y="372.736" type="curve" smooth="yes"/>
      <point x="373.76" y="399.36"/>
      <point x="421.888" y="413.696"/>
      <point x="488.448" y="415.744" type="curve" smooth="yes" name=".sv01"/>
      <point x="520.192" y="416.768"/>
      <point x="550.912" y="417.792"/>
      <point x="582.656" y="417.792" type="curve" smooth="yes"/>
      <point x="719.872" y="417.792" type="line" name=".dv07"/>
      <point x="719.872" y="364.544"/>
      <point x="687.104" y="312.32"/>
      <point x="641.024" y="275.456" type="curve" smooth="yes"/>
      <point x="594.944" y="237.568"/>
      <point x="537.6" y="217.088"/>
    </contour>
  </outline>
</glyph>
<glyph name="dcaron" format="2">
  <advance width="1338"/>
  <unicode hex="010F"/>
  <outline>
    <component base="d"/>
    <contour>
      <point x="1341.44" y="961.536" type="line" name=".dv03"/>
      <point x="1580.03" y="1446.91" type="line"/>
      <point x="1303.55" y="1446.91" type="line" name=".dv04"/>
      <point x="1182.72" y="961.536" type="line"/>
    </contour>
  </outline>
</glyph>
<glyph name="dcroat" format="2">
  <advance width="1212"/>
  <unicode hex="0111"/>
  <outline>
    <contour>
      <point x="535" y="1343" type="line"/>
      <point x="535" y="1160" type="line"/>
      <point x="1185" y="1160" type="line"/>
      <point x="1185" y="1343" type="line"/>
    </contour>
    <contour>
      <point x="507" y="-20" type="curve" smooth="yes"/>
      <point x="631" y="-20"/>
      <point x="738" y="25"/>
      <point x="797" y="105" type="curve"/>
      <point x="811" y="0" type="line"/>
      <point x="1069" y="0" type="line"/>
      <point x="1069" y="1448" type="line"/>
      <point x="784" y="1448" type="line"/>
      <point x="784" y="972" type="line"/>
      <point x="721" y="1047"/>
      <point x="622" y="1084"/>
      <point x="495" y="1084" type="curve" smooth="yes"/>
      <point x="367" y="1084"/>
      <point x="257" y="1028"/>
      <point x="179" y="932" type="curve" smooth="yes"/>
      <point x="101" y="836"/>
      <point x="54" y="700"/>
      <point x="54" y="543" type="curve" smooth="yes"/>
      <point x="54" y="459"/>
      <point x="65" y="382"/>
      <point x="87" y="313" type="curve" smooth="yes"/>
      <point x="108" y="244"/>
      <point x="139" y="184"/>
      <point x="179" y="135" type="curve" smooth="yes"/>
      <point x="218" y="86"/>
      <point x="266" y="48"/>
      <point x="322" y="21" type="curve" smooth="yes"/>
      <point x="377" y="-7"/>
      <point x="439" y="-20"/>
    </contour>
    <contour>
      <point x="574" y="239" type="curve" smooth="yes"/>
      <point x="501" y="239"/>
      <point x="441" y="267"/>
      <point x="401" y="317" type="curve" smooth="yes"/>
      <point x="360" y="367"/>
      <point x="338" y="440"/>
      <point x="338" y="532" type="curve" smooth="yes"/>
      <point x="338" y="623"/>
      <point x="362" y="698"/>
      <point x="403" y="750" type="curve" smooth="yes"/>
      <point x="443" y="802"/>
      <point x="502" y="831"/>
      <point x="574" y="831" type="curve" smooth="yes"/>
      <point x="646" y="831"/>
      <point x="705" y="802"/>
      <point x="745" y="751" type="curve" smooth="yes"/>
      <point x="785" y="699"/>
      <point x="808" y="624"/>
      <point x="808" y="532" type="curve" smooth="yes"/>
      <point x="808" y="441"/>
      <point x="786" y="368"/>
      <point x="746" y="317" type="curve" smooth="yes"/>
      <point x="705" y="266"/>
      <point x="646" y="239"/>
    </contour>
  </outline>
</glyph>
<glyph name="eogonek" format="2">
  <advance width="1102"/>
  <unicode hex="0119"/>
  <outline>
    <contour>
      <point x="722.944" y="-413.696" type="curve" smooth="yes" name=".dv01"/>
      <point x="817.152" y="-413.696"/>
      <point x="892.928" y="-370.688"/>
      <point x="951.296" y="-284.672" type="curve"/>
      <point x="907.264" y="-252.928"/>
      <point x="862.208" y="-222.208"/>
      <point x="817.152" y="-191.488" type="curve"/>
      <point x="789.504" y="-229.376"/>
      <point x="756.736" y="-247.808"/>
      <point x="717.824" y="-247.808" type="curve" smooth="yes" name=".dv02"/>
      <point x="671.744" y="-247.808"/>
      <point x="646.144" y="-231.424"/>
      <point x="646.144" y="-164.864" type="curve" smooth="yes" name=".dh02"/>
      <point x="646.144" y="-124.928"/>
      <point x="663.552" y="-87.04"/>
      <point x="697.344" y="-52.224" type="curve" smooth="yes"/>
      <point x="722.944" y="-24.576"/>
      <point x="757.76" y="1.024"/>
      <point x="802.816" y="25.6" type="curve"/>
      <point x="879.616" y="55.296"/>
      <point x="948.224" y="103.424"/>
      <point x="1009.66" y="169.984" type="curve"/>
      <point x="945.152" y="227.328"/>
      <point x="880.64" y="284.672"/>
      <point x="816.128" y="340.992" type="curve"/>
      <point x="783.36" y="307.2"/>
      <point x="747.52" y="283.648"/>
      <point x="708.608" y="268.288" type="curve"/>
      <point x="676.864" y="257.024"/>
      <point x="630.784" y="250.88"/>
      <point x="570.368" y="250.88" type="curve" smooth="yes" name=".dv06"/>
      <point x="440.32" y="250.88"/>
      <point x="364.544" y="307.2"/>
      <point x="340.992" y="420.864" type="curve" name=".dv07"/>
      <point x="1040.38" y="420.864" type="line"/>
      <point x="1044.48" y="429.056"/>
      <point x="1051.65" y="471.04"/>
      <point x="1051.65" y="512" type="curve" smooth="yes"/>
      <point x="1051.65" y="528.384"/>
      <point x="1049.6" y="544.768"/>
      <point x="1049.6" y="558.08" type="curve"/>
      <point x="1042.43" y="702.464"/>
      <point x="1000.45" y="816.128"/>
      <point x="921.6" y="900.096" type="curve"/>
      <point x="832.512" y="991.232"/>
      <point x="710.656" y="1036.29"/>
      <point x="553.984" y="1036.29" type="curve" smooth="yes" name=".dv04"/>
      <point x="308.224" y="1036.29"/>
      <point x="143.36" y="896"/>
      <point x="76.8" y="706.56" type="curve" smooth="yes"/>
      <point x="55.296" y="645.12"/>
      <point x="45.056" y="581.632"/>
      <point x="45.056" y="515.072" type="curve" smooth="yes"/>
      <point x="45.056" y="496.64" type="line" smooth="yes"/>
      <point x="45.056" y="362.496"/>
      <point x="92.16" y="234.496"/>
      <point x="182.272" y="140.288" type="curve" smooth="yes"/>
      <point x="272.384" y="46.08"/>
      <point x="406.528" y="-12.288"/>
      <point x="567.296" y="-12.288" type="curve" name=".dv05"/>
      <point x="513.024" y="-74.752"/>
      <point x="485.376" y="-138.24"/>
      <point x="485.376" y="-203.776" type="curve" smooth="yes" name=".dh01"/>
      <point x="485.376" y="-331.776"/>
      <point x="592.896" y="-413.696"/>
    </contour>
    <contour>
      <point x="774.144" y="618.496" type="curve"/>
      <point x="340.992" y="618.496" type="line" name=".dv08"/>
      <point x="371.712" y="741.376"/>
      <point x="442.368" y="802.816"/>
      <point x="553.984" y="802.816" type="curve" smooth="yes" name=".dv03"/>
      <point x="681.984" y="802.816"/>
      <point x="750.592" y="748.544"/>
    </contour>
  </outline>
</glyph>
<glyph name="gcommaaccent" format="2">
  <advance width="1143"/>
  <unicode hex="0123"/>
  <anchor x="573" y="-472" name="m.uni0326"/>
  <anchor x="0" y="11" name="m.uni0328_1"/>
  <anchor x="574" y="1072" name="m.uni0308_2"/>
  <anchor x="0" y="11" name="m.uni031B_3_2"/>
  <outline>
    <contour>
      <point x="636" y="1192" type="line" name=".dv03"/>
      <point x="778" y="1521" type="line" name=".ih01"/>
      <point x="623" y="1521" type="line" name=".dv04"/>
      <point x="362" y="1192" type="line" name=".ih03"/>
    </contour>
    <contour>
      <point x="576" y="-463" type="curve"/>
      <point x="809" y="-463"/>
      <point x="1082" y="-373"/>
      <point x="1082" y="-105" type="curve" smooth="yes"/>
      <point x="1082" y="115"/>
      <point x="891" y="207"/>
      <point x="691" y="203" type="curve"/>
      <point x="470" y="203" type="line" smooth="yes"/>
      <point x="378" y="203"/>
      <point x="325" y="222"/>
      <point x="325" y="283" type="curve" smooth="yes"/>
      <point x="325" y="323"/>
      <point x="346" y="350"/>
      <point x="383" y="364" type="curve"/>
      <point x="447" y="343"/>
      <point x="516" y="332"/>
      <point x="591" y="332" type="curve" smooth="yes"/>
      <point x="814" y="332"/>
      <point x="1015" y="456"/>
      <point x="1012" y="694" type="curve" smooth="yes"/>
      <point x="1012" y="759"/>
      <point x="998" y="819"/>
      <point x="971" y="872" type="curve"/>
      <point x="1126" y="993" type="line"/>
      <point x="980" y="1176" type="line"/>
      <point x="815" y="1036" type="line"/>
      <point x="744" y="1071"/>
      <point x="665" y="1084"/>
      <point x="576" y="1084" type="curve" smooth="yes"/>
      <point x="338" y="1084"/>
      <point x="140" y="947"/>
      <point x="137" y="704" type="curve" smooth="yes"/>
      <point x="137" y="623"/>
      <point x="158" y="555"/>
      <point x="202" y="497" type="curve"/>
      <point x="105" y="440"/>
      <point x="60" y="352"/>
      <point x="60" y="258" type="curve" smooth="yes"/>
      <point x="60" y="149"/>
      <point x="122" y="69"/>
      <point x="203" y="15" type="curve"/>
      <point x="60" y="-29" type="line"/>
      <point x="47" y="-59"/>
      <point x="41" y="-93"/>
      <point x="41" y="-129" type="curve" smooth="yes"/>
      <point x="41" y="-379"/>
      <point x="363" y="-468"/>
    </contour>
    <contour>
      <point x="581" y="533" type="curve" smooth="yes"/>
      <point x="480" y="533"/>
      <point x="422" y="601"/>
      <point x="422" y="698" type="curve" smooth="yes"/>
      <point x="422" y="796"/>
      <point x="479" y="861"/>
      <point x="581" y="859" type="curve"/>
      <point x="681" y="859"/>
      <point x="739" y="797"/>
      <point x="737" y="698" type="curve"/>
      <point x="737" y="601"/>
      <point x="679" y="533"/>
    </contour>
    <contour>
      <point x="585" y="-254" type="curve" smooth="yes"/>
      <point x="426" y="-254"/>
      <point x="311" y="-196"/>
      <point x="306" y="-114" type="curve"/>
      <point x="391" y="-36" type="line"/>
      <point x="576" y="-36" type="line" smooth="yes"/>
      <point x="728" y="-36"/>
      <point x="809" y="-47"/>
      <point x="809" y="-129" type="curve" smooth="yes"/>
      <point x="809" y="-202"/>
      <point x="716" y="-254"/>
    </contour>
  </outline>
</glyph>
<glyph name="uni0123" format="2">
  <advance width="1082"/>
  <unicode hex="0123"/>
  <outline>
    <component base="g"/>
    <contour>
      <point x="635.904" y="1192.18" type="line" name=".dv03"/>
      <point x="778.24" y="1520.88" type="line" name=".ih01"/>
      <point x="622.592" y="1520.88" type="line" name=".dv04"/>
      <point x="362.496" y="1192.18" type="line" name=".ih03"/>
    </contour>
  </outline>
</glyph>
<glyph name="Hbar" format="2">
  <advance width="1538"/>
  <unicode hex="0126"/>
  <outline>
    <component base="H"/>
    <contour>
      <point x="74.752" y="1222.66" type="line"/>
      <point x="74.752" y="1058.82" type="line" name=".sv03"/>
      <point x="1461.25" y="1058.82" type="line"/>
      <point x="1461.25" y="1222.66" type="line"/>
    </contour>
  </outline>
</glyph>
